<?xml version="1.0" standalone="no"?>
<!DOCTYPE svg PUBLIC "-//W3C//DTD SVG 20010904//EN"
 "http://www.w3.org/TR/2001/REC-SVG-20010904/DTD/svg10.dtd">
<svg version="1.0" xmlns="http://www.w3.org/2000/svg"
 width="175.000000pt" height="203.000000pt" viewBox="0 0 175.000000 203.000000"
 preserveAspectRatio="xMidYMid meet">

<g transform="translate(0.000000,203.000000) scale(0.100000,-0.100000)"
fill="#000000" stroke="none">
<path d="M3 1998 c0 -18 2 -28 4 -22 2 7 12 10 23 7 13 -3 18 0 17 14 -2 13 5
18 23 18 19 0 25 -5 24 -23 -1 -20 1 -21 16 -7 22 20 27 19 34 -10 7 -29 -18
-64 -49 -66 -17 -1 -17 -2 -2 -6 18 -5 24 -22 7 -24 -5 -1 -15 -2 -21 -3 -20
-2 -35 -35 -33 -71 2 -20 -1 -33 -5 -30 -5 3 -11 -1 -14 -9 -4 -10 0 -12 14
-9 13 4 19 14 19 34 0 15 4 30 8 33 5 3 8 -13 8 -35 -1 -23 2 -43 7 -46 4 -2
20 8 35 24 26 27 72 35 72 12 0 -5 5 -9 11 -9 5 0 7 5 3 11 -4 7 -1 10 6 7 22
-7 23 -28 1 -28 -13 0 -19 -6 -18 -17 1 -15 10 -18 46 -17 85 1 89 3 44 23
-34 16 -41 24 -39 44 2 13 6 30 11 36 12 21 -15 62 -38 55 -12 -4 -26 2 -40
17 -18 19 -18 22 -3 16 20 -8 59 10 51 23 -3 5 0 12 6 16 6 4 16 0 21 -9 5
-10 15 -14 25 -10 14 6 14 8 -3 20 -15 11 -15 13 -2 13 15 0 48 -50 48 -72 0
-4 -11 -8 -24 -8 -34 0 -40 -16 -16 -40 24 -24 25 -30 5 -30 -13 0 -14 -4 -5
-20 22 -41 45 -42 84 -5 35 33 42 70 10 58 -10 -4 -14 3 -14 26 0 36 3 38 30
11 24 -24 63 -26 80 -5 7 8 19 15 26 15 17 0 18 16 2 26 -7 4 -10 4 -6 -1 9
-9 -40 -50 -49 -41 -3 3 4 15 16 25 13 11 20 24 17 30 -4 6 8 9 31 6 21 -1 43
-3 49 -4 11 -1 11 -41 0 -60 -10 -15 52 -44 79 -37 19 5 26 0 39 -29 10 -19
14 -40 11 -45 -3 -6 1 -7 9 -4 9 3 16 1 16 -5 0 -6 11 -11 25 -11 14 0 25 -5
25 -11 0 -5 5 -7 10 -4 6 4 7 11 4 17 -5 7 -2 8 5 4 7 -5 10 -14 7 -22 -8 -21
31 -18 43 3 5 10 32 22 60 29 51 11 61 8 39 -14 -8 -8 -5 -10 14 -7 27 5 65
-26 53 -44 -3 -7 3 -11 16 -11 19 0 21 -4 15 -34 -6 -33 7 -59 17 -34 3 8 6 6
6 -4 1 -14 8 -16 38 -12 34 4 35 3 19 -9 -18 -13 -18 -14 -1 -21 13 -5 15 -9
6 -20 -6 -7 -9 -15 -6 -17 13 -14 -73 -5 -88 9 -16 14 -17 13 -15 -23 3 -40
44 -95 70 -95 7 0 24 16 38 35 32 43 64 54 58 20 -3 -16 -1 -22 8 -18 6 2 15
0 19 -6 3 -6 -4 -15 -17 -20 -13 -4 -23 -14 -24 -22 -4 -54 -2 -52 -41 -46
-21 4 -47 8 -57 9 -26 4 -30 -15 -6 -30 15 -9 26 -10 40 -2 17 9 20 8 20 -13
0 -19 7 -26 31 -31 44 -9 49 -8 43 8 -3 8 -1 17 5 21 7 4 8 0 4 -11 -4 -10 -2
-15 4 -11 5 3 10 0 10 -8 0 -8 -4 -12 -8 -9 -4 2 -11 -1 -14 -7 -5 -7 6 -9 38
-4 28 4 47 3 51 -4 4 -6 18 -11 32 -11 20 0 24 5 24 31 0 19 4 28 11 23 6 -3
9 -19 7 -35 -3 -15 -1 -26 2 -24 8 5 31 -67 24 -74 -3 -3 -31 -6 -62 -6 -39
-1 -66 -7 -85 -20 -22 -14 -30 -16 -36 -6 -6 10 -10 8 -15 -5 -4 -9 1 -28 10
-41 23 -36 10 -39 -19 -3 -29 34 -37 37 -37 14 0 -9 -6 -14 -12 -11 -7 2 -12
10 -11 16 2 6 -2 11 -7 11 -6 0 -10 5 -10 11 0 5 6 7 13 4 6 -4 1 3 -13 14
-33 27 -43 26 -38 -3 3 -16 -2 -27 -15 -36 -17 -10 -18 -13 -4 -27 8 -8 28
-16 43 -17 35 -2 77 -24 69 -36 -3 -4 -23 -11 -46 -15 -35 -6 -48 -3 -90 24
-28 17 -55 31 -60 31 -5 0 -19 9 -30 19 -26 24 -124 29 -115 5 3 -8 1 -14 -4
-14 -9 0 17 -34 57 -75 6 -7 9 -22 6 -35 -4 -13 0 -25 8 -31 11 -7 11 -9 1 -9
-8 0 -11 -7 -8 -17 7 -23 -8 -50 -18 -34 -9 14 -26 5 -26 -15 0 -8 7 -14 16
-14 8 0 12 -5 9 -10 -10 -17 5 -68 22 -74 22 -9 52 21 46 45 -3 12 0 19 9 19
7 0 21 9 31 20 18 21 47 27 47 10 0 -6 14 5 30 23 34 39 38 55 14 53 -9 0 -19
5 -21 12 -4 9 4 11 26 7 26 -4 36 0 64 31 33 37 34 37 60 19 26 -16 26 -18 9
-41 -18 -25 -32 -31 -32 -14 0 5 -9 1 -20 -10 -39 -39 -23 -120 20 -104 27 10
32 9 38 -6 2 -8 1 -12 -3 -8 -4 4 -25 -8 -47 -26 -27 -24 -46 -32 -60 -28 -15
4 -19 2 -13 -7 4 -8 -1 -18 -14 -27 -36 -26 -14 -36 60 -28 55 5 69 4 69 -7 0
-14 -63 -39 -100 -39 -25 0 -25 -9 -2 -26 16 -13 16 -14 -3 -8 -13 5 -17 4
-10 -3 13 -14 87 -25 80 -12 -10 16 5 10 27 -11 12 -11 22 -28 23 -38 0 -10 8
-29 18 -42 9 -13 14 -27 12 -31 -3 -4 2 -9 10 -13 8 -3 15 -10 15 -16 0 -14
-46 -60 -59 -60 -5 0 -30 17 -55 38 -24 20 -75 60 -112 87 -37 28 -80 62 -95
78 -26 26 -43 31 -82 27 -9 -1 -33 8 -51 19 -18 12 -43 21 -55 21 -11 0 -21 4
-21 9 0 5 8 7 19 4 10 -3 22 1 26 7 6 9 -2 11 -30 8 -30 -3 -40 0 -52 19 -17
25 -38 30 -47 11 -5 -10 -7 -10 -12 0 -3 6 -11 12 -19 12 -7 0 -19 7 -26 17
-13 15 -12 15 8 5 25 -14 63 -16 63 -4 0 10 -64 34 -78 30 -6 -2 -17 6 -26 17
-11 15 -10 6 4 -33 23 -61 25 -76 8 -67 -7 4 -5 0 4 -8 21 -17 24 -67 4 -67
-7 0 -19 -7 -26 -15 -10 -13 -8 -13 18 0 16 9 36 22 43 31 7 8 20 19 30 25 15
7 17 6 13 -6 -4 -11 -2 -13 9 -9 23 9 31 -15 11 -37 -9 -10 -14 -22 -11 -26 4
-3 2 -12 -4 -20 -9 -9 -8 -13 0 -13 7 0 5 -9 -5 -26 -9 -14 -23 -23 -30 -20
-8 3 -14 -1 -14 -9 0 -19 29 -20 36 -1 4 11 13 12 35 6 24 -7 29 -6 29 8 1 15
2 14 12 -2 9 -16 7 -23 -10 -37 -18 -14 -19 -19 -8 -28 11 -9 15 -9 18 0 2 7
9 5 18 -7 9 -11 10 -15 3 -10 -8 4 -13 2 -13 -4 0 -15 -68 -43 -87 -36 -8 3
-11 1 -8 -4 4 -6 -10 -10 -32 -10 -22 0 -44 -5 -51 -12 -7 -7 -12 -8 -12 -4 0
5 -6 4 -12 -2 -7 -6 -31 -12 -53 -14 -30 -2 -40 1 -40 12 0 9 7 14 18 12 24
-4 22 24 -3 31 -13 3 -20 0 -20 -8 0 -26 -15 -23 -17 2 -2 47 -49 51 -77 7
-18 -26 -5 -42 14 -19 17 21 32 8 18 -15 -15 -23 -4 -37 15 -22 11 9 14 8 14
-4 0 -12 -7 -14 -28 -10 -25 5 -56 -13 -44 -26 3 -3 -14 -4 -37 -3 -24 2 -47
0 -53 -3 -5 -4 -17 -7 -25 -7 -23 -1 -60 -16 -60 -24 0 -7 -46 -14 -87 -13
-13 0 -23 -4 -23 -9 0 -4 -7 -6 -15 -3 -13 5 -15 -13 -15 -130 l0 -136 875 0
875 0 0 578 0 578 -42 1 c-113 2 -154 6 -163 13 -5 4 -22 10 -37 14 -39 9 -88
54 -109 101 -23 50 -25 154 -4 195 18 35 68 74 116 89 40 13 170 16 213 5 21
-5 27 -4 22 5 -4 6 -13 8 -19 4 -8 -4 -8 -2 1 9 10 13 10 17 -2 21 -9 4 -18 2
-21 -3 -12 -20 -33 -10 -28 13 4 21 4 21 -11 3 -10 -12 -21 -16 -33 -12 -15 6
-15 8 -3 16 11 7 8 10 -13 10 -25 0 -27 -2 -16 -21 9 -17 8 -20 -3 -13 -7 5
-24 7 -37 5 -16 -2 -21 1 -16 10 6 9 -7 11 -58 7 -57 -5 -64 -4 -52 9 11 11
41 14 122 13 60 -1 127 -1 151 -1 l42 1 0 190 0 190 -873 0 -874 0 0 -32z
m144 16 c-3 -3 -12 -4 -19 -1 -8 3 -5 6 6 6 11 1 17 -2 13 -5z m131 -14 c-9
-14 -14 -16 -20 -7 -6 10 5 20 30 26 1 1 -3 -8 -10 -19z m-58 -2 c0 -11 -28
-10 -35 1 -3 6 4 9 15 8 11 -1 20 -5 20 -9z m130 -99 c0 -6 -4 -7 -10 -4 -5 3
-10 11 -10 16 0 6 5 7 10 4 6 -3 10 -11 10 -16z m405 -88 c-3 -26 -28 -18 -48
17 l-19 33 35 -17 c21 -10 34 -23 32 -33z m-645 14 c0 -8 -4 -15 -8 -15 -5 0
-9 7 -9 15 0 8 4 15 9 15 4 0 8 -7 8 -15z m220 -15 c0 -5 -5 -10 -11 -10 -5 0
-7 5 -4 10 3 6 8 10 11 10 2 0 4 -4 4 -10z m1097 -166 c-3 -3 -12 -4 -19 -1
-8 3 -5 6 6 6 11 1 17 -2 13 -5z m-370 -146 c-3 -8 -6 -5 -6 6 -1 11 2 17 5
13 3 -3 4 -12 1 -19z m203 2 c0 -5 -2 -10 -4 -10 -3 0 -8 5 -11 10 -3 6 -1 10
4 10 6 0 11 -4 11 -10z m40 -49 c0 -5 -7 -11 -15 -15 -15 -5 -20 5 -8 17 9 10
23 9 23 -2z m18 -46 c7 -14 12 -29 12 -33 -1 -10 -40 38 -40 49 0 18 17 8 28
-16z m-88 6 c0 -5 -7 -11 -15 -15 -9 -3 -15 0 -15 9 0 8 7 15 15 15 8 0 15 -4
15 -9z m40 -36 c10 -12 10 -15 -1 -16 -10 0 -11 -2 -1 -6 22 -9 12 -18 -23
-20 -39 -3 -45 10 -18 39 20 22 27 22 43 3z m165 -223 c10 -24 18 -26 81 -23
29 2 44 -3 54 -16 12 -15 12 -16 0 -5 -18 15 -31 16 -27 0 1 -7 -9 -14 -23
-16 -14 -2 -29 -8 -35 -12 -16 -13 -60 0 -74 23 -11 17 -11 22 3 32 9 7 16 15
16 19 0 8 -24 3 -31 -8 -4 -4 -17 -5 -30 0 l-24 7 30 13 c37 16 47 14 60 -14z
m-72 -44 c23 -36 30 -55 23 -60 -8 -6 -6 -11 4 -17 12 -8 9 -12 -12 -20 -20
-7 -25 -15 -21 -31 4 -15 9 -18 18 -10 10 8 17 5 29 -12 9 -13 19 -22 21 -20
14 7 26 0 22 -13 -4 -8 -2 -17 3 -20 15 -9 12 -35 -4 -35 -7 0 -19 7 -26 15
-18 21 -32 8 -19 -18 10 -18 7 -17 -14 6 -14 15 -34 27 -44 27 -13 0 -18 8
-18 29 0 16 3 27 8 24 4 -2 7 -2 7 1 0 2 3 12 6 21 6 14 1 16 -24 14 -33 -4
-92 31 -92 54 1 8 5 7 13 -3 7 -8 21 -22 31 -30 18 -14 18 -13 12 10 -4 14
-12 35 -19 48 -8 18 -8 27 1 40 7 9 15 25 18 35 12 33 42 19 77 -35z m241 -34
c3 -8 2 -12 -4 -9 -6 3 -10 10 -10 16 0 14 7 11 14 -7z m-84 -4 c0 -5 -4 -10
-10 -10 -5 0 -10 5 -10 10 0 6 5 10 10 10 6 0 10 -4 10 -10z m-63 -42 c-3 -8
-6 -5 -6 6 -1 11 2 17 5 13 3 -3 4 -12 1 -19z m203 -12 c0 -2 -7 -7 -16 -10
-8 -3 -12 -2 -9 4 6 10 25 14 25 6z m-662 -28 c11 -9 5 -15 -30 -29 -39 -15
-44 -15 -64 0 -13 10 -19 20 -14 26 12 15 91 17 108 3z m442 2 c8 -5 11 -12 7
-16 -4 -4 -15 0 -24 9 -18 18 -8 23 17 7z m54 -8 c3 -5 -1 -9 -9 -9 -8 0 -15
4 -15 9 0 4 4 8 9 8 6 0 12 -4 15 -8z m-184 -32 c0 -5 -2 -10 -4 -10 -3 0 -8
5 -11 10 -3 6 -1 10 4 10 6 0 11 -4 11 -10z m319 -16 c5 3 4 -5 -2 -19 -11
-23 -12 -23 -15 -5 -2 11 -8 18 -13 15 -5 -4 -9 1 -9 11 0 13 3 14 15 4 8 -6
18 -9 24 -6z m-649 -4 c-18 -12 -30 -13 -30 -2 0 4 10 9 22 9 18 2 20 0 8 -7z
m253 -14 c21 -8 30 -8 36 2 4 7 15 10 24 6 13 -5 12 -10 -11 -30 -21 -18 -23
-23 -10 -24 11 0 15 -5 12 -14 -3 -8 3 -19 15 -25 16 -9 23 -7 35 11 17 24 20
23 30 -9 6 -18 4 -22 -8 -17 -25 10 -20 -31 6 -48 12 -8 18 -19 14 -26 -10
-16 -36 -3 -36 19 0 10 -6 19 -14 19 -8 0 -17 7 -20 16 -4 9 -9 14 -12 11 -3
-3 1 -20 10 -38 9 -18 16 -38 16 -44 0 -16 27 -27 35 -15 8 13 25 13 25 0 0
-5 -7 -10 -15 -10 -8 0 -19 -9 -25 -20 -9 -16 -14 -18 -29 -8 -16 10 -24 6
-55 -25 -40 -42 -42 -42 -62 -22 -14 13 -13 15 3 15 15 0 14 2 -5 16 -18 13
-21 19 -11 30 14 17 39 2 39 -23 0 -11 4 -11 18 3 19 19 25 84 8 85 -6 0 -1 4
12 9 14 6 22 18 22 33 0 20 -4 23 -25 19 -27 -5 -32 6 -12 27 10 11 10 13 0 7
-7 -4 -13 -2 -13 4 0 14 -40 49 -57 50 -14 0 -18 22 -6 34 4 3 14 4 22 0 9 -4
29 -11 44 -18z m364 -21 c0 -8 -4 -15 -9 -15 -4 0 -8 7 -8 15 0 8 4 15 8 15 5
0 9 -7 9 -15z m-157 -105 c0 -5 -4 -10 -10 -10 -5 0 -10 5 -10 10 0 6 5 10 10
10 6 0 10 -4 10 -10z m-170 -10 c0 -5 -4 -10 -9 -10 -6 0 -13 5 -16 10 -3 6 1
10 9 10 9 0 16 -4 16 -10z m-576 -145 c-4 -8 -11 -12 -16 -9 -6 4 -5 10 3 15
19 12 19 11 13 -6z m173 -59 c-2 -6 -10 -11 -18 -14 -12 -3 -12 -2 1 7 12 8
12 12 -3 29 -9 10 -17 23 -17 28 0 5 9 -2 20 -16 11 -14 18 -29 17 -34z m-190
-18 c-3 -8 -6 -5 -6 6 -1 11 2 17 5 13 3 -3 4 -12 1 -19z m214 -36 c11 -28 2
-28 -22 0 -23 26 -23 27 -2 24 9 -2 20 -12 24 -24z"/>
<path d="M1458 1103 c7 -3 16 -2 19 1 4 3 -2 6 -13 5 -11 0 -14 -3 -6 -6z"/>
<path d="M15 1940 c3 -5 0 -10 -7 -12 -8 -3 -9 -6 -1 -11 5 -3 18 0 28 7 17
12 17 13 -4 19 -11 3 -19 1 -16 -3z"/>
<path d="M65 1941 c-3 -5 -1 -12 5 -16 5 -3 10 1 10 9 0 18 -6 21 -15 7z"/>
<path d="M470 1810 c0 -5 -6 -10 -14 -10 -8 0 -17 -3 -19 -7 -3 -5 17 -9 44
-10 42 -2 54 -8 88 -42 60 -60 77 -66 97 -36 23 35 14 48 -33 50 -39 1 -79 25
-66 39 4 3 -3 6 -15 6 -12 0 -22 5 -22 10 0 6 -13 10 -30 10 -16 0 -30 -4 -30
-10z"/>
<path d="M446 1735 c15 -20 36 -40 46 -46 10 -5 16 -14 13 -18 -7 -12 37 -23
48 -12 4 4 0 14 -9 22 -16 12 -17 12 -10 -1 4 -8 -14 9 -42 38 -57 59 -87 70
-46 17z"/>
<path d="M115 1730 c-3 -6 1 -7 9 -4 18 7 21 14 7 14 -6 0 -13 -4 -16 -10z"/>
<path d="M835 1720 c-6 -10 -5 -11 14 -14 22 -3 22 -16 0 -17 l-24 0 23 -10
c13 -5 32 -19 41 -31 24 -28 56 -18 45 14 -4 13 -11 26 -17 29 -5 4 -6 12 -2
19 6 10 1 11 -19 6 -15 -4 -26 -2 -26 4 0 13 -27 13 -35 0z"/>
<path d="M940 1716 c0 -2 7 -9 15 -16 12 -10 15 -10 15 4 0 9 -7 16 -15 16 -8
0 -15 -2 -15 -4z"/>
<path d="M274 1679 c14 -17 26 -41 26 -55 0 -20 5 -24 30 -24 16 0 45 -8 65
-17 34 -16 36 -16 50 3 19 25 19 60 -1 68 -25 10 -66 7 -59 -4 4 -6 -1 -7 -10
-3 -10 3 -21 0 -25 -7 -7 -11 -12 -10 -25 4 -17 16 -16 17 4 23 31 8 16 22
-20 18 -20 -3 -32 1 -36 10 -3 8 -10 15 -15 15 -5 0 2 -14 16 -31z"/>
<path d="M170 1680 c0 -5 4 -10 9 -10 6 0 13 5 16 10 3 6 -1 10 -9 10 -9 0
-16 -4 -16 -10z"/>
<path d="M738 1673 c-10 -2 -18 -9 -18 -14 0 -5 -6 -9 -13 -9 -14 0 -77 -29
-77 -35 0 -2 14 0 30 5 28 8 30 7 30 -20 0 -16 5 -32 10 -35 6 -4 8 -10 6 -14
-3 -4 1 -8 8 -8 9 0 13 9 10 26 -3 24 -2 24 9 7 17 -27 50 -64 41 -47 -4 9 0
19 11 28 11 7 14 13 8 13 -6 0 -14 7 -17 16 -5 13 1 15 32 12 49 -4 51 21 2
37 -19 6 -36 19 -38 28 -4 17 -5 18 -34 10z"/>
<path d="M10 1651 c-8 -16 -5 -20 16 -25 31 -8 37 -5 28 17 -9 24 -33 28 -44
8z"/>
<path d="M90 1640 c-12 -8 -11 -10 7 -10 12 0 25 5 28 10 8 13 -15 13 -35 0z"/>
<path d="M140 1630 c-14 -11 -30 -24 -36 -29 -7 -6 -15 -7 -18 -4 -10 11 -7
-67 4 -88 12 -21 55 -26 66 -7 4 6 3 8 -3 5 -6 -4 -17 0 -24 9 -10 12 -10 17
-1 23 7 4 10 15 6 24 -4 11 1 19 18 26 47 19 53 22 78 37 25 16 25 16 -12 10
-21 -2 -38 -1 -38 5 0 14 -12 10 -40 -11z"/>
<path d="M544 1606 c-3 -8 -17 -17 -30 -20 -16 -4 -22 -11 -17 -19 4 -7 8 -16
8 -22 1 -5 7 -9 14 -7 7 1 10 -1 7 -6 -3 -5 1 -18 9 -28 14 -18 15 -17 11 9
-4 22 -1 28 11 25 9 -2 18 -9 21 -16 2 -7 -2 -10 -11 -6 -12 4 -14 0 -10 -15
4 -14 1 -21 -10 -21 -8 0 -20 -6 -26 -14 -10 -12 -9 -13 8 -9 13 3 23 -2 31
-16 6 -12 15 -19 21 -16 13 9 11 42 -3 48 -8 4 -5 8 9 12 12 4 19 13 17 20 -3
8 4 16 18 20 36 11 49 25 39 43 -12 22 -39 24 -89 7 -53 -19 -57 -19 -42 0 7
8 20 15 29 16 10 0 12 2 3 6 -6 2 -10 9 -6 14 3 5 3 9 -1 9 -3 0 -8 -6 -11
-14z"/>
<path d="M935 1609 c-4 -6 -5 -13 -2 -16 7 -7 27 6 27 18 0 12 -17 12 -25 -2z"/>
<path d="M1010 1590 c0 -19 3 -21 12 -12 9 9 9 15 0 24 -9 9 -12 7 -12 -12z"/>
<path d="M886 1583 c-4 -4 -19 -7 -33 -8 -15 0 -28 -7 -30 -15 -4 -13 -3 -13
6 0 7 10 11 11 11 3 0 -14 28 -17 54 -7 9 3 16 12 16 20 0 15 -12 19 -24 7z"/>
<path d="M206 1546 c5 -12 2 -15 -10 -10 -12 5 -15 2 -10 -10 4 -10 1 -16 -7
-16 -7 0 -10 -3 -7 -6 4 -3 15 -1 26 5 17 9 21 7 26 -15 7 -26 41 -44 79 -43
19 0 17 3 -10 16 -18 9 -33 24 -33 34 0 9 -9 19 -20 22 -11 3 -19 11 -18 17 2
7 -3 15 -10 17 -8 3 -10 -1 -6 -11z"/>
<path d="M1519 1538 c-57 -15 -98 -56 -105 -105 -6 -40 -4 -45 33 -82 49 -50
152 -84 239 -79 l59 3 3 127 3 126 -51 11 c-60 13 -131 13 -181 -1z"/>
<path d="M880 1529 c0 -5 -4 -8 -9 -4 -5 3 -12 1 -16 -4 -3 -6 -13 -7 -23 -4
-10 3 -4 -6 13 -23 27 -26 55 -66 55 -79 0 -3 -5 -5 -11 -5 -5 0 -8 4 -5 8 2
4 -5 14 -17 21 -16 10 -19 10 -10 1 6 -7 9 -19 6 -26 -3 -8 1 -14 10 -14 22 0
51 -31 37 -40 -7 -5 -8 -15 -1 -33 11 -29 18 -32 41 -17 12 8 13 13 2 30 -10
17 -10 20 6 20 24 0 61 -30 45 -36 -7 -3 -9 -12 -6 -20 3 -8 -2 -23 -11 -33
-17 -19 -12 -31 12 -31 9 0 12 6 8 17 -4 10 -4 14 0 11 8 -8 64 19 64 30 0 15
-69 72 -87 72 -26 0 -63 36 -63 60 0 37 53 22 76 -21 8 -16 19 -29 24 -29 18
0 10 40 -10 52 -12 8 -20 24 -20 39 0 32 -23 53 -50 46 -13 -3 -20 0 -20 9 0
8 -9 14 -20 14 -11 0 -20 -5 -20 -11z m164 -214 c3 -8 1 -15 -4 -15 -6 0 -10
7 -10 15 0 8 2 15 4 15 2 0 6 -7 10 -15z"/>
<path d="M712 1502 c-7 -5 -14 -22 -15 -38 -2 -27 0 -29 28 -26 41 5 48 14 34
45 -13 28 -25 33 -47 19z"/>
<path d="M74 1475 c3 -9 0 -15 -9 -15 -9 0 -12 -6 -8 -16 6 -15 8 -15 20 2 16
22 17 44 2 44 -6 0 -9 -7 -5 -15z"/>
<path d="M175 1480 c4 -6 11 -8 16 -5 14 9 11 15 -7 15 -8 0 -12 -5 -9 -10z"/>
<path d="M632 1478 c6 -18 28 -21 28 -4 0 9 -7 16 -16 16 -9 0 -14 -5 -12 -12z"/>
<path d="M135 1460 c-5 -9 21 -40 34 -40 4 0 13 6 20 13 11 10 13 10 7 0 -4
-7 -2 -13 3 -13 6 0 1 -11 -10 -24 -19 -22 -57 -26 -44 -6 6 10 -31 23 -44 16
-5 -4 -12 0 -14 6 -4 10 -8 10 -15 -1 -5 -7 -14 -11 -19 -8 -6 4 -20 -3 -32
-14 -19 -18 -20 -23 -9 -37 11 -13 11 -14 -2 -7 -13 8 -13 6 -2 -8 19 -23 50
-31 68 -16 11 9 18 9 26 1 7 -7 22 -12 34 -12 12 0 37 -7 56 -15 34 -14 36
-13 47 11 8 18 17 24 27 20 9 -3 28 -9 42 -12 15 -3 37 -10 48 -16 32 -15 92
7 96 35 2 14 11 23 25 25 12 2 27 10 33 18 16 18 44 19 37 0 -6 -14 38 -28 98
-31 57 -4 58 -4 45 -20 -6 -8 -22 -13 -33 -12 -32 3 -27 -25 5 -34 30 -8 68
13 68 38 0 12 7 14 29 10 25 -5 29 -3 34 19 3 18 1 24 -9 20 -20 -8 -44 4 -44
20 0 8 -4 14 -10 14 -5 0 -10 -5 -10 -11 0 -6 -14 -3 -32 8 -42 25 -73 33 -89
23 -10 -7 -10 -11 0 -24 8 -9 11 -16 9 -16 -11 0 -68 32 -73 41 -11 16 -45 10
-46 -8 0 -11 -3 -13 -6 -5 -6 14 -43 16 -43 2 0 -5 5 -10 10 -10 15 0 12 -26
-4 -39 -11 -9 -17 -8 -29 3 -9 10 -23 13 -38 8 -25 -7 -32 -31 -14 -44 6 -5 5
-8 -3 -8 -7 0 -20 7 -28 15 -9 8 -12 15 -8 15 3 0 1 6 -5 14 -14 16 9 30 49
28 21 -1 18 2 -12 15 -21 9 -38 20 -38 26 0 6 -9 1 -20 -11 -27 -28 -80 -30
-80 -4 0 20 -76 57 -85 42z m5 -100 c0 -5 -13 -10 -30 -10 -16 0 -30 5 -30 10
0 6 14 10 30 10 17 0 30 -4 30 -10z"/>
<path d="M1126 1441 c-4 -7 -5 -15 -2 -18 9 -9 19 4 14 18 -4 11 -6 11 -12 0z"/>
<path d="M940 1405 c7 -8 20 -15 29 -15 13 1 13 3 -3 15 -26 19 -42 19 -26 0z"/>
<path d="M2 1226 l3 -67 30 7 c40 9 42 12 18 29 -26 18 -38 56 -16 48 23 -9
11 17 -16 35 l-22 15 3 -67z"/>
<path d="M923 1244 c-5 -13 -7 -13 -14 -2 -7 10 -9 9 -9 -4 0 -10 3 -18 8 -18
10 1 42 26 42 34 0 13 -21 5 -27 -10z"/>
<path d="M590 1178 c0 -10 -4 -18 -10 -18 -5 0 -10 -4 -10 -10 0 -12 10 -13
29 -1 10 7 11 13 2 27 -9 17 -10 17 -11 2z"/>
<path d="M713 1173 c13 -15 15 -22 6 -25 -10 -3 -10 -6 -1 -12 7 -4 12 -2 12
3 0 6 12 11 28 11 47 0 59 17 16 22 -22 3 -48 9 -59 13 -19 8 -19 8 -2 -12z"/>
<path d="M362 1168 c3 -7 15 -14 29 -16 23 -2 23 -2 5 13 -24 18 -39 20 -34 3z"/>
<path d="M456 1165 c-4 -11 2 -15 24 -15 20 0 30 5 30 15 0 9 -9 15 -24 15
-13 0 -26 -7 -30 -15z"/>
<path d="M635 1160 c27 -12 35 -12 35 0 0 6 -12 10 -27 9 -25 0 -26 -1 -8 -9z"/>
<path d="M1128 1153 c6 -2 18 -2 25 0 6 3 1 5 -13 5 -14 0 -19 -2 -12 -5z"/>
<path d="M606 1133 c-3 -3 -19 -6 -35 -5 -23 0 -30 -5 -36 -25 -6 -24 -20 -24
-20 0 0 16 -54 31 -77 20 -19 -8 -19 -10 -5 -25 9 -9 14 -24 10 -37 -3 -11 -1
-21 3 -22 51 -4 124 -35 124 -53 0 -15 21 -26 47 -26 13 0 13 3 3 15 -10 12
-10 15 0 15 10 0 10 3 0 15 -7 8 -17 15 -22 15 -6 0 -8 -7 -4 -15 8 -22 -2
-18 -15 6 -6 12 -12 37 -14 57 -4 33 -3 35 7 15 17 -34 68 -27 68 9 0 21 -24
51 -34 41z"/>
<path d="M740 1126 c0 -2 7 -7 16 -10 8 -3 12 -2 9 4 -6 10 -25 14 -25 6z"/>
<path d="M140 1102 c0 -16 22 -30 41 -25 26 7 24 19 -3 27 -31 8 -38 7 -38 -2z"/>
<path d="M89 1083 c-1 -5 -1 -11 0 -15 0 -5 -3 -8 -9 -8 -5 0 -10 5 -10 10 0
11 -33 14 -43 3 -4 -3 1 -12 11 -19 12 -10 13 -13 3 -14 -11 0 -11 -3 -1 -15
17 -21 3 -58 -21 -52 -16 4 -19 0 -19 -34 0 -37 1 -38 30 -32 20 3 30 1 30 -6
0 -7 5 -9 10 -6 17 11 11 21 -22 37 l-33 15 32 17 c18 9 34 16 36 16 7 0 20
-53 18 -71 -1 -12 10 -18 41 -24 24 -4 37 -9 30 -12 -6 -3 -10 -9 -6 -14 3 -5
0 -9 -6 -9 -6 0 -9 -4 -6 -9 3 -5 -6 -8 -19 -8 -14 0 -25 4 -25 9 0 6 -7 5
-16 -2 -13 -12 -11 -15 17 -27 17 -7 42 -13 55 -13 29 0 74 -20 74 -33 0 -5
-7 -7 -15 -3 -8 3 -15 1 -15 -3 0 -5 6 -11 14 -14 10 -4 13 -15 10 -32 -4 -23
-2 -25 15 -16 11 6 32 11 48 12 15 0 22 3 15 6 -6 2 -10 9 -6 14 3 5 2 9 -3 8
-23 -4 -30 3 -25 26 4 21 -1 27 -31 40 -49 20 -53 48 -10 69 37 18 109 22 115
6 4 -13 68 -20 68 -8 0 5 -14 15 -30 21 -17 6 -33 20 -36 31 -4 13 -8 15 -14
6 -8 -13 -71 -11 -81 3 -10 14 -57 -4 -62 -23 -5 -21 -39 -21 -45 1 -3 8 -10
18 -16 22 -7 6 -4 7 7 3 9 -3 18 -1 18 4 1 6 2 14 3 19 2 19 13 20 59 6 44
-13 48 -13 54 3 3 9 8 20 10 24 2 4 -4 5 -13 1 -13 -5 -16 -3 -11 10 8 22 -8
30 -31 16 -15 -9 -26 -7 -58 14 -22 13 -49 27 -60 29 -10 2 -18 10 -16 16 1 7
0 12 -3 12 -3 0 -6 -3 -6 -7z"/>
<path d="M760 990 c0 -5 5 -10 11 -10 5 0 7 5 4 10 -3 6 -8 10 -11 10 -2 0 -4
-4 -4 -10z"/>
<path d="M350 961 c19 -16 38 -27 43 -24 7 4 -57 53 -71 53 -4 0 9 -14 28 -29z"/>
<path d="M713 980 c-13 -6 -23 -18 -23 -30 0 -15 7 -20 28 -20 15 0 33 5 39
11 7 7 14 6 24 -3 18 -17 69 -23 69 -8 0 6 -4 9 -9 5 -5 -3 -12 -1 -16 5 -3 5
0 10 7 10 8 0 6 5 -5 11 -10 6 -28 10 -40 9 -12 -1 -31 -2 -42 -1 -17 1 -18 3
-5 11 19 12 3 12 -27 0z"/>
<path d="M481 943 c-7 -8 -11 -16 -8 -19 2 -2 10 2 17 11 17 20 9 27 -9 8z"/>
<path d="M1080 880 c0 -5 5 -10 10 -10 6 0 10 5 10 10 0 6 -4 10 -10 10 -5 0
-10 -4 -10 -10z"/>
<path d="M0 860 c0 -24 25 -27 34 -4 9 23 8 24 -14 24 -13 0 -20 -7 -20 -20z"/>
<path d="M535 860 c-4 -6 5 -10 20 -10 15 0 24 4 20 10 -3 6 -12 10 -20 10 -8
0 -17 -4 -20 -10z"/>
<path d="M505 850 c-3 -5 -1 -10 4 -10 6 0 11 5 11 10 0 6 -2 10 -4 10 -3 0
-8 -4 -11 -10z"/>
<path d="M316 821 c-8 -12 4 -42 13 -37 4 3 16 -9 26 -25 26 -38 50 -39 40 -1
-3 15 -11 29 -17 31 -6 2 -18 12 -26 22 -18 21 -28 24 -36 10z"/>
<path d="M950 780 c0 -21 33 -28 59 -11 21 13 4 31 -30 31 -22 0 -29 -5 -29
-20z"/>
<path d="M25 758 c-3 -13 -11 -33 -17 -46 -9 -17 -9 -25 2 -35 10 -10 11 -9 5
1 -6 12 -3 12 16 1 23 -12 23 -12 4 -19 -11 -4 -23 -6 -27 -3 -5 2 -8 -26 -8
-62 l0 -67 43 7 c23 4 49 11 58 15 10 6 19 3 27 -11 16 -25 15 -39 -2 -39 -8
0 -18 -4 -21 -10 -3 -6 1 -7 9 -4 9 4 18 -1 22 -10 8 -20 56 -22 52 -2 -4 19
6 20 42 1 28 -14 32 -14 46 0 8 8 12 20 9 25 -4 6 8 2 26 -9 18 -11 36 -18 41
-15 5 3 14 1 21 -4 12 -10 17 -12 38 -12 6 0 9 -6 6 -13 -3 -8 3 -14 14 -14
11 -1 19 5 19 13 0 8 -4 14 -8 14 -4 0 -7 16 -7 37 0 26 5 37 17 39 10 1 20
-2 24 -7 11 -19 34 -9 34 16 0 18 5 25 20 25 11 0 20 5 20 10 0 14 -44 12 -59
-2 -10 -11 -12 -10 -9 2 2 8 12 21 23 28 18 11 17 12 -12 7 -21 -4 -33 -3 -33
4 0 13 -27 15 -32 2 -1 -4 -14 -12 -27 -16 -20 -6 -23 -4 -18 9 4 9 2 16 -3
16 -6 0 -10 9 -10 20 0 12 5 17 14 14 21 -8 17 45 -5 56 -23 13 -32 13 -24 0
3 -5 -1 -10 -9 -10 -8 0 -19 -6 -23 -12 -4 -7 -17 -13 -28 -13 -11 0 -19 -6
-17 -13 1 -7 -11 -15 -28 -19 -17 -3 -35 -14 -40 -23 -17 -32 -70 -36 -70 -5
0 7 -7 15 -15 19 -8 3 -15 13 -15 21 0 9 -3 14 -8 11 -4 -2 -15 1 -24 8 -15
11 -14 13 12 13 17 0 30 -4 30 -8 0 -4 9 -5 20 -2 14 4 20 0 20 -10 0 -13 5
-14 31 -5 20 7 28 15 25 25 -3 8 -6 16 -6 19 0 2 -11 -1 -24 -7 -29 -14 -69
-5 -93 19 -10 9 -28 25 -40 35 -21 18 -21 18 -28 -5z m301 -104 c-3 -9 -6 -20
-6 -25 0 -5 -7 -9 -16 -9 -11 0 -14 5 -10 16 3 9 6 20 6 25 0 5 7 9 16 9 11 0
14 -5 10 -16z m-235 -26 c29 -35 23 -58 -6 -25 -24 27 -32 47 -19 47 3 0 14
-10 25 -22z m118 -54 c2 -2 -4 -10 -12 -19 -21 -20 -51 -20 -43 1 3 9 6 20 6
25 0 9 37 3 49 -7z m-133 -11 c-11 -11 -67 -12 -60 -2 3 5 19 9 36 9 17 0 28
-3 24 -7z"/>
<path d="M515 689 c-11 -16 -1 -19 13 -3 7 8 8 14 3 14 -5 0 -13 -5 -16 -11z"/>
<path d="M1007 693 c-13 -12 -7 -23 13 -23 11 0 20 7 20 15 0 15 -21 21 -33 8z"/>
<path d="M605 641 c-6 -11 9 -23 19 -14 9 9 7 23 -3 23 -6 0 -12 -4 -16 -9z"/>
<path d="M1145 600 c-3 -5 -1 -10 4 -10 6 0 11 5 11 10 0 6 -2 10 -4 10 -3 0
-8 -4 -11 -10z"/>
<path d="M590 590 c0 -5 5 -10 10 -10 6 0 10 5 10 10 0 6 -4 10 -10 10 -5 0
-10 -4 -10 -10z"/>
<path d="M38 523 c-36 -4 -38 -6 -38 -39 0 -41 4 -42 35 -6 13 15 33 28 44 28
39 3 42 4 36 14 -3 6 -14 9 -23 8 -9 -1 -34 -3 -54 -5z"/>
<path d="M85 450 c3 -5 13 -10 21 -10 8 0 14 5 14 10 0 6 -9 10 -21 10 -11 0
-17 -4 -14 -10z"/>
</g>
</svg>
