<?xml version="1.0" standalone="no"?>
<!DOCTYPE svg PUBLIC "-//W3C//DTD SVG 20010904//EN"
 "http://www.w3.org/TR/2001/REC-SVG-20010904/DTD/svg10.dtd">
<svg version="1.0" xmlns="http://www.w3.org/2000/svg"
 width="175.000000pt" height="203.000000pt" viewBox="0 0 175.000000 203.000000"
 preserveAspectRatio="xMidYMid meet">

<g transform="translate(0.000000,203.000000) scale(0.100000,-0.100000)"
fill="#000000" stroke="none">
<path d="M7 2022 c-9 -16 -7 -92 2 -92 5 0 16 9 25 21 11 16 18 19 31 11 16
-8 16 -9 0 -15 -15 -6 -15 -8 -1 -23 12 -11 23 -13 41 -7 14 4 25 11 25 16 0
4 0 13 0 21 0 17 -50 67 -60 61 -5 -3 -20 -1 -34 5 -14 5 -27 6 -29 2z"/>
<path d="M140 2015 c30 -8 65 -14 78 -15 12 0 22 -3 22 -7 0 -5 20 -9 45 -11
29 -2 53 -10 65 -22 11 -11 28 -20 38 -20 15 0 15 2 2 11 -12 9 -11 9 5 4 11
-5 32 -10 47 -13 15 -2 25 -9 22 -14 -4 -6 2 -8 14 -4 15 5 24 1 32 -14 6 -11
17 -20 25 -20 8 0 15 -4 15 -9 0 -10 -34 -8 -62 4 -11 4 -18 3 -18 -5 0 -6 9
-14 21 -17 11 -3 18 -11 15 -18 -2 -7 5 -20 16 -29 19 -17 19 -17 -7 -52 -30
-39 -19 -45 22 -11 15 13 36 26 45 30 10 3 15 12 12 20 -3 9 8 17 32 25 36 11
64 7 64 -9 0 -4 6 -6 14 -3 8 3 26 -2 40 -12 l26 -17 -26 -13 c-14 -8 -37 -14
-50 -14 -13 0 -28 -9 -34 -20 -7 -14 -7 -20 0 -20 5 0 10 -6 10 -14 0 -26 24
-23 53 6 16 15 33 28 38 28 12 0 12 -27 -1 -32 -6 -2 -13 -15 -15 -31 -5 -23
-2 -27 19 -27 16 0 30 8 37 23 7 12 20 29 30 38 10 9 15 20 11 24 -4 5 -1 5 6
1 17 -10 15 -35 -3 -42 -15 -6 -22 -25 -7 -22 24 5 111 -43 105 -59 -7 -17 38
-34 54 -21 7 6 10 15 6 22 -3 6 0 6 8 -1 20 -19 34 -16 18 4 -8 10 5 2 29 -17
40 -31 52 -49 35 -51 -5 0 -18 -2 -30 -5 -13 -2 -23 1 -23 6 0 6 7 10 15 10
13 0 14 4 4 21 -12 23 -24 16 -32 -16 -4 -18 -5 -18 -15 5 -6 14 -11 23 -12
20 -9 -29 -9 -61 -1 -56 5 4 12 2 15 -3 4 -5 2 -13 -4 -16 -6 -4 -8 -15 -5
-25 6 -20 -10 -60 -28 -72 -7 -4 -8 -19 -1 -44 8 -36 11 -38 49 -40 41 -1 74
10 87 30 5 7 8 3 8 -9 1 -18 1 -19 11 -2 5 9 7 22 3 29 -5 7 -3 8 5 4 7 -5 10
-14 8 -21 -3 -7 18 -23 53 -40 60 -29 74 -44 64 -70 -10 -24 63 -18 119 9 26
13 50 20 53 15 3 -5 13 -4 23 3 13 8 26 8 47 0 l29 -10 -30 -2 c-16 -1 -33 -2
-38 -1 -17 3 -87 -40 -87 -54 0 -22 16 -26 46 -10 25 13 29 12 42 -6 7 -10 18
-17 23 -14 14 10 11 -5 -6 -22 -11 -11 -13 -19 -5 -28 7 -9 6 -16 -4 -24 -18
-15 -11 -39 12 -43 13 -3 12 -5 -5 -10 -19 -5 -23 -2 -23 15 0 11 -3 18 -6 14
-4 -3 -16 13 -28 36 -17 33 -27 43 -51 45 -16 2 -36 11 -43 20 -12 16 -15 15
-33 -8 -10 -14 -23 -30 -28 -36 -6 -7 -8 -15 -5 -18 2 -3 1 -4 -3 -1 -14 11
-33 -17 -23 -35 5 -9 6 -21 2 -25 -4 -4 4 -5 18 -1 14 3 19 3 13 0 -20 -9 -15
-31 7 -37 11 -3 19 -11 18 -18 -4 -18 39 -24 59 -7 14 11 15 11 11 -2 -6 -18
8 -50 23 -50 6 0 7 5 4 10 -3 6 -1 10 4 10 6 0 11 -7 11 -15 0 -9 6 -12 17 -8
11 4 14 3 9 -5 -4 -7 -2 -12 3 -12 6 0 9 10 8 22 -2 12 5 30 15 40 10 10 18
24 18 32 0 15 33 27 46 17 24 -17 -14 -75 -42 -64 -6 2 -14 -5 -17 -16 -3 -12
-2 -21 3 -21 4 0 10 -6 13 -13 4 -10 -5 -13 -29 -12 -27 2 -32 -1 -23 -11 6
-7 18 -10 27 -8 14 5 14 3 -2 -10 -10 -8 -23 -13 -27 -10 -5 3 -6 -2 -3 -10 7
-18 -21 -23 -31 -6 -3 6 -11 10 -17 10 -6 0 -8 -3 -5 -7 4 -3 -9 -16 -29 -28
-31 -19 -34 -23 -20 -34 23 -19 20 -41 -5 -41 -15 0 -19 4 -15 16 7 19 -11 47
-25 38 -5 -3 -6 2 -3 10 4 11 0 16 -14 16 -12 0 -24 4 -27 10 -3 6 1 10 10 10
31 0 5 18 -32 22 -41 6 -154 -29 -135 -41 14 -8 3 -25 -22 -34 -10 -4 -17 -10
-14 -13 3 -2 17 0 32 6 15 5 38 10 52 10 l24 0 -19 -31 c-11 -18 -17 -37 -15
-44 3 -7 -4 -15 -14 -17 -16 -4 -19 -12 -15 -34 6 -33 20 -54 36 -54 6 0 2 7
-9 15 -18 14 -18 14 6 16 14 1 28 1 32 0 3 0 5 12 3 27 -2 15 1 35 6 44 7 12
6 18 -1 18 -7 0 -10 6 -7 13 2 7 23 12 53 12 27 1 59 4 70 8 18 7 21 4 17 -16
-4 -18 0 -26 16 -30 28 -7 26 -23 -4 -43 -15 -10 -25 -26 -25 -40 0 -12 -5
-26 -11 -30 -13 -7 48 -64 69 -64 18 0 15 -70 -4 -91 -12 -14 -21 -16 -35 -9
-10 6 -22 9 -26 8 -10 -3 -130 68 -160 95 -12 11 -20 23 -18 27 3 5 -3 18 -13
31 -16 19 -32 23 -101 28 -61 5 -85 3 -93 -6 -6 -7 -17 -13 -25 -13 -8 0 -11
-5 -7 -12 5 -8 2 -9 -9 -5 -24 9 -77 -12 -71 -28 3 -7 2 -15 -3 -18 -5 -3 -10
5 -11 18 -1 16 5 26 18 30 25 8 45 44 33 56 -17 17 -63 -8 -63 -32 0 -12 -3
-19 -7 -16 -3 4 -12 2 -20 -4 -7 -6 -13 -9 -13 -6 0 6 -67 -15 -105 -32 -11
-6 -48 -19 -83 -31 -48 -17 -66 -19 -77 -10 -10 9 -19 8 -39 -5 -13 -9 -44
-16 -68 -17 -24 0 -54 -5 -67 -10 -19 -7 -29 -4 -46 12 -25 24 -35 25 -35 5 0
-8 8 -15 18 -16 9 -1 -3 -6 -27 -11 -32 -7 -40 -12 -30 -19 12 -7 12 -9 0 -9
-8 0 -11 -3 -7 -7 4 -5 14 0 21 10 13 18 14 18 29 -5 8 -13 17 -35 18 -48 2
-19 -1 -24 -15 -22 -12 2 -17 -2 -15 -14 2 -10 -4 -18 -15 -20 -10 -1 -29 -10
-43 -18 -13 -9 -24 -12 -24 -6 0 5 -5 10 -10 10 -6 0 -10 -6 -9 -12 3 -27 -2
-37 -15 -32 -7 3 -16 -2 -19 -10 -4 -9 -16 -16 -27 -16 -26 0 -26 -1 7 -59 2
-2 10 2 20 10 14 12 16 12 8 0 -6 -11 -4 -13 9 -8 10 4 15 3 11 -3 -3 -6 -15
-10 -25 -10 -47 0 -50 -7 -50 -111 l0 -99 875 0 875 0 0 756 c0 601 -3 754
-12 748 -43 -24 -69 -48 -82 -74 -9 -19 -10 -28 -3 -23 7 4 1 -6 -13 -21 -56
-61 -150 -88 -237 -67 -61 15 -179 102 -205 151 -25 49 -25 163 1 206 43 70
191 108 327 85 76 -13 167 -51 201 -83 l23 -21 0 186 0 187 -832 -1 c-727 -1
-826 -2 -778 -14z m967 -31 c-3 -3 -12 -4 -19 -1 -8 3 -5 6 6 6 11 1 17 -2 13
-5z m170 0 c-3 -3 -12 -4 -19 -1 -8 3 -5 6 6 6 11 1 17 -2 13 -5z m116 -1 c-7
-2 -19 -2 -25 0 -7 3 -2 5 12 5 14 0 19 -2 13 -5z m87 -3 c0 -5 -5 -10 -11
-10 -5 0 -7 5 -4 10 3 6 8 10 11 10 2 0 4 -4 4 -10z m-140 -4 c0 -3 -4 -8 -10
-11 -5 -3 -10 -1 -10 4 0 6 5 11 10 11 6 0 10 -2 10 -4z m-517 -243 c-7 -2
-21 -2 -30 0 -10 3 -4 5 12 5 17 0 24 -2 18 -5z m58 -26 c-10 -9 -11 -8 -5 6
3 10 9 15 12 12 3 -3 0 -11 -7 -18z m128 -56 c9 -6 10 -11 2 -15 -6 -4 -11 -2
-11 4 0 8 -9 10 -26 6 -17 -5 -23 -3 -19 4 8 12 35 13 54 1z m171 -189 c33
-50 40 -80 11 -44 -11 12 -26 22 -35 22 -10 0 -16 9 -16 25 0 13 -6 28 -12 32
-7 4 -14 16 -14 26 -2 17 -1 17 17 1 11 -10 33 -38 49 -62z m-76 -27 c4 -14 4
-30 1 -35 -3 -4 0 -11 5 -13 6 -3 5 -4 -1 -3 -7 1 -14 13 -16 27 -2 13 -8 26
-13 27 -15 5 -12 22 4 22 8 0 17 -11 20 -25z m226 -300 c0 -8 -2 -15 -4 -15
-2 0 -6 7 -10 15 -3 8 -1 15 4 15 6 0 10 -7 10 -15z m-28 -27 c-9 -9 -12 -7
-12 12 0 19 3 21 12 12 9 -9 9 -15 0 -24z m288 -80 c0 21 26 13 27 -8 1 -14
-2 -18 -10 -13 -7 4 -16 8 -21 8 -5 0 -11 7 -13 15 -4 13 -3 13 6 0 7 -10 11
-11 11 -2z m-60 -48 c0 -5 -5 -10 -11 -10 -5 0 -7 5 -4 10 3 6 8 10 11 10 2 0
4 -4 4 -10z m58 -55 c-3 -3 -9 2 -12 12 -6 14 -5 15 5 6 7 -7 10 -15 7 -18z
m-8 -29 c0 -8 -11 -13 -30 -12 -27 1 -28 2 -13 14 22 16 43 15 43 -2z m-364
-95 c-12 -19 -56 -13 -56 7 0 14 2 15 10 2 8 -12 11 -11 16 8 6 21 8 22 22 9
8 -8 11 -20 8 -26z m-466 -210 c0 -13 -18 -24 -65 -38 -24 -8 -29 -11 -13 -9
15 2 29 -2 32 -9 3 -9 -6 -12 -30 -11 -19 1 -34 -3 -34 -8 0 -6 -5 -5 -11 1
-9 9 -17 6 -31 -10 -10 -13 -17 -16 -16 -8 4 19 35 51 51 51 6 1 30 12 52 25
43 25 65 31 65 16z m-15 -51 c3 -5 2 -10 -4 -10 -5 0 -13 5 -16 10 -3 6 -2 10
4 10 5 0 13 -4 16 -10z m-170 -41 c0 -16 -84 -14 -100 3 -7 7 -3 8 12 4 13 -4
30 -3 40 2 22 13 48 8 48 -9z m-169 -9 c25 4 47 3 50 -2 8 -13 -6 -29 -24 -26
-9 2 -16 -2 -15 -9 2 -8 -4 -10 -14 -6 -12 5 -14 3 -8 -8 6 -11 5 -12 -6 -1
-16 15 -49 16 -49 1 0 -8 -4 -8 -12 -1 -13 10 -19 12 -38 12 -5 0 -10 6 -10
13 0 16 50 36 68 27 8 -4 34 -4 58 0z m-136 -10 c0 -5 -7 -10 -15 -10 -8 0
-15 5 -15 10 0 6 7 10 15 10 8 0 15 -4 15 -10z m-37 -133 c3 -8 -1 -14 -8 -14
-7 0 -11 6 -8 14 3 7 6 13 8 13 2 0 5 -6 8 -13z m-148 -157 c-3 -5 -12 -10
-18 -10 -7 0 -6 4 3 10 19 12 23 12 15 0z"/>
<path d="M400 1925 c0 -9 5 -15 11 -13 6 2 11 8 11 13 0 5 -5 11 -11 13 -6 2
-11 -4 -11 -13z"/>
<path d="M0 1871 c0 -10 5 -22 12 -29 9 -9 9 -12 -2 -12 -10 0 -11 -3 -3 -11
7 -7 22 -8 48 0 24 6 44 7 55 1 20 -11 71 22 67 43 -1 6 8 13 21 15 31 5 29
-26 -3 -34 -14 -3 -23 -10 -20 -14 5 -9 20 -7 48 5 21 9 51 -1 42 -15 -3 -5
-2 -10 3 -10 14 0 35 47 28 65 -5 14 -25 16 -151 14 -128 -2 -145 -4 -145 -18z
m92 -13 c-17 -8 -26 -8 -34 0 -9 9 -4 12 23 11 32 0 33 -1 11 -11z m-22 -18
c8 -5 11 -10 5 -10 -5 0 -17 5 -25 10 -8 5 -10 10 -5 10 6 0 17 -5 25 -10z"/>
<path d="M100 1779 c0 -11 27 -12 34 -1 2 4 -4 9 -15 9 -10 1 -19 -2 -19 -8z"/>
<path d="M153 1767 c5 -15 37 -22 37 -9 0 5 -9 12 -21 15 -13 3 -19 1 -16 -6z"/>
<path d="M292 1771 c4 -13 18 -16 19 -4 0 4 -5 9 -11 12 -7 2 -11 -2 -8 -8z"/>
<path d="M71 1754 c0 -11 3 -14 6 -6 3 7 2 16 -1 19 -3 4 -6 -2 -5 -13z"/>
<path d="M265 1750 c4 -6 -26 -10 -83 -10 -63 0 -93 -4 -101 -13 -6 -8 -8 -17
-4 -20 3 -4 -12 -5 -35 -3 -24 2 -42 0 -42 -6 0 -15 127 -1 155 18 17 11 41
15 84 12 55 -4 59 -2 50 14 -5 10 -14 18 -20 18 -6 0 -7 -4 -4 -10z"/>
<path d="M362 1724 c-11 -12 -10 -15 2 -20 19 -7 36 3 36 22 0 18 -21 17 -38
-2z"/>
<path d="M1306 1715 c-49 -19 -76 -42 -76 -66 0 -10 -4 -20 -9 -23 -17 -11 2
-56 34 -85 60 -52 136 -75 256 -75 98 -1 109 1 165 29 72 37 87 66 61 120 -14
29 -32 43 -95 73 -73 35 -83 37 -187 39 -78 2 -121 -2 -149 -12z"/>
<path d="M445 1670 c3 -5 10 -10 16 -10 5 0 9 5 9 10 0 6 -7 10 -16 10 -8 0
-12 -4 -9 -10z"/>
<path d="M270 1656 c0 -9 5 -16 10 -16 6 0 10 4 10 9 0 6 -4 13 -10 16 -5 3
-10 -1 -10 -9z"/>
<path d="M664 1627 c-4 -12 -11 -14 -30 -6 -14 5 -23 5 -20 0 3 -4 -3 -16 -14
-26 -11 -10 -20 -14 -20 -9 0 5 -7 0 -15 -10 -12 -16 -15 -17 -20 -4 -4 10
-14 14 -27 10 -11 -3 -24 1 -28 9 -7 11 -14 9 -33 -9 -15 -14 -34 -22 -53 -20
-16 1 -47 1 -69 0 -57 -3 -32 -22 39 -29 31 -3 56 -9 56 -13 0 -12 38 -18 48
-8 6 6 17 6 30 -1 27 -14 32 -14 32 4 0 8 9 19 21 25 11 7 29 20 39 30 10 10
35 22 55 26 42 7 50 17 30 34 -12 10 -16 9 -21 -3z"/>
<path d="M425 1610 c-19 -8 -19 -9 3 -9 12 -1 22 4 22 9 0 6 -1 10 -2 9 -2 0
-12 -4 -23 -9z"/>
<path d="M30 1600 c-9 -6 -10 -10 -3 -10 6 0 15 5 18 10 8 12 4 12 -15 0z"/>
<path d="M340 1596 c0 -2 7 -9 15 -16 13 -11 14 -10 9 4 -5 14 -24 23 -24 12z"/>
<path d="M200 1580 c0 -5 5 -10 11 -10 5 0 7 5 4 10 -3 6 -8 10 -11 10 -2 0
-4 -4 -4 -10z"/>
<path d="M90 1570 c0 -5 7 -10 16 -10 8 0 12 5 9 10 -3 6 -10 10 -16 10 -5 0
-9 -4 -9 -10z"/>
<path d="M965 1570 c3 -5 11 -10 16 -10 6 0 7 5 4 10 -3 6 -11 10 -16 10 -6 0
-7 -4 -4 -10z"/>
<path d="M590 1532 c0 -5 26 -9 58 -10 31 -1 75 -4 97 -7 27 -3 34 -2 20 3
-28 12 -175 24 -175 14z"/>
<path d="M320 1511 c0 -12 5 -21 10 -21 6 0 10 6 10 14 0 8 -4 18 -10 21 -5 3
-10 -3 -10 -14z"/>
<path d="M276 1507 c3 -10 9 -15 12 -12 3 3 0 11 -7 18 -10 9 -11 8 -5 -6z"/>
<path d="M30 1500 c0 -5 7 -10 15 -10 8 0 15 5 15 10 0 6 -7 10 -15 10 -8 0
-15 -4 -15 -10z"/>
<path d="M366 1492 c-16 -19 -16 -20 4 -25 23 -6 39 18 23 34 -6 6 -16 3 -27
-9z"/>
<path d="M400 1460 c0 -5 10 -10 23 -10 18 0 19 2 7 10 -19 13 -30 13 -30 0z"/>
<path d="M855 1453 c4 -10 10 -26 12 -36 5 -17 7 -17 24 -1 18 16 18 18 3 36
-22 24 -49 24 -39 1z"/>
<path d="M422 1435 c10 -11 48 -14 48 -4 0 5 -12 9 -27 9 -14 0 -24 -2 -21 -5z"/>
<path d="M521 1418 c-1 -10 3 -18 8 -18 5 0 15 8 22 18 13 15 12 16 -3 4 -13
-10 -17 -10 -21 0 -4 8 -6 7 -6 -4z"/>
<path d="M740 1401 c0 -18 18 -21 30 -6 10 13 9 15 -9 15 -11 0 -21 -4 -21 -9z"/>
<path d="M270 1390 c-12 -8 -11 -10 8 -10 12 0 22 5 22 10 0 13 -11 13 -30 0z"/>
<path d="M581 1384 c-7 -8 -10 -18 -7 -21 7 -7 36 16 36 28 0 13 -13 10 -29
-7z"/>
<path d="M790 1391 c0 -5 11 -11 25 -13 28 -6 34 6 9 16 -22 8 -34 7 -34 -3z"/>
<path d="M534 1375 c-18 -14 -18 -14 4 -8 12 3 22 9 22 14 0 12 -3 11 -26 -6z"/>
<path d="M623 1375 c0 -8 4 -15 9 -15 4 0 8 7 8 15 0 8 -4 15 -8 15 -5 0 -9
-7 -9 -15z"/>
<path d="M421 1361 c-8 -6 -9 -11 -3 -15 6 -3 14 -1 17 5 9 14 2 20 -14 10z"/>
<path d="M0 1346 c0 -9 5 -16 10 -16 6 0 10 4 10 9 0 6 -4 13 -10 16 -5 3 -10
-1 -10 -9z"/>
<path d="M676 1343 c-7 -18 14 -37 27 -24 9 9 -1 41 -13 41 -4 0 -11 -8 -14
-17z"/>
<path d="M106 1331 c-9 -15 18 -31 34 -20 13 8 13 10 0 19 -19 12 -27 12 -34
1z"/>
<path d="M477 1308 c-9 -4 -13 -16 -10 -27 6 -22 34 -18 58 9 15 16 14 18 -9
22 -13 3 -31 1 -39 -4z"/>
<path d="M1066 1311 c-4 -5 3 -7 14 -4 23 6 26 13 6 13 -8 0 -17 -4 -20 -9z"/>
<path d="M39 1259 c-8 -5 -9 -9 -4 -9 6 0 3 -5 -5 -10 -21 -13 1 -33 26 -23
17 7 18 12 9 30 -8 15 -15 19 -26 12z"/>
<path d="M306 1233 c4 -16 11 -34 17 -41 7 -9 6 -11 -6 -7 -8 4 -29 -1 -46
-10 -32 -16 -40 -31 -18 -33 6 -1 24 -4 40 -8 21 -5 27 -3 27 10 0 9 11 27 25
40 l25 23 -25 27 c-32 34 -47 34 -39 -1z m0 -68 c-11 -8 -27 -15 -35 -15 -11
0 -10 4 5 15 10 8 26 14 34 14 11 0 10 -3 -4 -14z"/>
<path d="M958 1253 c6 -2 12 -12 13 -21 0 -11 2 -12 6 -4 2 6 19 12 36 13 27
0 29 2 12 9 -11 5 -33 9 -50 9 -16 -1 -24 -3 -17 -6z"/>
<path d="M1265 1221 c-3 -6 4 -9 15 -8 11 1 20 5 20 9 0 11 -28 10 -35 -1z"/>
<path d="M511 1201 c-9 -6 -10 -11 -2 -15 6 -4 11 -3 11 3 0 5 10 12 23 14 19
4 19 4 2 5 -11 1 -26 -2 -34 -7z"/>
<path d="M1152 1190 c-11 -17 -10 -20 8 -20 10 0 24 9 30 20 9 17 8 20 -7 20
-10 0 -24 -9 -31 -20z"/>
<path d="M75 1190 c17 -4 39 -8 50 -8 l20 -1 -20 9 c-11 5 -33 8 -50 8 l-30 0
30 -8z"/>
<path d="M1040 1170 c0 -5 4 -10 9 -10 6 0 13 5 16 10 3 6 -1 10 -9 10 -9 0
-16 -4 -16 -10z"/>
<path d="M412 1159 c-28 -11 -27 -51 0 -55 21 -3 30 9 34 43 2 25 0 26 -34 12z"/>
<path d="M640 1160 c0 -5 5 -10 11 -10 5 0 7 5 4 10 -3 6 -8 10 -11 10 -2 0
-4 -4 -4 -10z"/>
<path d="M980 1155 c7 -8 16 -15 20 -15 3 0 7 7 7 15 0 8 -9 15 -20 15 -16 0
-17 -3 -7 -15z"/>
<path d="M690 1149 c0 -5 5 -7 10 -4 6 3 10 8 10 11 0 2 -4 4 -10 4 -5 0 -10
-5 -10 -11z"/>
<path d="M740 1150 c0 -5 5 -10 10 -10 6 0 10 5 10 10 0 6 -4 10 -10 10 -5 0
-10 -4 -10 -10z"/>
<path d="M780 1150 c20 -13 33 -13 25 0 -3 6 -14 10 -23 10 -15 0 -15 -2 -2
-10z"/>
<path d="M850 1123 c8 -3 21 -10 28 -16 9 -7 11 -6 6 7 -3 9 -16 16 -28 15
-14 0 -16 -2 -6 -6z"/>
<path d="M990 1101 c0 -23 7 -33 37 -48 41 -22 50 -53 26 -92 l-16 -24 31 22
c36 25 47 40 37 49 -3 3 -10 0 -14 -7 -6 -10 -10 -10 -16 -1 -4 6 -4 14 -1 17
3 3 1 12 -5 20 -9 10 -8 17 1 28 8 9 8 15 2 15 -6 0 -12 -5 -14 -12 -3 -7 -12
-9 -22 -5 -9 4 -14 12 -11 18 4 6 -2 19 -14 30 l-21 20 0 -30z"/>
<path d="M1196 1101 c-4 -5 3 -15 15 -21 28 -15 34 -7 10 14 -12 11 -21 13
-25 7z"/>
<path d="M442 1078 c5 -15 28 -23 28 -10 0 5 -7 13 -16 16 -10 4 -14 1 -12 -6z"/>
<path d="M590 1075 c-28 -10 -32 -14 -17 -20 24 -10 67 3 67 20 0 18 -4 18
-50 0z"/>
<path d="M95 1071 c-6 -11 -5 -12 13 -15 5 0 16 -9 26 -18 19 -19 56 -24 56
-8 0 5 -11 12 -25 16 -13 3 -23 11 -22 17 3 15 -39 21 -48 8z"/>
<path d="M500 1065 c7 -8 9 -15 5 -15 -15 0 20 -32 54 -49 62 -31 182 -42 233
-21 21 8 20 9 -12 10 -31 2 -32 3 -10 9 24 7 24 8 6 18 -14 8 -25 8 -37 0 -12
-7 -34 -8 -73 -1 -30 6 -53 7 -50 3 2 -4 0 -10 -6 -14 -5 -3 -10 0 -10 8 0 7
-16 21 -35 30 -23 11 -35 13 -35 5 0 -6 -3 -8 -7 -4 -5 4 1 14 11 22 19 13 18
14 -13 14 -29 0 -32 -2 -21 -15z"/>
<path d="M870 1030 c0 -11 40 -34 47 -26 3 3 3 12 0 21 -7 16 -47 21 -47 5z"/>
<path d="M433 1014 c-10 -26 11 -36 35 -16 12 11 19 22 15 26 -12 12 -44 6
-50 -10z"/>
<path d="M988 1023 c7 -3 16 -2 19 1 4 3 -2 6 -13 5 -11 0 -14 -3 -6 -6z"/>
<path d="M220 1010 c20 -13 40 -13 40 0 0 6 -12 10 -27 10 -22 0 -25 -2 -13
-10z"/>
<path d="M2 985 c0 -16 2 -22 5 -12 2 9 2 23 0 30 -3 6 -5 -1 -5 -18z"/>
<path d="M919 983 c-12 -15 -12 -16 1 -8 8 4 5 -2 -8 -14 -12 -12 -20 -26 -17
-32 8 -13 16 -11 13 2 -2 6 3 14 11 17 10 3 13 -1 8 -17 -3 -13 0 -21 8 -21 7
0 15 -7 19 -15 3 -8 1 -15 -4 -15 -6 0 -10 5 -10 11 0 5 -4 7 -10 4 -19 -12
-9 -30 27 -53 40 -26 68 -17 42 14 -7 9 -14 22 -14 28 -2 27 -26 95 -39 105
-10 9 -17 7 -27 -6z"/>
<path d="M1130 941 c0 -8 -6 -11 -15 -7 -22 8 -18 -3 7 -24 21 -17 24 -17 60
2 22 11 37 25 35 31 -5 17 -87 15 -87 -2z"/>
<path d="M186 936 c4 -11 0 -13 -18 -9 -17 3 -19 2 -9 -5 11 -8 11 -10 0 -15
-10 -4 -8 -6 4 -6 10 -1 15 -5 12 -11 -3 -5 1 -10 9 -10 18 0 30 16 17 24 -5
3 -7 15 -4 26 3 11 0 20 -6 20 -5 0 -8 -6 -5 -14z"/>
<path d="M308 943 c7 -3 16 -2 19 1 4 3 -2 6 -13 5 -11 0 -14 -3 -6 -6z"/>
<path d="M590 922 c0 -27 10 -33 26 -17 20 20 17 35 -6 35 -13 0 -20 -7 -20
-18z"/>
<path d="M1340 926 c0 -9 7 -12 20 -9 11 3 20 9 20 14 0 5 -9 9 -20 9 -11 0
-20 -6 -20 -14z"/>
<path d="M755 920 c-3 -5 -2 -10 4 -10 5 0 13 5 16 10 3 6 2 10 -4 10 -5 0
-13 -4 -16 -10z"/>
<path d="M416 882 c19 -18 74 -45 74 -37 0 7 -74 55 -84 55 -5 0 -1 -8 10 -18z"/>
<path d="M1090 890 c0 -5 5 -10 10 -10 6 0 10 5 10 10 0 6 -4 10 -10 10 -5 0
-10 -4 -10 -10z"/>
<path d="M1340 896 c0 -2 7 -6 15 -10 8 -3 15 -1 15 4 0 6 -7 10 -15 10 -8 0
-15 -2 -15 -4z"/>
<path d="M50 876 c0 -2 7 -7 16 -10 8 -3 12 -2 9 4 -6 10 -25 14 -25 6z"/>
<path d="M350 872 c0 -14 23 -32 42 -32 10 0 18 5 18 10 0 6 -9 10 -20 10 -11
0 -20 5 -20 10 0 6 -4 10 -10 10 -5 0 -10 -4 -10 -8z"/>
<path d="M763 862 c-14 -2 -20 -8 -16 -18 7 -19 53 -19 53 0 0 19 -9 23 -37
18z"/>
<path d="M1298 863 c7 -3 16 -2 19 1 4 3 -2 6 -13 5 -11 0 -14 -3 -6 -6z"/>
<path d="M270 821 c0 -6 5 -13 10 -16 6 -3 10 -17 10 -30 0 -33 -20 -82 -28
-69 -10 16 -52 24 -71 14 -9 -5 -25 -11 -35 -15 -15 -4 -16 -9 -8 -17 9 -9 17
-7 33 8 21 19 22 19 15 -2 -5 -18 -2 -22 21 -27 15 -3 33 -1 40 5 7 5 16 7 21
4 16 -10 39 28 46 76 6 41 5 47 -14 53 -11 3 -20 11 -20 16 0 5 -4 9 -10 9 -5
0 -10 -4 -10 -9z"/>
<path d="M407 789 c4 -13 9 -17 15 -11 11 11 3 32 -12 32 -4 0 -6 -9 -3 -21z"/>
<path d="M597 803 c-10 -3 -16 -10 -14 -16 6 -19 60 -20 82 -2 11 9 14 14 8
10 -7 -3 -13 -1 -13 4 0 11 -29 13 -63 4z"/>
<path d="M140 790 c0 -5 11 -10 24 -10 14 0 28 5 31 10 4 6 -7 10 -24 10 -17
0 -31 -4 -31 -10z"/>
<path d="M495 790 c-3 -5 1 -10 10 -10 9 0 13 5 10 10 -3 6 -8 10 -10 10 -2 0
-7 -4 -10 -10z"/>
<path d="M820 750 c0 -5 5 -10 10 -10 6 0 10 5 10 10 0 6 -4 10 -10 10 -5 0
-10 -4 -10 -10z"/>
<path d="M714 735 c11 -8 22 -12 25 -9 6 6 -19 24 -34 24 -5 -1 -1 -7 9 -15z"/>
<path d="M450 720 c0 -23 25 -27 46 -6 21 21 18 26 -16 26 -23 0 -30 -4 -30
-20z"/>
<path d="M1235 729 c-4 -6 -13 -8 -19 -6 -7 3 -19 1 -27 -4 -11 -7 -11 -9 3
-9 10 0 22 -9 28 -20 12 -22 40 -26 57 -9 13 13 6 39 -9 39 -5 0 -6 -4 -3 -10
3 -5 -2 -10 -11 -10 -16 0 -16 1 1 20 16 17 16 20 2 20 -9 0 -19 -5 -22 -11z"/>
<path d="M800 700 c0 -5 7 -10 16 -10 8 0 12 5 9 10 -3 6 -10 10 -16 10 -5 0
-9 -4 -9 -10z"/>
<path d="M635 681 c-7 -12 12 -24 25 -16 11 7 4 25 -10 25 -5 0 -11 -4 -15 -9z"/>
<path d="M366 671 c-13 -20 7 -40 42 -43 l37 -4 -28 -12 c-39 -16 -110 -15
-202 4 -61 13 -79 13 -85 4 -5 -8 -16 -10 -26 -6 -28 9 25 -32 55 -45 28 -11
171 -13 228 -3 51 9 86 40 72 65 -5 11 -17 19 -25 19 -9 0 -12 5 -8 13 5 9 4
9 -5 1 -14 -13 -54 -7 -45 7 3 5 3 9 0 9 -3 0 -7 -4 -10 -9z m-171 -79 c-3 -3
-11 0 -18 7 -9 10 -8 11 6 5 10 -3 15 -9 12 -12z"/>
<path d="M1192 668 c-14 -14 -16 -32 -3 -24 5 4 11 0 14 -6 4 -11 7 -11 18 0
11 10 11 15 -2 27 -12 12 -17 13 -27 3z"/>
<path d="M57 604 c-4 -4 -7 -16 -7 -26 0 -10 -5 -18 -11 -18 -6 0 -8 9 -4 22
6 17 4 20 -10 15 -9 -4 -19 -7 -21 -7 -2 0 -4 -6 -4 -14 0 -19 46 -29 71 -16
11 6 19 19 17 27 -3 18 -21 27 -31 17z"/>
<path d="M1201 594 c0 -11 3 -14 6 -6 3 7 2 16 -1 19 -3 4 -6 -2 -5 -13z"/>
<path d="M68 503 c-10 -2 -18 -9 -18 -15 0 -6 10 -8 23 -4 12 3 25 6 30 6 4 0
7 5 7 10 0 10 -12 11 -42 3z"/>
<path d="M10 444 c0 -8 5 -12 10 -9 6 4 8 11 5 16 -9 14 -15 11 -15 -7z"/>
<path d="M21 373 c2 -26 18 -47 38 -50 23 -3 22 4 -8 39 -16 18 -32 24 -30 11z"/>
<path d="M0 310 c0 -13 7 -20 20 -20 24 0 27 25 4 34 -23 9 -24 8 -24 -14z"/>
</g>
</svg>
