<?xml version="1.0" standalone="no"?>
<!DOCTYPE svg PUBLIC "-//W3C//DTD SVG 20010904//EN"
 "http://www.w3.org/TR/2001/REC-SVG-20010904/DTD/svg10.dtd">
<svg version="1.0" xmlns="http://www.w3.org/2000/svg"
 width="175.000000pt" height="203.000000pt" viewBox="0 0 175.000000 203.000000"
 preserveAspectRatio="xMidYMid meet">

<g transform="translate(0.000000,203.000000) scale(0.100000,-0.100000)"
fill="#000000" stroke="none">
<path d="M180 2013 c0 -9 3 -13 7 -10 3 4 14 0 24 -9 10 -9 20 -11 23 -6 3 6
-5 17 -19 26 -31 20 -35 20 -35 -1z"/>
<path d="M250 2015 c0 -8 5 -15 10 -15 6 0 10 7 10 15 0 8 -4 15 -10 15 -5 0
-10 -7 -10 -15z"/>
<path d="M290 2024 c8 -1 33 -6 54 -9 24 -4 35 -10 27 -14 -9 -6 -8 -11 4 -21
14 -12 18 -11 25 0 6 9 4 17 -3 22 -7 4 13 8 44 8 31 0 63 -6 74 -14 11 -8 26
-11 34 -8 9 3 12 1 7 -6 -4 -7 -2 -12 3 -12 6 0 11 4 11 10 0 12 59 1 84 -16
10 -7 25 -10 34 -7 10 4 13 2 8 -5 -5 -8 0 -12 13 -13 40 -3 46 -5 43 -17 -1
-7 7 -12 18 -12 13 0 20 -7 20 -20 0 -11 4 -20 9 -20 5 0 11 9 14 20 3 11 10
20 16 20 7 0 9 -10 5 -25 -5 -20 -3 -24 10 -19 12 5 15 2 10 -10 -4 -10 -13
-15 -21 -12 -10 4 -11 1 -4 -13 6 -10 17 -21 26 -25 8 -3 15 -12 15 -21 0 -18
14 -20 28 -2 15 19 -3 58 -24 50 -12 -4 -15 -2 -12 8 8 23 35 22 41 -2 l6 -23
21 27 c27 34 40 34 40 2 0 -14 -5 -25 -10 -25 -6 0 -5 -8 2 -20 11 -18 14 -18
24 -5 6 8 14 11 18 7 4 -4 11 -7 14 -8 4 0 15 -4 25 -9 10 -4 31 -5 48 -1 19
4 28 2 24 -5 -4 -5 0 -20 9 -33 14 -23 14 -24 -9 -30 -14 -4 -25 -13 -25 -22
0 -11 4 -12 19 -4 27 14 34 13 28 -5 -4 -8 -2 -17 3 -20 6 -4 10 -15 10 -26 0
-20 15 -26 25 -10 8 14 54 -13 81 -46 21 -25 23 -26 24 -8 1 19 1 19 11 2 6
-9 14 -15 20 -12 14 9 11 0 -12 -45 -12 -22 -25 -40 -31 -40 -20 0 4 -19 31
-25 24 -5 30 -13 36 -43 4 -20 13 -41 21 -47 13 -9 12 -14 -6 -38 -20 -25 -20
-28 -6 -43 9 -8 16 -11 16 -5 0 6 6 11 13 11 7 0 12 -14 12 -35 0 -29 -3 -34
-17 -29 -12 3 -18 0 -18 -10 0 -10 9 -16 25 -16 14 0 25 -4 25 -9 0 -5 13 -14
29 -21 16 -6 32 -18 35 -26 3 -8 19 -14 36 -14 50 0 36 -25 -16 -28 -25 -1
-50 -4 -55 -8 -16 -9 2 -26 22 -21 14 4 19 0 19 -14 0 -10 7 -19 15 -19 21 0
19 -13 -4 -27 -15 -9 -23 -8 -40 3 -11 8 -21 14 -22 12 -5 -19 -9 -59 -9 -86
1 -29 -2 -32 -17 -24 -23 12 -43 5 -43 -15 0 -12 -7 -14 -30 -9 -22 4 -30 2
-30 -9 0 -8 -5 -15 -10 -15 -7 0 -8 -13 -4 -35 5 -27 3 -36 -10 -41 -11 -4
-15 -13 -10 -27 6 -18 3 -19 -30 -14 -20 3 -34 2 -31 -3 3 -4 -14 -6 -37 -4
-40 4 -42 3 -24 -11 11 -8 16 -18 13 -22 -4 -3 -7 -3 -7 0 0 4 -11 2 -25 -3
-20 -7 -25 -6 -25 5 0 8 -4 15 -9 15 -14 0 -6 -61 10 -71 22 -14 -3 -25 -55
-23 -25 1 -46 -3 -46 -8 0 -5 4 -7 9 -4 15 10 33 -22 27 -46 -3 -13 -3 -17 0
-10 8 18 27 15 20 -3 -3 -9 0 -24 6 -34 19 -30 -2 -85 -33 -89 -19 -2 -42 13
-101 70 -67 64 -76 76 -71 100 4 21 1 29 -13 34 -11 3 -40 17 -66 30 -26 14
-48 20 -50 14 -2 -6 -9 -1 -16 10 -11 18 -10 20 15 20 26 1 26 2 9 12 -33 19
-89 16 -113 -7 -13 -11 -23 -23 -23 -27 0 -16 30 -7 42 12 15 23 43 27 34 5
-3 -9 0 -15 10 -15 8 0 13 -4 10 -9 -3 -5 1 -12 10 -15 12 -5 13 -10 5 -19 -7
-10 -7 -17 0 -24 12 -12 4 -33 -11 -33 -5 0 -15 6 -22 13 -19 19 -58 28 -52
12 3 -7 -2 -15 -11 -19 -13 -5 -15 -2 -9 16 6 21 6 21 -10 5 -10 -9 -21 -15
-26 -12 -4 3 -10 -3 -12 -13 -5 -22 1 -54 10 -48 4 2 8 -6 8 -19 2 -20 -4 -25
-37 -30 -21 -4 -39 -10 -39 -14 0 -4 -6 -8 -12 -8 -31 0 -164 -26 -173 -33 -5
-5 -21 -10 -35 -12 -14 -2 -24 -8 -23 -13 1 -6 -18 -8 -44 -6 -28 2 -43 -1
-40 -7 4 -5 -3 -8 -16 -7 -12 1 -35 3 -50 4 -19 1 -26 5 -21 13 5 7 3 8 -7 2
-15 -10 -18 -10 -51 -14 -20 -2 -19 -3 7 -10 l30 -8 -27 -1 -28 -1 0 -195 0
-195 875 0 875 0 0 1014 0 1014 -737 0 c-406 -1 -731 -2 -723 -4z m574 -113
c-2 -3 -12 3 -22 13 -16 17 -16 18 5 5 12 -7 20 -15 17 -18z m181 -91 c3 -5 2
-10 -4 -10 -5 0 -13 5 -16 10 -3 6 -2 10 4 10 5 0 13 -4 16 -10z m49 1 c4 -5
-3 -7 -14 -4 -23 6 -26 13 -6 13 8 0 17 -4 20 -9z m72 -53 c4 -7 3 -8 -4 -4
-7 4 -12 3 -12 -3 0 -6 -8 -7 -17 -4 -17 7 -15 8 24 22 1 1 5 -4 9 -11z m139
-168 c3 -6 -1 -7 -9 -4 -18 7 -21 14 -7 14 6 0 13 -4 16 -10z m105 -31 c0 -6
-4 -7 -10 -4 -5 3 -10 11 -10 16 0 6 5 7 10 4 6 -3 10 -11 10 -16z m-66 -38
c3 -5 -3 -11 -14 -14 -20 -5 -26 3 -13 16 9 10 21 9 27 -2z m126 -76 c7 -8 9
-15 6 -15 -4 0 -14 7 -22 15 -9 8 -11 15 -6 15 5 0 15 -7 22 -15z m-108 -57
c-7 -7 -12 -8 -12 -2 0 6 3 14 7 17 3 4 9 5 12 2 2 -3 -1 -11 -7 -17z m138 5
c0 -10 -4 -14 -8 -8 -4 6 -11 13 -16 18 -5 4 -2 7 7 7 10 0 17 -8 17 -17z
m-40 -27 c0 -3 -4 -8 -10 -11 -5 -3 -10 -1 -10 4 0 6 5 11 10 11 6 0 10 -2 10
-4z m61 -46 c4 -14 7 -45 7 -70 0 -43 -1 -43 -10 14 -6 35 -16 65 -26 72 -15
11 -15 12 3 11 12 -1 22 -12 26 -27z m-25 -21 c1 -7 5 -23 9 -34 l7 -20 -14
20 c-22 30 -30 57 -16 53 6 -2 12 -11 14 -19z m-46 1 c0 -5 -2 -10 -4 -10 -3
0 -8 5 -11 10 -3 6 -1 10 4 10 6 0 11 -4 11 -10z m17 -37 c-4 -3 -1 -13 5 -21
10 -11 8 -17 -7 -28 -14 -10 -21 -11 -26 -3 -4 7 -13 10 -20 7 -10 -4 -14 2
-14 18 0 19 2 21 10 11 6 -8 16 -12 24 -9 8 3 11 0 7 -7 -4 -6 -1 -11 8 -11
18 0 21 16 6 25 -10 6 -5 25 7 25 4 0 3 -3 0 -7z m33 -48 c-10 -12 -10 -15 1
-15 17 0 -5 -23 -25 -26 -11 -2 -11 4 3 27 9 16 20 29 25 29 5 0 3 -7 -4 -15z
m110 -135 c47 -24 51 -33 13 -25 l-28 6 24 -14 c15 -9 20 -17 12 -21 -6 -4
-11 -3 -11 3 0 5 -9 13 -20 16 -11 4 -17 11 -14 17 4 6 -1 17 -11 25 -27 19
-10 16 35 -7z m-83 -16 c-3 -3 -12 -4 -19 -1 -8 3 -5 6 6 6 11 1 17 -2 13 -5z
m83 -69 c0 -25 -15 -24 -16 1 -1 13 2 21 7 18 5 -3 9 -11 9 -19z m-50 -31 c0
-8 4 -13 9 -9 5 3 12 1 16 -4 3 -6 -4 -8 -16 -6 -24 5 -41 24 -33 37 8 12 24
-1 24 -18z m-377 -279 c0 -6 -7 -11 -16 -13 -12 -3 -15 1 -11 13 7 17 25 17
27 0z m-423 -55 c0 -5 -2 -10 -4 -10 -3 0 -8 5 -11 10 -3 6 -1 10 4 10 6 0 11
-4 11 -10z m19 -91 c-8 -5 -26 -8 -41 -6 -22 3 -25 1 -17 -10 9 -10 8 -13 -2
-14 -8 0 -26 -2 -41 -4 -16 -2 -28 0 -28 5 0 5 -14 4 -32 -1 -37 -10 -42 -7
-33 20 3 11 18 22 36 26 16 4 27 10 24 15 -3 5 -1 11 5 15 5 3 10 3 10 -2 0
-4 25 -9 55 -9 44 -1 55 2 56 15 0 9 5 3 11 -13 8 -22 7 -30 -3 -37z m-666
-156 c-7 -2 -19 -2 -25 0 -7 3 -2 5 12 5 14 0 19 -2 13 -5z"/>
<path d="M670 550 c-8 -5 -13 -10 -10 -11 3 0 12 -2 21 -4 9 -1 16 4 16 11 0
16 -6 17 -27 4z"/>
<path d="M25 2000 c-8 -12 20 -24 35 -15 6 3 8 11 5 16 -8 12 -32 12 -40 -1z"/>
<path d="M300 2001 c0 -10 30 -24 37 -17 3 3 2 9 -2 15 -8 13 -35 15 -35 2z"/>
<path d="M438 1978 c7 -7 23 -13 35 -13 13 -1 28 -4 34 -8 7 -4 14 -3 18 3 7
12 -36 30 -73 30 -20 0 -23 -3 -14 -12z"/>
<path d="M63 1956 c-7 -8 -17 -16 -24 -18 -7 -2 -10 -11 -6 -21 10 -26 57 -1
57 30 0 26 -9 29 -27 9z"/>
<path d="M246 1943 c16 -34 32 -41 51 -22 15 15 5 39 -14 39 -9 0 -13 -6 -9
-15 8 -22 -3 -18 -25 8 -19 22 -19 22 -3 -10z"/>
<path d="M173 1921 c-10 -16 -9 -20 6 -24 11 -2 25 -1 32 3 10 7 10 11 0 24
-17 21 -24 20 -38 -3z"/>
<path d="M520 1895 c0 -8 4 -15 10 -15 5 0 7 7 4 15 -4 8 -8 15 -10 15 -2 0
-4 -7 -4 -15z"/>
<path d="M0 1866 c0 -9 7 -16 16 -16 17 0 14 22 -4 28 -7 2 -12 -3 -12 -12z"/>
<path d="M235 1870 c-3 -5 1 -10 9 -10 9 0 16 5 16 10 0 6 -4 10 -9 10 -6 0
-13 -4 -16 -10z"/>
<path d="M311 1831 l-21 -19 30 -4 c16 -2 35 -1 42 4 10 6 10 8 1 8 -7 0 -10
7 -7 15 9 21 -18 19 -45 -4z"/>
<path d="M225 1830 c-3 -5 1 -10 10 -10 9 0 13 5 10 10 -3 6 -8 10 -10 10 -2
0 -7 -4 -10 -10z"/>
<path d="M7 1823 c-12 -12 -7 -22 8 -17 8 4 15 10 15 15 0 11 -14 12 -23 2z"/>
<path d="M140 1821 c0 -11 26 -22 34 -14 3 3 3 10 0 14 -7 12 -34 11 -34 0z"/>
<path d="M485 1821 c-3 -5 2 -11 10 -15 8 -3 17 -1 20 3 3 5 -2 11 -10 15 -8
3 -17 1 -20 -3z"/>
<path d="M400 1790 c0 -5 -7 -10 -17 -10 -9 0 -13 -3 -10 -7 4 -3 17 -1 30 5
12 6 29 13 37 15 8 3 3 6 -12 6 -16 1 -28 -3 -28 -9z"/>
<path d="M596 1785 c-7 -18 29 -39 52 -30 15 6 14 9 -7 26 -28 23 -37 24 -45
4z"/>
<path d="M75 1770 c3 -5 13 -10 21 -10 8 0 14 5 14 10 0 6 -9 10 -21 10 -11 0
-17 -4 -14 -10z"/>
<path d="M805 1760 c3 -5 8 -10 11 -10 2 0 4 5 4 10 0 6 -5 10 -11 10 -5 0 -7
-4 -4 -10z"/>
<path d="M160 1750 c0 -5 5 -10 11 -10 5 0 7 5 4 10 -3 6 -8 10 -11 10 -2 0
-4 -4 -4 -10z"/>
<path d="M330 1740 c0 -5 5 -10 11 -10 5 0 7 5 4 10 -3 6 -8 10 -11 10 -2 0
-4 -4 -4 -10z"/>
<path d="M475 1741 c-3 -5 -1 -12 5 -16 5 -3 10 1 10 9 0 18 -6 21 -15 7z"/>
<path d="M1058 1743 c7 -3 16 -2 19 1 4 3 -2 6 -13 5 -11 0 -14 -3 -6 -6z"/>
<path d="M108 1733 c7 -3 16 -2 19 1 4 3 -2 6 -13 5 -11 0 -14 -3 -6 -6z"/>
<path d="M693 1733 c9 -2 25 -2 35 0 9 3 1 5 -18 5 -19 0 -27 -2 -17 -5z"/>
<path d="M515 1720 c-3 -5 -1 -10 4 -10 6 0 11 5 11 10 0 6 -2 10 -4 10 -3 0
-8 -4 -11 -10z"/>
<path d="M605 1720 c3 -5 17 -10 31 -10 14 0 22 4 19 10 -3 6 -17 10 -31 10
-14 0 -22 -4 -19 -10z"/>
<path d="M860 1701 c0 -6 5 -13 10 -16 6 -3 10 1 10 9 0 9 -4 16 -10 16 -5 0
-10 -4 -10 -9z"/>
<path d="M307 1686 c-4 -10 0 -12 14 -9 10 3 16 9 13 14 -8 13 -21 11 -27 -5z"/>
<path d="M355 1690 c3 -5 13 -10 21 -10 8 0 12 5 9 10 -3 6 -13 10 -21 10 -8
0 -12 -4 -9 -10z"/>
<path d="M600 1669 c0 -5 9 -9 20 -9 11 0 20 2 20 4 0 2 -9 6 -20 9 -11 3 -20
1 -20 -4z"/>
<path d="M834 1673 c10 -11 37 -12 30 -2 -3 5 -12 9 -21 9 -9 0 -13 -3 -9 -7z"/>
<path d="M515 1650 c-4 -6 3 -10 14 -10 25 0 27 6 6 13 -8 4 -17 2 -20 -3z"/>
<path d="M211 1646 c19 -17 47 -23 60 -14 11 8 11 9 -3 4 -10 -3 -18 -1 -18 4
0 6 -10 10 -22 10 -12 0 -19 -2 -17 -4z"/>
<path d="M618 1623 c6 -2 18 -2 25 0 6 3 1 5 -13 5 -14 0 -19 -2 -12 -5z"/>
<path d="M796 1614 c-9 -23 -3 -26 28 -14 15 5 24 14 21 20 -10 16 -42 12 -49
-6z"/>
<path d="M80 1603 c0 -4 5 -15 10 -23 8 -13 10 -13 10 2 0 9 -4 20 -10 23 -5
3 -10 3 -10 -2z"/>
<path d="M742 1593 c2 -10 11 -19 21 -21 16 -3 17 -1 5 17 -16 25 -31 27 -26
4z"/>
<path d="M890 1601 c0 -16 27 -31 44 -25 14 5 12 9 -10 20 -31 16 -34 17 -34
5z"/>
<path d="M370 1590 c0 -5 5 -10 11 -10 5 0 7 5 4 10 -3 6 -8 10 -11 10 -2 0
-4 -4 -4 -10z"/>
<path d="M1020 1585 c-22 -13 -23 -15 -6 -21 10 -4 21 -2 25 3 3 5 15 15 26
21 l20 11 -20 0 c-11 -1 -31 -7 -45 -14z"/>
<path d="M572 1578 c-19 -19 -14 -30 10 -26 13 2 24 11 26 21 4 20 -18 23 -36
5z"/>
<path d="M480 1565 c0 -9 6 -12 15 -9 8 4 12 10 9 15 -8 14 -24 10 -24 -6z"/>
<path d="M435 1560 c-10 -16 26 -60 49 -60 19 1 19 3 -9 26 -16 15 -24 23 -17
20 6 -4 12 -3 12 2 0 14 -28 23 -35 12z"/>
<path d="M1026 1536 c10 -8 21 -12 24 -10 5 6 -21 24 -34 24 -6 0 -1 -6 10
-14z"/>
<path d="M40 1525 c0 -18 19 -40 26 -32 4 4 0 15 -9 24 -9 10 -17 13 -17 8z"/>
<path d="M960 1520 c0 -5 7 -10 15 -10 8 0 15 5 15 10 0 6 -7 10 -15 10 -8 0
-15 -4 -15 -10z"/>
<path d="M120 1504 c0 -8 5 -12 10 -9 6 4 8 11 5 16 -9 14 -15 11 -15 -7z"/>
<path d="M1030 1500 c0 -5 5 -10 10 -10 6 0 10 5 10 10 0 6 -4 10 -10 10 -5 0
-10 -4 -10 -10z"/>
<path d="M1154 1502 c9 -15 65 -32 71 -22 3 5 -5 11 -17 15 -13 4 -31 9 -42
12 -11 3 -16 1 -12 -5z"/>
<path d="M425 1490 c-3 -5 -1 -10 5 -10 6 0 9 -4 5 -9 -6 -11 62 -27 72 -17 3
3 0 12 -7 21 -9 11 -16 12 -25 5 -9 -8 -17 -6 -28 5 -10 9 -18 11 -22 5z"/>
<path d="M760 1487 c0 -8 9 -22 20 -32 19 -18 20 -17 20 1 0 11 -9 25 -20 32
-16 10 -20 10 -20 -1z"/>
<path d="M170 1480 c0 -5 7 -7 16 -3 10 4 17 -1 21 -16 3 -12 13 -21 24 -21
12 0 16 5 13 15 -4 8 -10 15 -16 15 -5 0 -6 5 -3 10 4 6 -7 10 -24 10 -17 0
-31 -4 -31 -10z"/>
<path d="M822 1474 c2 -8 6 -15 11 -15 4 1 21 1 39 1 39 0 26 15 -20 24 -27 5
-33 3 -30 -10z"/>
<path d="M5 1460 c3 -5 11 -10 16 -10 6 0 7 5 4 10 -3 6 -11 10 -16 10 -6 0
-7 -4 -4 -10z"/>
<path d="M1136 1462 c-3 -6 1 -13 10 -16 23 -9 28 -2 10 13 -8 7 -17 8 -20 3z"/>
<path d="M347 1454 c-8 -8 1 -24 14 -24 5 0 9 7 9 15 0 15 -12 20 -23 9z"/>
<path d="M1080 1450 c0 -5 6 -10 14 -10 8 0 18 5 21 10 3 6 -3 10 -14 10 -12
0 -21 -4 -21 -10z"/>
<path d="M85 1440 c-3 -5 1 -10 10 -10 9 0 13 5 10 10 -3 6 -8 10 -10 10 -2 0
-7 -4 -10 -10z"/>
<path d="M960 1441 c0 -5 -7 -8 -16 -7 -18 1 -42 -29 -32 -40 4 -3 27 0 52 7
43 12 44 14 29 31 -17 19 -33 24 -33 9z"/>
<path d="M413 1408 c-13 -6 -23 -15 -23 -20 0 -7 31 8 59 29 10 7 -16 1 -36
-9z"/>
<path d="M534 1411 c5 -7 -1 -11 -14 -11 -12 0 -18 -4 -15 -10 3 -5 15 -10 26
-10 13 0 18 4 13 12 -5 8 -2 9 9 5 24 -9 21 0 -4 14 -15 8 -19 8 -15 0z"/>
<path d="M230 1390 c0 -16 4 -18 22 -11 32 12 34 31 4 31 -19 0 -26 -5 -26
-20z"/>
<path d="M1172 1399 c2 -7 10 -15 17 -17 8 -3 12 1 9 9 -2 7 -10 15 -17 17 -8
3 -12 -1 -9 -9z"/>
<path d="M847 1373 c-9 -8 24 -32 46 -33 25 0 21 15 -8 28 -30 14 -30 14 -38
5z"/>
<path d="M177 1354 c-4 -4 -4 -11 -1 -15 8 -14 31 -10 38 6 5 15 -24 22 -37 9z"/>
<path d="M962 1348 c-7 -7 -12 -16 -12 -20 0 -11 31 -10 49 1 11 7 10 11 -6
19 -14 8 -23 8 -31 0z"/>
<path d="M1240 1350 c0 -5 7 -10 15 -10 8 0 15 5 15 10 0 6 -7 10 -15 10 -8 0
-15 -4 -15 -10z"/>
<path d="M1320 1349 c0 -5 5 -7 10 -4 6 3 10 8 10 11 0 2 -4 4 -10 4 -5 0 -10
-5 -10 -11z"/>
<path d="M1177 1335 c6 -18 27 -25 43 -15 18 11 4 28 -24 28 -16 0 -23 -5 -19
-13z"/>
<path d="M87 1328 c-16 -12 -16 -14 3 -26 17 -10 21 -10 27 3 9 24 -10 37 -30
23z"/>
<path d="M870 1309 c0 -5 5 -7 10 -4 6 3 10 1 10 -4 0 -6 8 -11 18 -11 15 1
15 2 -2 15 -23 18 -36 19 -36 4z"/>
<path d="M590 1295 c0 -8 5 -15 10 -15 6 0 10 7 10 15 0 8 -4 15 -10 15 -5 0
-10 -7 -10 -15z"/>
<path d="M292 1263 c15 -15 31 -23 35 -19 4 4 -3 16 -17 26 -37 29 -49 24 -18
-7z"/>
<path d="M945 1280 c3 -5 10 -10 16 -10 5 0 9 5 9 10 0 6 -7 10 -16 10 -8 0
-12 -4 -9 -10z"/>
<path d="M41 1271 c-8 -5 -9 -11 -3 -15 5 -3 15 1 22 9 14 16 3 20 -19 6z"/>
<path d="M385 1260 c-3 -5 -1 -10 4 -10 6 0 11 5 11 10 0 6 -2 10 -4 10 -3 0
-8 -4 -11 -10z"/>
<path d="M870 1263 c0 -5 5 -14 11 -20 13 -13 51 -5 46 11 -4 13 -57 21 -57 9z"/>
<path d="M655 1249 c-10 -15 3 -25 16 -12 7 7 7 13 1 17 -6 3 -14 1 -17 -5z"/>
<path d="M960 1219 c0 -5 4 -9 9 -9 5 0 17 -3 27 -7 11 -4 15 -3 11 4 -9 14
-47 24 -47 12z"/>
<path d="M397 1209 c8 -8 16 -8 30 0 16 9 14 10 -11 11 -22 0 -27 -3 -19 -11z"/>
<path d="M1154 1209 c-8 -13 13 -29 39 -29 15 0 16 3 7 20 -12 22 -35 26 -46
9z"/>
<path d="M1065 1190 c-3 -5 3 -10 15 -10 12 0 18 5 15 10 -3 6 -10 10 -15 10
-5 0 -12 -4 -15 -10z"/>
<path d="M402 1179 c-13 -5 -20 -13 -17 -19 8 -13 42 -13 51 1 10 17 -9 28
-34 18z"/>
<path d="M470 1180 c0 -5 5 -10 10 -10 6 0 10 5 10 10 0 6 -4 10 -10 10 -5 0
-10 -4 -10 -10z"/>
<path d="M670 1182 c0 -2 6 -10 14 -18 12 -12 17 -12 28 -1 7 8 20 16 28 19 8
3 -4 5 -27 4 -24 0 -43 -2 -43 -4z"/>
<path d="M557 1173 c-4 -3 -7 -11 -7 -17 0 -6 5 -5 12 2 6 6 9 14 7 17 -3 3
-9 2 -12 -2z"/>
<path d="M990 1175 c0 -13 46 -45 64 -44 19 0 18 1 -4 10 -14 6 -28 17 -33 25
-7 13 -27 20 -27 9z"/>
<path d="M205 1160 c3 -5 11 -10 16 -10 6 0 7 5 4 10 -3 6 -11 10 -16 10 -6 0
-7 -4 -4 -10z"/>
<path d="M1 1144 c0 -11 3 -14 6 -6 3 7 2 16 -1 19 -3 4 -6 -2 -5 -13z"/>
<path d="M505 1150 c-3 -5 -1 -10 4 -10 6 0 11 5 11 10 0 6 -2 10 -4 10 -3 0
-8 -4 -11 -10z"/>
<path d="M820 1150 c0 -5 4 -10 9 -10 6 0 13 5 16 10 3 6 -1 10 -9 10 -9 0
-16 -4 -16 -10z"/>
<path d="M243 1138 c2 -7 10 -13 17 -13 7 0 15 6 18 13 2 7 -5 12 -18 12 -13
0 -20 -5 -17 -12z"/>
<path d="M207 1123 c-12 -11 -8 -18 24 -37 l32 -19 -19 32 c-19 32 -26 36 -37
24z"/>
<path d="M540 1120 c20 -13 53 -13 45 0 -3 6 -18 10 -33 10 -21 0 -24 -2 -12
-10z"/>
<path d="M453 1113 c9 -2 23 -2 30 0 6 3 -1 5 -18 5 -16 0 -22 -2 -12 -5z"/>
<path d="M610 1110 c0 -5 7 -10 16 -10 8 0 12 5 9 10 -3 6 -10 10 -16 10 -5 0
-9 -4 -9 -10z"/>
<path d="M1020 1110 c0 -13 46 -24 60 -15 9 6 9 10 -1 16 -19 12 -59 11 -59
-1z"/>
<path d="M1220 1112 c0 -4 20 -18 44 -30 35 -19 52 -22 78 -16 l33 8 -35 7
c-69 14 -84 19 -94 29 -12 12 -26 13 -26 2z"/>
<path d="M733 1099 c11 -7 23 -7 35 0 14 9 11 10 -18 10 -29 0 -32 -1 -17 -10z"/>
<path d="M910 1106 c0 -9 30 -14 35 -6 4 6 -3 10 -14 10 -12 0 -21 -2 -21 -4z"/>
<path d="M280 1090 c0 -12 70 -60 87 -60 23 0 14 17 -25 44 -39 27 -62 33 -62
16z"/>
<path d="M787 1087 c-3 -8 1 -14 9 -14 8 0 14 6 14 14 0 7 -4 13 -9 13 -5 0
-11 -6 -14 -13z"/>
<path d="M552 1081 c-16 -10 3 -35 22 -28 9 4 16 11 16 16 0 12 -24 21 -38 12z"/>
<path d="M1155 1080 c3 -5 12 -7 20 -3 21 7 19 13 -6 13 -11 0 -18 -4 -14 -10z"/>
<path d="M740 1050 c20 -13 33 -13 25 0 -3 6 -14 10 -23 10 -15 0 -15 -2 -2
-10z"/>
<path d="M1415 1050 c-3 -5 1 -10 10 -10 9 0 13 5 10 10 -3 6 -8 10 -10 10 -2
0 -7 -4 -10 -10z"/>
<path d="M610 1035 c0 -9 9 -15 24 -15 13 0 32 -3 42 -7 14 -5 13 -2 -4 15
-25 25 -62 29 -62 7z"/>
<path d="M1077 1043 c-8 -7 11 -33 23 -33 5 0 6 9 3 20 -5 20 -15 25 -26 13z"/>
<path d="M200 1034 c0 -15 39 -34 71 -34 42 0 53 17 17 24 -32 7 -88 13 -88
10z"/>
<path d="M558 1023 c7 -3 16 -2 19 1 4 3 -2 6 -13 5 -11 0 -14 -3 -6 -6z"/>
<path d="M1203 1023 c-24 -9 -13 -19 22 -20 36 -1 47 10 19 21 -18 7 -23 7
-41 -1z"/>
<path d="M970 1010 c0 -5 5 -10 11 -10 5 0 7 5 4 10 -3 6 -8 10 -11 10 -2 0
-4 -4 -4 -10z"/>
<path d="M930 990 c0 -5 5 -10 11 -10 5 0 7 5 4 10 -3 6 -8 10 -11 10 -2 0 -4
-4 -4 -10z"/>
<path d="M1013 970 c-3 -11 -14 -20 -24 -20 -28 0 -23 -19 8 -31 21 -8 30 -6
42 6 13 13 13 15 1 15 -12 0 -12 2 -2 8 14 9 6 42 -10 42 -5 0 -12 -9 -15 -20z"/>
<path d="M1128 983 c7 -3 16 -2 19 1 4 3 -2 6 -13 5 -11 0 -14 -3 -6 -6z"/>
<path d="M125 960 c-3 -5 -2 -10 4 -10 5 0 13 5 16 10 3 6 2 10 -4 10 -5 0
-13 -4 -16 -10z"/>
<path d="M287 964 c-9 -10 2 -24 19 -24 8 0 14 7 14 15 0 15 -21 21 -33 9z"/>
<path d="M697 963 c-22 -6 -12 -23 14 -23 10 0 19 7 19 15 0 15 -2 16 -33 8z"/>
<path d="M836 955 c-4 -12 -1 -16 11 -13 18 3 21 20 5 26 -5 1 -12 -4 -16 -13z"/>
<path d="M1135 950 c-16 -18 -14 -25 8 -21 4 1 17 -4 28 -10 11 -6 28 -8 37
-4 14 5 13 9 -8 20 -14 8 -20 15 -15 15 10 0 -15 20 -26 20 -3 0 -14 -9 -24
-20z"/>
<path d="M892 950 c-11 -8 -9 -33 4 -37 6 -2 18 7 26 19 15 22 14 24 -4 24
-10 0 -22 -3 -26 -6z"/>
<path d="M595 931 c-9 -16 9 -20 23 -5 10 12 10 14 -2 14 -8 0 -17 -4 -21 -9z"/>
<path d="M415 919 c-21 -8 -18 -9 25 -15 14 -1 39 -6 55 -10 21 -4 27 -3 20 4
-16 16 -78 30 -100 21z"/>
<path d="M1288 923 c7 -3 16 -2 19 1 4 3 -2 6 -13 5 -11 0 -14 -3 -6 -6z"/>
<path d="M1049 910 c-11 -7 -9 -14 10 -34 24 -25 38 -27 91 -10 27 9 -11 23
-44 17 -24 -5 -28 -3 -23 10 7 18 -14 29 -34 17z"/>
<path d="M895 890 c-3 -5 1 -10 9 -10 9 0 16 5 16 10 0 6 -4 10 -9 10 -6 0
-13 -4 -16 -10z"/>
<path d="M185 880 c4 -6 11 -8 16 -5 14 9 11 15 -7 15 -8 0 -12 -5 -9 -10z"/>
<path d="M745 880 c3 -5 10 -10 16 -10 5 0 9 5 9 10 0 6 -7 10 -16 10 -8 0
-12 -4 -9 -10z"/>
<path d="M450 870 c0 -5 7 -10 16 -10 8 0 12 5 9 10 -3 6 -10 10 -16 10 -5 0
-9 -4 -9 -10z"/>
<path d="M340 860 c0 -5 7 -10 15 -10 8 0 15 5 15 10 0 6 -7 10 -15 10 -8 0
-15 -4 -15 -10z"/>
<path d="M1247 853 c-3 -5 -2 -15 2 -22 5 -7 11 -9 14 -4 3 5 2 15 -2 22 -5 7
-11 9 -14 4z"/>
<path d="M290 840 c0 -5 4 -10 9 -10 6 0 13 5 16 10 3 6 -1 10 -9 10 -9 0 -16
-4 -16 -10z"/>
<path d="M0 826 c0 -20 11 -25 35 -15 17 6 17 8 3 8 -10 1 -18 6 -18 11 0 6
-4 10 -10 10 -5 0 -10 -6 -10 -14z"/>
<path d="M200 829 c0 -5 5 -7 10 -4 6 3 10 8 10 11 0 2 -4 4 -10 4 -5 0 -10
-5 -10 -11z"/>
<path d="M233 820 c1 -23 19 -26 36 -7 13 16 5 27 -20 27 -12 0 -17 -7 -16
-20z"/>
<path d="M548 833 c7 -3 16 -2 19 1 4 3 -2 6 -13 5 -11 0 -14 -3 -6 -6z"/>
<path d="M650 826 c0 -2 7 -7 16 -10 8 -3 12 -2 9 4 -6 10 -25 14 -25 6z"/>
<path d="M795 820 c-3 -5 -1 -10 4 -10 6 0 11 5 11 10 0 6 -2 10 -4 10 -3 0
-8 -4 -11 -10z"/>
<path d="M1172 818 c-16 -16 -15 -25 3 -25 8 0 15 4 15 8 0 5 11 4 25 -1 14
-5 27 -6 30 0 11 18 -56 35 -73 18z"/>
<path d="M440 796 c0 -8 5 -18 10 -21 6 -3 10 3 10 14 0 12 -4 21 -10 21 -5 0
-10 -6 -10 -14z"/>
<path d="M357 793 c-11 -10 -8 -41 3 -48 6 -4 17 -2 24 4 15 13 26 5 26 -20 0
-12 5 -16 15 -13 21 8 19 30 -7 59 -21 24 -48 32 -61 18z"/>
<path d="M550 785 c0 -8 9 -15 20 -15 24 0 27 15 4 24 -22 9 -24 8 -24 -9z"/>
<path d="M1217 769 c7 -7 15 -10 18 -7 3 3 -2 9 -12 12 -14 6 -15 5 -6 -5z"/>
<path d="M486 726 c6 -16 34 -30 34 -18 0 10 -22 32 -32 32 -4 0 -5 -6 -2 -14z"/>
<path d="M220 715 c0 -8 9 -15 20 -15 13 0 18 5 14 15 -4 8 -12 15 -20 15 -8
0 -14 -7 -14 -15z"/>
<path d="M853 713 c-25 -10 -12 -24 19 -21 37 4 52 28 16 27 -12 0 -29 -3 -35
-6z"/>
<path d="M520 681 c0 -7 -12 -9 -32 -6 l-33 6 26 -26 c16 -16 31 -23 41 -20
23 9 29 32 12 45 -10 9 -14 9 -14 1z"/>
<path d="M55 671 c-6 -11 9 -23 19 -14 9 9 7 23 -3 23 -6 0 -12 -4 -16 -9z"/>
<path d="M326 663 c-6 -14 -9 -15 -15 -4 -5 8 -11 9 -14 4 -7 -12 40 -36 54
-28 14 9 11 45 -5 45 -8 0 -17 -8 -20 -17z"/>
<path d="M3 644 c0 -7 6 -15 14 -18 8 -3 13 2 13 13 0 10 -6 18 -13 18 -8 0
-14 -6 -14 -13z"/>
<path d="M80 630 c0 -5 5 -10 10 -10 6 0 10 5 10 10 0 6 -4 10 -10 10 -5 0
-10 -4 -10 -10z"/>
<path d="M188 613 c-48 -25 -62 -43 -32 -39 9 1 23 11 30 21 11 15 17 16 26 7
18 -18 23 -15 23 13 0 14 0 25 0 24 0 0 -21 -12 -47 -26z"/>
<path d="M400 629 c0 -5 5 -7 10 -4 6 3 10 8 10 11 0 2 -4 4 -10 4 -5 0 -10
-5 -10 -11z"/>
<path d="M15 601 l20 -8 -20 -5 c-11 -3 -1 -6 23 -7 30 -1 41 -5 36 -13 -4 -7
-3 -8 4 -4 7 4 12 13 12 21 0 20 -21 30 -31 14 -6 -11 -11 -11 -21 -1 -6 6
-19 12 -27 11 -11 0 -10 -3 4 -8z"/>
<path d="M258 593 c7 -3 16 -2 19 1 4 3 -2 6 -13 5 -11 0 -14 -3 -6 -6z"/>
<path d="M492 571 c1 -24 5 -28 29 -29 22 0 27 3 21 16 -17 46 -51 55 -50 13z"/>
<path d="M210 570 c0 -5 5 -10 10 -10 6 0 10 5 10 10 0 6 -4 10 -10 10 -5 0
-10 -4 -10 -10z"/>
<path d="M2 541 c1 -17 6 -31 12 -31 6 0 4 -5 -4 -10 -11 -7 -11 -10 -2 -10 7
0 10 -4 7 -10 -10 -16 7 -12 27 7 18 16 18 16 12 -3 -7 -16 -5 -17 8 -7 17 15
29 7 21 -13 -3 -8 0 -14 7 -14 6 0 8 -5 5 -10 -8 -13 17 -9 27 5 4 5 17 4 32
-5 14 -7 29 -10 33 -7 3 4 -2 7 -11 7 -31 0 -11 25 25 30 31 4 34 9 37 40 1
20 -1 30 -5 23 -11 -15 -63 -25 -63 -11 0 5 7 8 15 4 12 -4 13 -2 5 13 -7 15
-19 19 -46 16 -20 -1 -40 -8 -44 -15 -5 -9 -9 -9 -14 -1 -9 14 -36 15 -36 1 0
-5 8 -10 18 -10 14 0 15 -2 2 -10 -21 -14 -40 -12 -40 3 0 6 -7 20 -15 31 -13
17 -14 16 -13 -13z"/>
<path d="M20 559 c0 -5 5 -7 10 -4 6 3 10 8 10 11 0 2 -4 4 -10 4 -5 0 -10 -5
-10 -11z"/>
<path d="M436 554 c-4 -11 -22 -13 -81 -9 -62 5 -75 3 -75 -9 0 -8 -7 -19 -16
-24 -14 -8 -13 -10 2 -23 16 -12 17 -12 11 4 -7 19 9 24 16 5 4 -10 6 -10 6 0
1 7 8 20 16 28 13 14 17 14 31 0 17 -18 44 -21 44 -6 0 6 3 9 8 8 15 -4 82 13
82 21 0 15 -38 19 -44 5z"/>
</g>
</svg>
