<?xml version="1.0" standalone="no"?>
<!DOCTYPE svg PUBLIC "-//W3C//DTD SVG 20010904//EN"
 "http://www.w3.org/TR/2001/REC-SVG-20010904/DTD/svg10.dtd">
<svg version="1.0" xmlns="http://www.w3.org/2000/svg"
 width="175.000000pt" height="203.000000pt" viewBox="0 0 175.000000 203.000000"
 preserveAspectRatio="xMidYMid meet">

<g transform="translate(0.000000,203.000000) scale(0.100000,-0.100000)"
fill="#000000" stroke="none">
<path d="M930 2010 l-35 -19 33 -1 c25 0 32 -4 32 -20 0 -18 7 -20 80 -20 47
0 80 4 80 10 0 6 18 10 40 10 55 0 50 -17 -7 -25 -78 -10 -81 -13 -16 -14 38
-1 64 -6 67 -13 5 -10 7 -10 12 0 8 17 24 15 24 -4 0 -12 5 -14 18 -8 36 16
216 22 247 9 17 -7 37 -15 45 -18 8 -2 -38 -4 -102 -5 -81 0 -118 4 -118 12 0
7 -3 7 -8 -1 -7 -11 -152 -27 -237 -26 -16 0 -33 -4 -36 -10 -10 -15 -108 -20
-125 -6 -12 10 -16 8 -21 -9 -3 -12 -9 -22 -13 -22 -4 0 -10 -9 -13 -20 -4
-17 -14 -20 -56 -20 -45 0 -51 -3 -51 -20 0 -18 -3 -19 -21 -9 -18 9 -19 13
-8 21 11 8 10 9 -4 4 -12 -4 -42 11 -89 44 -83 59 -98 60 -217 24 -225 -67
-257 -77 -264 -84 -5 -4 76 -10 180 -13 152 -4 211 -10 308 -31 130 -28 165
-31 165 -16 0 6 -4 10 -10 10 -5 0 -10 6 -10 13 1 6 11 0 23 -15 13 -16 28
-28 34 -28 42 0 322 -168 401 -240 27 -24 37 -28 50 -19 16 10 16 10 0 5 -10
-3 -20 -1 -23 4 -4 6 -1 10 5 10 7 0 9 8 5 20 -4 11 -2 20 4 20 6 0 10 -5 9
-11 -2 -6 3 -14 10 -16 6 -3 12 0 12 6 0 6 7 11 16 11 11 0 14 -5 9 -17 -5
-15 -4 -16 6 -5 17 16 29 15 29 -3 0 -11 4 -13 18 -6 33 18 57 24 89 22 26 -2
32 1 27 12 -3 8 -1 18 5 22 10 5 15 -7 12 -27 0 -5 25 -9 56 -9 32 -1 79 -3
105 -5 l47 -3 1 225 0 225 -38 -5 -37 -5 38 10 c37 11 37 11 37 65 l0 54 -330
0 c-289 -1 -331 -3 -338 -17 -7 -11 -14 -13 -28 -5 -41 21 -88 22 -124 2z m90
-13 c28 -4 26 -4 -9 -3 -30 1 -46 6 -49 16 -4 12 -2 13 9 3 8 -6 30 -13 49
-16z m601 -96 c-8 -5 -20 -7 -28 -4 -21 8 -15 13 15 13 20 0 23 -3 13 -9z m62
-38 c-18 -2 -48 -2 -65 0 -18 2 -4 4 32 4 36 0 50 -2 33 -4z m-638 -42 c-3 -5
5 -12 17 -14 17 -3 14 -5 -9 -6 -33 -1 -45 13 -20 22 18 8 19 8 12 -2z m-45
-11 c0 -5 -4 -10 -9 -10 -5 0 -23 -3 -40 -6 -19 -4 -31 -2 -31 4 0 10 23 18
63 21 9 0 17 -3 17 -9z m380 -10 c11 -7 3 -10 -28 -10 -26 0 -41 4 -37 10 8
13 45 13 65 0z m-205 -59 c-15 -15 -95 -26 -95 -13 0 6 21 13 48 15 26 2 49 4
52 5 2 1 0 -2 -5 -7z m-156 -5 c-2 -2 -22 -6 -44 -9 -27 -4 -35 -3 -25 3 14 9
79 15 69 6z m288 -2 c-3 -3 -12 -4 -19 -1 -8 3 -5 6 6 6 11 1 17 -2 13 -5z
m-447 -24 c0 -5 -4 -10 -10 -10 -5 0 -10 5 -10 10 0 6 5 10 10 10 6 0 10 -4
10 -10z m253 0 c4 0 7 -7 7 -16 0 -15 -9 -16 -61 -10 -58 6 -61 5 -56 -15 4
-16 3 -18 -8 -9 -7 6 -20 7 -30 4 -13 -5 -16 -3 -13 7 2 8 14 15 26 17 12 2
22 10 22 19 0 13 9 14 53 9 28 -3 55 -6 60 -6z m157 -9 c0 -5 -9 -11 -20 -14
-22 -6 -28 8 -7 16 19 8 27 8 27 -2z m194 -6 c-6 -16 -24 -21 -24 -7 0 11 11
22 21 22 5 0 6 -7 3 -15z m-254 -29 c0 -8 -7 -16 -15 -20 -17 -6 -18 -4 -9 18
8 20 24 21 24 2z m320 10 c0 -8 -31 -36 -41 -36 -5 0 -1 9 8 20 16 18 33 26
33 16z m120 -56 c-8 -5 -22 -9 -30 -9 -10 0 -8 3 5 9 27 12 43 12 25 0z m-73
-6 c-3 -3 -12 -4 -19 -1 -8 3 -5 6 6 6 11 1 17 -2 13 -5z m-212 -25 c-10 -15
-25 -10 -19 6 4 8 10 12 15 9 5 -3 7 -10 4 -15z m250 -87 c-3 -3 -11 0 -18 7
-9 10 -8 11 6 5 10 -3 15 -9 12 -12z"/>
<path d="M40 1985 c14 -17 13 -18 -12 -11 -20 4 -28 3 -28 -6 0 -9 25 -13 88
-15 71 -1 79 0 45 7 -23 5 -56 16 -75 26 -32 16 -32 16 -18 -1z"/>
<path d="M80 1993 c0 -5 17 -9 38 -10 28 -1 32 1 17 7 -26 11 -55 12 -55 3z"/>
<path d="M710 1981 c0 -6 6 -13 13 -18 15 -10 197 -11 197 0 0 4 -45 7 -101 7
-64 0 -98 4 -94 10 3 6 1 10 -4 10 -6 0 -11 -4 -11 -9z"/>
<path d="M835 1840 c3 -5 -3 -10 -14 -10 -12 0 -21 -4 -21 -10 0 -14 42 -12
63 4 24 18 21 26 -9 26 -14 0 -23 -4 -19 -10z"/>
<path d="M352 1678 c-15 -15 -16 -32 -2 -23 6 3 10 1 10 -5 0 -6 -6 -10 -12
-9 -24 3 -38 -1 -38 -11 0 -5 3 -9 8 -8 4 0 15 -2 26 -7 10 -4 21 -4 25 2 3 6
16 15 29 22 l23 12 -25 20 c-29 22 -29 22 -44 7z"/>
<path d="M476 1678 c3 -5 14 -6 25 -3 10 4 19 3 19 -2 0 -5 9 -9 20 -10 11 -1
20 3 20 8 0 6 -4 7 -10 4 -5 -3 -10 -2 -10 3 0 5 -16 9 -35 9 -19 0 -32 -4
-29 -9z"/>
<path d="M230 1650 c6 -11 12 -20 14 -20 2 0 2 9 -1 20 -3 11 -9 20 -15 20 -5
0 -4 -9 2 -20z"/>
<path d="M278 1645 c2 -14 8 -23 12 -20 10 6 1 45 -10 45 -4 0 -5 -11 -2 -25z"/>
<path d="M451 1654 c0 -11 3 -14 6 -6 3 7 2 16 -1 19 -3 4 -6 -2 -5 -13z"/>
<path d="M597 1652 c-22 -24 -21 -29 2 -35 13 -3 18 0 15 8 -3 7 -1 16 5 20
13 7 15 25 3 25 -5 0 -16 -8 -25 -18z"/>
<path d="M502 1623 c22 -24 34 -30 23 -13 -3 6 -1 10 6 10 22 0 -8 23 -31 25
-20 2 -20 1 2 -22z"/>
<path d="M74 1618 c3 -15 26 -23 26 -8 0 6 -4 9 -9 6 -5 -4 -12 -1 -14 4 -3 6
-4 5 -3 -2z"/>
<path d="M752 1608 c3 -7 13 -15 24 -17 16 -3 17 -1 5 13 -16 19 -34 21 -29 4z"/>
<path d="M967 1609 c7 -7 15 -10 18 -7 3 3 -2 9 -12 12 -14 6 -15 5 -6 -5z"/>
<path d="M56 1582 c-8 -14 4 -72 16 -72 5 0 6 16 2 38 -8 43 -10 47 -18 34z"/>
<path d="M780 1573 c1 -18 18 -35 24 -24 4 6 4 16 1 21 -7 12 -25 13 -25 3z"/>
<path d="M4 1545 c-8 -19 2 -45 17 -45 8 0 8 4 -1 15 -7 8 -10 22 -6 30 3 8 3
15 0 15 -2 0 -7 -7 -10 -15z"/>
<path d="M477 1544 c3 -7 9 -14 14 -14 14 0 10 17 -5 23 -10 4 -13 1 -9 -9z"/>
<path d="M526 1545 c-3 -8 -1 -15 4 -15 13 0 22 18 11 24 -5 3 -11 -1 -15 -9z"/>
<path d="M120 1543 c0 -5 9 -14 20 -21 11 -7 20 -8 20 -2 0 5 -9 14 -20 20
-11 6 -20 7 -20 3z"/>
<path d="M250 1540 c-11 -7 -12 -12 -4 -20 8 -8 14 -7 23 4 14 17 1 28 -19 16z"/>
<path d="M200 1536 c0 -2 7 -7 16 -10 8 -3 12 -2 9 4 -6 10 -25 14 -25 6z"/>
<path d="M690 1525 c0 -9 5 -15 11 -13 6 2 11 8 11 13 0 5 -5 11 -11 13 -6 2
-11 -4 -11 -13z"/>
<path d="M298 1518 c9 -9 15 -9 24 0 9 9 7 12 -12 12 -19 0 -21 -3 -12 -12z"/>
<path d="M187 1509 c7 -7 15 -10 18 -7 3 3 -2 9 -12 12 -14 6 -15 5 -6 -5z"/>
<path d="M475 1491 c3 -11 0 -23 -6 -27 -9 -5 -10 -2 -6 9 4 10 2 17 -4 17 -7
0 -9 -9 -6 -21 3 -12 0 -28 -9 -36 -15 -16 -38 -8 -28 9 4 7 2 8 -5 4 -9 -6
-9 -11 -1 -21 7 -8 9 -19 5 -25 -16 -25 14 -7 35 23 13 17 32 38 41 45 20 14
15 42 -8 42 -10 0 -12 -6 -8 -19z"/>
<path d="M822 1495 c-17 -6 -37 -16 -44 -23 -21 -21 34 -13 61 9 30 24 25 28
-17 14z"/>
<path d="M62 1466 c7 -8 15 -12 17 -11 5 6 -10 25 -20 25 -5 0 -4 -6 3 -14z"/>
<path d="M630 1471 c0 -5 -10 -7 -22 -3 -21 5 -22 4 -9 -11 7 -9 25 -17 40
-16 14 0 21 3 14 5 -7 3 -9 12 -6 20 3 8 0 14 -6 14 -6 0 -11 -4 -11 -9z"/>
<path d="M252 1450 c-11 -18 -10 -20 11 -20 30 0 40 10 26 27 -15 18 -22 17
-37 -7z"/>
<path d="M0 1431 c0 -25 3 -28 25 -23 27 5 32 21 13 40 -21 21 -38 13 -38 -17z"/>
<path d="M746 1442 c-15 -25 -25 -62 -16 -62 6 0 10 7 10 16 0 11 6 14 20 9
12 -4 20 -2 20 5 0 16 -28 42 -34 32z"/>
<path d="M1592 1434 c-11 -12 0 -14 73 -14 47 0 85 4 85 9 0 5 -27 7 -61 5
-33 -3 -66 -1 -72 4 -8 7 -16 5 -25 -4z"/>
<path d="M1036 1431 c-4 -7 -5 -15 -2 -18 9 -9 19 4 14 18 -4 11 -6 11 -12 0z"/>
<path d="M1340 1430 c-9 -6 -10 -10 -3 -10 6 0 15 5 18 10 8 12 4 12 -15 0z"/>
<path d="M1370 1429 c0 -5 9 -9 20 -9 11 0 20 2 20 4 0 2 -9 6 -20 9 -11 3
-20 1 -20 -4z"/>
<path d="M1455 1430 c3 -5 8 -10 11 -10 2 0 4 5 4 10 0 6 -5 10 -11 10 -5 0
-7 -4 -4 -10z"/>
<path d="M790 1426 c0 -3 9 -10 20 -16 11 -6 20 -8 20 -6 0 3 -9 10 -20 16
-11 6 -20 8 -20 6z"/>
<path d="M385 1403 c6 -23 -10 -33 -17 -11 -5 14 -28 2 -28 -15 0 -8 3 -8 9 2
6 9 11 10 15 3 4 -6 -2 -16 -13 -21 -13 -7 -21 -8 -24 -1 -3 6 -4 5 -3 -2 4
-20 20 -18 50 6 24 20 27 26 17 42 -11 17 -11 17 -6 -3z"/>
<path d="M90 1400 c0 -5 5 -10 11 -10 5 0 7 5 4 10 -3 6 -8 10 -11 10 -2 0 -4
-4 -4 -10z"/>
<path d="M993 1383 c9 -9 19 -14 23 -11 10 10 -6 28 -24 28 -15 0 -15 -1 1
-17z"/>
<path d="M1080 1385 c0 -8 4 -15 9 -15 5 0 11 7 15 15 3 9 0 15 -9 15 -8 0
-15 -7 -15 -15z"/>
<path d="M745 1370 c-3 -5 -1 -10 4 -10 6 0 11 5 11 10 0 6 -2 10 -4 10 -3 0
-8 -4 -11 -10z"/>
<path d="M1340 1356 c0 -2 8 -10 18 -17 15 -13 16 -12 3 4 -13 16 -21 21 -21
13z"/>
<path d="M160 1340 c0 -5 5 -10 11 -10 5 0 7 5 4 10 -3 6 -8 10 -11 10 -2 0
-4 -4 -4 -10z"/>
<path d="M555 1340 c3 -5 21 -10 38 -10 24 0 28 3 17 10 -20 13 -63 13 -55 0z"/>
<path d="M1115 1333 c-16 -16 -16 -18 3 -34 12 -9 19 -19 16 -22 -3 -3 3 -3
15 0 29 7 37 41 14 58 -24 19 -28 18 -48 -2z m45 -33 c0 -5 -5 -10 -11 -10 -5
0 -7 5 -4 10 3 6 8 10 11 10 2 0 4 -4 4 -10z"/>
<path d="M144 1323 c16 -20 36 -23 36 -6 0 4 -3 3 -7 0 -3 -4 -16 1 -27 10
-21 18 -21 18 -2 -4z"/>
<path d="M258 1328 c-37 -13 -38 -38 -1 -32 31 6 63 22 63 32 0 11 -31 11 -62
0z"/>
<path d="M762 1328 c2 -6 10 -14 16 -16 7 -2 10 2 6 12 -7 18 -28 22 -22 4z"/>
<path d="M950 1310 c0 -16 80 -47 107 -42 13 2 23 8 23 13 0 4 -9 6 -20 4 -11
-2 -20 -1 -20 4 0 7 -59 31 -78 31 -7 0 -12 -5 -12 -10z"/>
<path d="M1386 1312 c-3 -5 14 -47 37 -95 35 -73 45 -86 62 -82 11 3 42 5 68
5 l48 0 -103 79 c-57 44 -102 84 -100 90 2 13 -5 15 -12 3z"/>
<path d="M1548 1313 c7 -3 16 -2 19 1 4 3 -2 6 -13 5 -11 0 -14 -3 -6 -6z"/>
<path d="M327 1289 c-4 -16 -3 -18 9 -8 16 13 19 29 5 29 -5 0 -11 -9 -14 -21z"/>
<path d="M497 1276 c-4 -10 -1 -13 9 -9 15 6 19 23 5 23 -5 0 -11 -7 -14 -14z"/>
<path d="M753 1280 c-13 -5 -23 -13 -23 -18 0 -14 29 -36 37 -28 4 3 -2 12
-12 19 -16 12 -15 14 14 14 17 0 31 -3 31 -7 0 -4 7 -7 17 -7 13 0 11 4 -7 19
-25 20 -26 20 -57 8z"/>
<path d="M830 1286 c0 -2 8 -10 18 -17 15 -13 16 -12 3 4 -13 16 -21 21 -21
13z"/>
<path d="M1205 1280 c-3 -5 -1 -10 5 -10 6 0 8 -5 4 -12 -5 -8 -2 -9 10 -5 10
4 20 7 22 7 2 0 4 4 4 10 0 5 -7 6 -17 3 -11 -4 -14 -3 -9 5 4 7 3 12 -3 12
-5 0 -13 -4 -16 -10z"/>
<path d="M367 1259 c7 -7 15 -10 18 -7 3 3 -2 9 -12 12 -14 6 -15 5 -6 -5z"/>
<path d="M607 1263 c-4 -3 -7 -11 -7 -17 0 -6 4 -5 9 2 7 11 9 11 14 -2 3 -8
3 -17 -1 -20 -12 -7 -53 14 -47 24 9 15 -2 12 -30 -6 -14 -9 -47 -17 -75 -17
-47 -1 -49 -2 -25 -14 13 -7 51 -16 85 -20 52 -5 60 -4 60 11 0 9 5 16 10 16
6 0 10 -7 10 -15 0 -8 4 -15 10 -15 5 0 7 7 4 15 -4 8 1 17 10 21 12 5 13 10
5 25 -10 20 -21 24 -32 12z"/>
<path d="M1680 1250 c0 -4 11 -10 25 -12 14 -3 25 -2 25 2 0 4 -11 10 -25 12
-14 3 -25 2 -25 -2z"/>
<path d="M155 1230 c-3 -5 -17 -10 -30 -10 -28 0 -43 -19 -24 -31 9 -5 21 -1
35 12 12 11 27 19 34 17 7 -2 15 3 17 10 6 14 -23 17 -32 2z"/>
<path d="M867 1227 c-9 -25 -10 -24 11 -29 10 -3 24 2 32 10 12 13 11 15 -8
10 -14 -4 -22 -1 -24 11 -3 14 -5 14 -11 -2z"/>
<path d="M1510 1230 c18 -12 30 -13 30 -2 0 4 -10 9 -22 9 -18 2 -20 0 -8 -7z"/>
<path d="M1160 1219 c0 -5 5 -7 10 -4 6 3 10 8 10 11 0 2 -4 4 -10 4 -5 0 -10
-5 -10 -11z"/>
<path d="M10 1210 c0 -5 7 -10 16 -10 8 0 12 5 9 10 -3 6 -10 10 -16 10 -5 0
-9 -4 -9 -10z"/>
<path d="M220 1205 c-7 -8 -16 -13 -20 -10 -10 6 -60 -15 -60 -26 0 -4 6 -10
13 -13 6 -3 0 -5 -15 -3 -21 3 -30 -2 -44 -29 -10 -18 -22 -30 -27 -27 -6 3
-7 1 -3 -5 5 -8 15 -8 33 -1 14 5 28 7 31 4 3 -2 11 0 19 6 7 6 13 9 13 6 0
-4 9 -3 21 1 11 5 20 11 20 15 -2 14 30 67 39 67 6 0 10 7 10 15 0 19 -14 19
-30 0z"/>
<path d="M273 1193 c-3 -10 -8 -21 -10 -25 -2 -5 0 -8 5 -8 5 0 12 9 15 20 4
14 11 18 24 14 15 -5 15 -4 3 5 -21 15 -30 14 -37 -6z"/>
<path d="M797 1174 c-20 -27 -14 -32 10 -9 8 8 13 19 11 24 -2 5 -11 -2 -21
-15z"/>
<path d="M950 1175 c0 -5 5 -17 10 -25 5 -8 10 -10 10 -5 0 6 -5 17 -10 25 -5
8 -10 11 -10 5z"/>
<path d="M1275 1170 c3 -5 8 -10 11 -10 2 0 4 5 4 10 0 6 -5 10 -11 10 -5 0
-7 -4 -4 -10z"/>
<path d="M1648 1173 c6 -2 18 -2 25 0 6 3 1 5 -13 5 -14 0 -19 -2 -12 -5z"/>
<path d="M30 1160 c0 -5 5 -10 11 -10 5 0 7 5 4 10 -3 6 -8 10 -11 10 -2 0 -4
-4 -4 -10z"/>
<path d="M1156 1158 c3 -5 10 -6 15 -3 13 9 11 12 -6 12 -8 0 -12 -4 -9 -9z"/>
<path d="M356 1144 c-5 -14 -4 -15 9 -4 17 14 19 20 6 20 -5 0 -12 -7 -15 -16z"/>
<path d="M550 1150 c0 -5 -7 -10 -16 -10 -20 0 -15 -42 6 -48 12 -4 13 -2 3 9
-19 19 -16 31 6 24 16 -5 18 -2 14 15 -6 21 -13 27 -13 10z"/>
<path d="M677 1146 c-3 -7 -1 -19 3 -26 7 -11 11 -11 23 -1 12 9 16 9 21 -1 3
-7 5 -5 3 6 -3 23 -43 41 -50 22z"/>
<path d="M1610 1145 c0 -9 78 -44 84 -37 4 3 3 -5 -2 -18 -5 -14 -5 -39 1 -62
11 -43 1 -148 -14 -148 -6 0 -7 5 -3 12 4 7 3 8 -5 4 -9 -6 -9 -11 0 -22 9
-11 8 -14 -5 -14 -9 0 -16 -5 -16 -11 0 -5 5 -7 11 -3 7 4 10 1 7 -7 -3 -8
-13 -15 -24 -17 -13 -2 -15 0 -7 6 10 6 10 12 -2 28 -19 25 -19 40 0 24 11 -9
15 -9 15 -1 0 6 -7 14 -16 18 -8 3 -13 12 -10 19 3 8 0 11 -10 7 -9 -3 -14
-13 -11 -22 4 -17 -17 -44 -26 -34 -4 3 -9 -6 -12 -20 -4 -16 -12 -24 -20 -21
-7 3 -16 -4 -20 -15 -7 -24 -16 -26 -33 -9 -16 16 -16 -4 1 -22 6 -8 3 -7 -9
3 -16 13 -23 14 -34 4 -10 -10 -12 -9 -6 6 4 13 2 17 -6 15 -7 -3 -14 -15 -16
-27 -2 -14 -9 -21 -17 -17 -19 7 -31 -14 -15 -24 9 -6 8 -11 -6 -19 -16 -11
-15 -11 11 -6 26 5 28 5 14 -7 -25 -20 -29 -55 -10 -72 10 -9 20 -14 22 -12 8
8 4 -79 -4 -91 -5 -7 -17 -13 -27 -13 -32 0 -134 67 -152 99 -9 17 -25 31 -36
31 -10 0 -22 4 -28 10 -5 5 -32 12 -59 16 -28 3 -45 2 -39 -3 18 -14 64 -87
64 -102 0 -8 -12 4 -27 27 -30 46 -41 51 -49 25 -3 -10 -11 -29 -17 -43 -6
-14 -10 -29 -8 -33 1 -5 -8 -6 -19 -2 -16 5 -20 2 -21 -17 -1 -17 -3 -18 -6
-5 -2 9 -8 17 -13 17 -21 0 -20 35 2 52 l23 17 -22 -6 c-33 -8 -28 3 9 21 39
20 36 20 41 -6 2 -13 4 -6 3 15 -1 32 -4 37 -21 35 -11 -2 -21 -9 -21 -15 -3
-24 -4 -25 -19 -13 -10 9 -15 9 -15 1 0 -6 -8 -11 -17 -12 -11 0 -13 -3 -5 -6
20 -8 14 -20 -15 -28 -21 -5 -24 -8 -12 -15 8 -6 15 -6 17 0 2 6 8 10 14 10 7
0 7 -5 -1 -13 -7 -10 -27 -12 -66 -9 -30 2 -55 0 -55 -5 0 -5 -23 -8 -51 -8
-39 0 -54 -4 -63 -17 -14 -23 -30 -23 -21 0 4 11 3 14 -3 7 -6 -5 -15 -28 -21
-50 -9 -35 -8 -38 4 -21 7 10 19 15 24 11 6 -3 14 2 17 12 14 45 23 58 17 26
-4 -23 0 -37 13 -50 17 -17 17 -17 11 0 -7 20 3 22 22 4 10 -10 11 -9 6 3 -3
10 5 26 21 40 15 14 24 19 20 12 -4 -7 0 -24 9 -38 16 -25 16 -27 -6 -50 -19
-20 -31 -24 -58 -20 -27 3 -39 -1 -53 -16 -10 -12 -24 -18 -33 -14 -9 3 -25 2
-34 -4 -10 -5 -33 -12 -51 -15 -45 -8 -80 -27 -60 -33 7 -3 16 0 18 6 2 7 8
12 13 12 4 0 6 -7 3 -15 -7 -17 -35 -20 -51 -4 -7 7 -15 6 -26 -5 -9 -9 -22
-16 -29 -16 -10 0 -9 3 2 10 13 9 13 10 -1 10 -8 0 -24 -7 -35 -15 -10 -8 -35
-14 -54 -14 -28 0 -31 2 -15 9 17 7 18 9 4 14 -8 4 -40 -5 -70 -19 -48 -22
-67 -25 -171 -25 l-118 0 0 -145 0 -145 304 0 c306 0 430 6 420 21 -6 10 61
23 75 14 7 -3 8 0 5 9 -8 22 34 21 58 -1 10 -9 21 -13 25 -9 4 4 1 11 -6 16
-29 18 34 16 71 -2 37 -18 88 -16 88 3 0 5 8 9 18 8 10 0 12 -3 5 -6 -30 -11
-8 -18 57 -18 51 1 76 6 90 18 24 21 28 21 46 3 13 -14 54 -11 64 5 3 4 12 4
20 -2 13 -7 13 -10 1 -18 -9 -6 -10 -11 -2 -15 13 -9 33 2 26 14 -3 4 3 14 13
21 9 7 14 9 10 5 -14 -16 14 -36 48 -36 19 0 33 4 31 9 -1 5 1 9 6 10 26 4 28
-1 8 -16 -16 -11 -41 -16 -73 -14 -27 1 -48 -2 -48 -8 0 -7 50 -10 139 -9 135
1 139 2 150 24 8 19 7 22 -4 17 -8 -3 -15 0 -15 6 0 14 15 14 59 1 24 -7 39
-6 48 1 19 16 17 104 -3 134 -15 23 -15 25 0 25 9 0 16 4 16 10 0 16 -34 28
-55 19 -19 -7 -19 -8 3 -8 12 -1 22 -6 22 -12 0 -6 -8 -8 -19 -4 -13 4 -23 0
-30 -12 -9 -16 -10 -15 -11 8 0 22 -4 25 -40 27 -25 2 -40 -2 -40 -9 0 -6 6
-9 13 -6 15 5 57 -9 57 -20 0 -15 -60 -6 -78 10 -24 22 -54 23 -46 2 5 -12 -3
-15 -40 -15 -27 0 -46 -5 -46 -11 0 -8 -4 -8 -14 0 -17 14 -68 4 -60 -13 3 -6
-1 -4 -8 6 -9 11 -23 14 -42 11 -28 -6 -27 -7 21 -27 29 -12 48 -26 46 -33 -3
-7 1 -13 7 -13 7 0 6 -6 -4 -15 -15 -16 -106 -22 -106 -7 0 4 -9 8 -20 8 -11
0 -20 -4 -20 -9 0 -5 -7 -6 -15 -3 -8 3 -21 9 -29 12 -10 4 -12 -2 -8 -22 3
-19 1 -25 -7 -20 -6 4 -9 12 -6 17 4 5 -15 9 -42 9 -37 0 -45 -3 -33 -11 12
-9 11 -9 -5 -4 -43 15 -58 18 -52 9 3 -5 -3 -10 -13 -10 -10 0 -16 4 -14 8 3
4 -1 9 -8 9 -58 5 -84 11 -93 21 -7 8 -7 9 1 5 7 -4 17 0 24 8 16 19 30 19 30
1 0 -7 11 -16 25 -18 13 -3 22 -1 19 3 -3 5 -12 9 -20 9 -8 0 -14 4 -14 9 0
14 44 19 97 11 28 -5 53 -4 60 2 7 5 18 6 25 1 15 -9 198 -11 198 -2 0 12 -27
18 -50 12 -13 -4 -26 0 -31 8 -8 12 -12 11 -23 -3 -11 -15 -17 -16 -44 -6 -42
16 -40 25 8 33 38 6 65 24 38 26 -7 0 7 8 32 19 25 10 44 23 43 29 -2 6 9 11
23 11 14 0 23 4 19 9 -3 5 0 13 7 17 21 13 270 15 285 2 12 -10 18 0 14 24 0
5 15 8 34 8 l35 0 0 348 c-1 353 -4 382 -39 382 -6 0 -11 7 -11 15 0 8 5 15
11 15 5 0 7 5 4 10 -3 6 -2 10 3 10 5 0 13 -10 17 -22 l8 -23 4 24 c6 29 -18
51 -47 44 -11 -3 -28 -2 -37 2 -24 11 -53 16 -53 10z m-20 -305 c0 -5 -4 -10
-10 -10 -5 0 -10 5 -10 10 0 6 5 10 10 10 6 0 10 -4 10 -10z m-30 -50 c0 -5
-2 -10 -4 -10 -3 0 -8 5 -11 10 -3 6 -1 10 4 10 6 0 11 -4 11 -10z m-90 -19
c0 -5 -7 -12 -16 -15 -14 -5 -15 -4 -4 9 14 17 20 19 20 6z m53 -6 c-3 -9 -8
-14 -10 -11 -3 3 -2 9 2 15 9 16 15 13 8 -4z m107 1 c0 -3 -4 -8 -10 -11 -5
-3 -10 -1 -10 4 0 6 5 11 10 11 6 0 10 -2 10 -4z m-190 -122 c0 -1 -9 0 -20 3
-11 3 -20 12 -20 19 0 11 5 10 20 -3 11 -10 20 -18 20 -19z m-595 -94 c3 -5 1
-10 -4 -10 -6 0 -11 5 -11 10 0 6 2 10 4 10 3 0 8 -4 11 -10z m111 1 c-4 -5 0
-11 6 -14 7 -2 9 -8 5 -13 -4 -5 -12 -2 -17 6 -13 20 -12 30 1 30 5 0 8 -4 5
-9z m-66 -11 c0 -5 -4 -10 -10 -10 -5 0 -10 5 -10 10 0 6 5 10 10 10 6 0 10
-4 10 -10z m-32 -55 c-3 -3 -9 2 -12 12 -6 14 -5 15 5 6 7 -7 10 -15 7 -18z
m857 -295 c-3 -5 -11 -10 -16 -10 -6 0 -7 5 -4 10 3 6 11 10 16 10 6 0 7 -4 4
-10z m-81 -9 c3 -5 -3 -11 -15 -14 -16 -4 -18 -3 -8 9 13 16 16 17 23 5z m-24
-46 c10 -13 9 -15 -9 -15 -12 0 -20 4 -17 9 4 5 0 12 -6 14 -9 4 -7 6 3 6 9 1
22 -6 29 -14z m-160 -9 c0 -2 -7 -9 -15 -16 -13 -11 -14 -10 -9 4 5 14 24 23
24 12z m210 -16 c0 -5 -5 -10 -11 -10 -5 0 -7 5 -4 10 3 6 8 10 11 10 2 0 4
-4 4 -10z m-747 -27 c-7 -2 -19 -2 -25 0 -7 3 -2 5 12 5 14 0 19 -2 13 -5z
m77 -12 c0 -6 -4 -12 -8 -15 -5 -3 -9 1 -9 9 0 8 4 15 9 15 4 0 8 -4 8 -9z
m550 -15 c0 -8 -7 -16 -15 -20 -13 -4 -14 -2 -5 14 13 23 20 26 20 6z m35 3
c4 -6 13 -8 21 -5 7 3 16 1 19 -4 4 -6 -8 -10 -25 -10 -17 0 -29 4 -26 9 4 5
0 12 -6 14 -9 4 -10 6 -1 6 6 1 15 -4 18 -10z m-148 -5 c-3 -3 -12 -4 -19 -1
-8 3 -5 6 6 6 11 1 17 -2 13 -5z m178 -34 c3 -5 1 -10 -4 -10 -6 0 -11 5 -11
10 0 6 2 10 4 10 3 0 8 -4 11 -10z"/>
<path d="M875 1130 c3 -5 14 -10 23 -10 15 0 15 2 2 10 -20 13 -33 13 -25 0z"/>
<path d="M395 1110 c3 -5 10 -10 16 -10 5 0 9 5 9 10 0 6 -7 10 -16 10 -8 0
-12 -4 -9 -10z"/>
<path d="M1240 1110 c0 -5 5 -10 11 -10 5 0 7 5 4 10 -3 6 -8 10 -11 10 -2 0
-4 -4 -4 -10z"/>
<path d="M944 1085 c-4 -8 -10 -13 -14 -10 -5 3 -11 1 -15 -5 -3 -5 -2 -10 4
-10 17 0 61 23 61 32 0 14 -30 9 -36 -7z"/>
<path d="M1165 1090 c-4 -6 8 -10 30 -10 22 0 34 4 30 10 -3 6 -17 10 -30 10
-13 0 -27 -4 -30 -10z"/>
<path d="M147 1083 c-4 -3 -7 -11 -7 -17 0 -6 5 -5 12 2 6 6 9 14 7 17 -3 3
-9 2 -12 -2z"/>
<path d="M1400 1076 c0 -2 7 -9 15 -16 9 -7 15 -8 15 -2 0 5 -7 12 -15 16 -8
3 -15 4 -15 2z"/>
<path d="M1487 1063 c-12 -12 -7 -22 8 -17 8 4 15 10 15 15 0 11 -14 12 -23 2z"/>
<path d="M1354 1036 c-8 -8 -8 -18 -2 -29 10 -19 17 -21 37 -8 11 7 10 12 -5
29 -15 16 -21 17 -30 8z m21 -15 c3 -5 1 -12 -5 -16 -5 -3 -10 1 -10 9 0 18 6
21 15 7z"/>
<path d="M45 1030 c-3 -5 -2 -10 4 -10 5 0 13 5 16 10 3 6 2 10 -4 10 -5 0
-13 -4 -16 -10z"/>
<path d="M280 1031 c0 -6 17 -13 38 -17 20 -4 40 -12 44 -18 5 -6 8 -2 8 10 0
17 -7 21 -35 22 -20 1 -40 4 -45 7 -6 4 -10 2 -10 -4z"/>
<path d="M735 1030 c3 -5 8 -10 11 -10 2 0 4 5 4 10 0 6 -5 10 -11 10 -5 0 -7
-4 -4 -10z"/>
<path d="M11 1006 c-16 -19 -11 -29 8 -17 7 5 12 14 9 21 -3 9 -8 7 -17 -4z"/>
<path d="M170 1009 c0 -5 -6 -7 -12 -3 -7 4 -10 3 -5 -1 4 -5 16 -9 27 -10 15
-1 17 1 9 12 -14 16 -19 17 -19 2z"/>
<path d="M525 998 c-21 -12 -35 -28 -35 -40 0 -5 8 0 18 10 10 9 27 22 38 29
24 15 6 16 -21 1z"/>
<path d="M731 994 c0 -11 3 -14 6 -6 3 7 2 16 -1 19 -3 4 -6 -2 -5 -13z"/>
<path d="M1105 1000 c3 -5 8 -10 11 -10 2 0 4 5 4 10 0 6 -5 10 -11 10 -5 0
-7 -4 -4 -10z"/>
<path d="M1310 998 c0 -7 4 -19 9 -27 11 -17 23 1 15 23 -7 19 -24 21 -24 4z"/>
<path d="M1425 1000 c-3 -5 1 -10 9 -10 8 0 18 5 21 10 3 6 -1 10 -9 10 -8 0
-18 -4 -21 -10z"/>
<path d="M576 985 c-3 -8 -1 -15 3 -15 5 0 11 5 13 12 3 7 9 8 19 3 8 -5 22
-8 32 -7 10 2 29 -3 42 -12 20 -13 24 -13 29 -1 7 20 -2 23 -71 30 -49 4 -62
2 -67 -10z"/>
<path d="M795 990 c-3 -5 1 -10 10 -10 9 0 13 5 10 10 -3 6 -8 10 -10 10 -2 0
-7 -4 -10 -10z"/>
<path d="M1470 990 c-8 -5 -10 -10 -5 -10 6 0 17 5 25 10 8 5 11 10 5 10 -5 0
-17 -5 -25 -10z"/>
<path d="M350 971 c0 -6 13 -11 29 -11 17 0 33 -4 36 -10 3 -5 18 -10 33 -10
16 0 22 -3 15 -8 -8 -5 10 -17 47 -34 33 -14 60 -23 60 -18 0 4 -10 10 -21 13
-16 4 -20 11 -16 27 3 12 1 20 -6 19 -24 -3 -36 1 -53 18 -20 20 -124 32 -124
14z"/>
<path d="M1066 972 c5 -5 22 -14 37 -20 26 -11 27 -11 17 8 -7 12 -21 20 -37
20 -15 0 -23 -4 -17 -8z"/>
<path d="M1410 970 c0 -6 -4 -8 -10 -5 -5 3 -10 -3 -10 -14 0 -11 5 -23 12
-27 7 -4 8 -3 4 5 -4 6 1 14 12 19 17 6 18 9 6 20 -9 8 -14 9 -14 2z"/>
<path d="M247 945 c-30 -28 -34 -40 -14 -48 7 -2 25 13 40 34 33 45 17 53 -26
14z"/>
<path d="M525 960 c-3 -5 1 -10 10 -10 9 0 13 5 10 10 -3 6 -8 10 -10 10 -2 0
-7 -4 -10 -10z"/>
<path d="M1172 944 c10 -10 20 -16 22 -13 3 3 -5 11 -17 18 -21 13 -21 12 -5
-5z"/>
<path d="M760 940 c0 -5 7 -10 16 -10 8 0 12 5 9 10 -3 6 -10 10 -16 10 -5 0
-9 -4 -9 -10z"/>
<path d="M355 930 c28 -12 47 -12 40 0 -3 6 -18 10 -33 9 -24 0 -25 -1 -7 -9z"/>
<path d="M1245 931 c-18 -7 -17 -9 8 -26 31 -20 52 -10 41 18 -7 18 -18 20
-49 8z"/>
<path d="M640 923 c0 -15 18 -35 27 -32 5 2 1 12 -9 22 -10 9 -18 14 -18 10z"/>
<path d="M1137 919 c7 -7 15 -10 18 -7 3 3 -2 9 -12 12 -14 6 -15 5 -6 -5z"/>
<path d="M1468 903 c7 -3 16 -2 19 1 4 3 -2 6 -13 5 -11 0 -14 -3 -6 -6z"/>
<path d="M217 875 c3 -8 9 -12 14 -9 12 7 11 11 -5 17 -10 4 -13 1 -9 -8z"/>
<path d="M817 883 c-10 -9 -9 -23 2 -23 5 0 11 7 15 15 5 15 -5 20 -17 8z"/>
<path d="M52 864 c9 -9 28 -14 44 -12 27 3 25 4 -15 15 -39 10 -42 10 -29 -3z"/>
<path d="M1290 865 c0 -1 6 -8 14 -14 10 -8 16 -8 25 3 9 11 7 14 -14 14 -14
0 -25 -2 -25 -3z"/>
<path d="M178 853 c6 -2 18 -2 25 0 6 3 1 5 -13 5 -14 0 -19 -2 -12 -5z"/>
<path d="M350 850 c-25 -6 -25 -6 -3 -12 13 -3 26 -2 29 4 9 14 2 16 -26 8z"/>
<path d="M970 810 c0 -25 4 -40 8 -35 4 6 14 10 22 10 9 0 14 10 13 28 -2 41
-3 43 -13 27 -9 -13 -11 -13 -20 0 -7 11 -10 3 -10 -30z"/>
<path d="M731 828 c-1 -10 -7 -18 -13 -19 -7 0 -3 -4 10 -9 28 -12 52 -3 45
16 -3 9 -11 13 -19 10 -7 -3 -15 0 -18 7 -2 7 -5 4 -5 -5z"/>
<path d="M460 819 c0 -5 5 -7 10 -4 6 3 10 8 10 11 0 2 -4 4 -10 4 -5 0 -10
-5 -10 -11z"/>
<path d="M1500 820 c0 -5 5 -10 11 -10 5 0 7 5 4 10 -3 6 -8 10 -11 10 -2 0
-4 -4 -4 -10z"/>
<path d="M7 779 c6 -23 9 -24 16 -5 3 8 0 17 -7 19 -10 4 -12 -1 -9 -14z"/>
<path d="M330 790 c-13 -8 -12 -10 3 -10 9 0 17 5 17 10 0 12 -1 12 -20 0z"/>
<path d="M205 760 c-3 -5 -2 -10 4 -10 5 0 13 5 16 10 3 6 2 10 -4 10 -5 0
-13 -4 -16 -10z"/>
<path d="M386 753 c-11 -11 6 -23 30 -23 14 0 23 4 20 9 -7 11 -43 21 -50 14z"/>
<path d="M85 730 c-3 -6 1 -7 9 -4 18 7 21 14 7 14 -6 0 -13 -4 -16 -10z"/>
<path d="M781 717 c-15 -28 -8 -61 12 -54 6 2 11 12 11 21 -1 9 2 16 7 16 5 0
9 5 9 11 0 5 -4 8 -9 4 -5 -3 -11 2 -13 11 -2 13 -6 11 -17 -9z"/>
<path d="M890 730 c0 -5 4 -10 9 -10 6 0 13 5 16 10 3 6 -1 10 -9 10 -9 0 -16
-4 -16 -10z"/>
<path d="M0 720 c0 -5 4 -10 9 -10 6 0 13 5 16 10 3 6 -1 10 -9 10 -9 0 -16
-4 -16 -10z"/>
<path d="M260 714 c0 -8 5 -12 10 -9 6 3 10 10 10 16 0 5 -4 9 -10 9 -5 0 -10
-7 -10 -16z"/>
<path d="M293 700 c-11 -16 -10 -18 2 -14 8 4 15 12 15 20 0 19 -3 18 -17 -6z"/>
<path d="M475 711 c-9 -16 9 -20 23 -5 10 12 10 14 -2 14 -8 0 -17 -4 -21 -9z"/>
<path d="M552 708 c-14 -14 -16 -28 -2 -28 5 0 14 9 20 20 12 22 1 27 -18 8z"/>
<path d="M225 700 c3 -5 8 -10 11 -10 2 0 4 5 4 10 0 6 -5 10 -11 10 -5 0 -7
-4 -4 -10z"/>
<path d="M607 684 c-9 -10 4 -34 19 -34 16 0 16 2 8 24 -6 17 -16 20 -27 10z"/>
<path d="M185 670 c3 -5 13 -10 21 -10 8 0 14 5 14 10 0 6 -9 10 -21 10 -11 0
-17 -4 -14 -10z"/>
<path d="M845 669 c-4 -6 -4 -13 -1 -16 8 -8 36 5 36 17 0 13 -27 13 -35 -1z"/>
<path d="M3 615 c-2 -48 0 -55 16 -55 10 0 25 -9 32 -19 15 -21 108 -35 109
-16 0 6 -9 10 -19 10 -10 1 -25 6 -32 12 -8 6 -18 11 -24 11 -5 0 -14 9 -20
21 -5 11 -15 21 -21 21 -18 0 -37 27 -24 35 5 3 10 2 10 -3 0 -6 16 -10 35
-10 20 0 32 4 29 10 -3 5 -17 7 -30 4 -17 -5 -26 -1 -34 14 -18 33 -25 23 -27
-35z"/>
<path d="M498 656 c-10 -7 -15 -16 -12 -19 7 -7 44 14 44 25 0 12 -13 9 -32
-6z"/>
<path d="M421 636 c-14 -8 -26 -21 -27 -31 -2 -15 0 -15 14 -3 9 8 27 13 40
12 25 -1 24 -2 16 20 -7 19 -12 19 -43 2z"/>
<path d="M745 637 c-16 -13 -15 -14 13 -9 18 2 29 8 26 13 -7 12 -17 11 -39
-4z"/>
<path d="M269 621 c6 -10 21 -25 35 -34 22 -15 24 -15 19 3 -3 11 -11 16 -20
13 -9 -4 -16 2 -20 16 -3 11 -9 21 -15 21 -5 0 -5 -8 1 -19z"/>
<path d="M358 633 c7 -3 16 -2 19 1 4 3 -2 6 -13 5 -11 0 -14 -3 -6 -6z"/>
<path d="M865 630 c-3 -5 1 -10 9 -10 8 0 18 5 21 10 3 6 -1 10 -9 10 -8 0
-18 -4 -21 -10z"/>
<path d="M638 623 c7 -3 16 -2 19 1 4 3 -2 6 -13 5 -11 0 -14 -3 -6 -6z"/>
<path d="M420 590 c-8 -5 -10 -10 -5 -10 6 0 17 5 25 10 8 5 11 10 5 10 -5 0
-17 -5 -25 -10z"/>
<path d="M420 550 c0 -5 7 -7 15 -4 8 4 15 8 15 10 0 2 -7 4 -15 4 -8 0 -15
-4 -15 -10z"/>
<path d="M270 530 c0 -5 5 -10 10 -10 6 0 10 5 10 10 0 6 -4 10 -10 10 -5 0
-10 -4 -10 -10z"/>
<path d="M625 522 c0 -10 4 -23 8 -29 4 -6 1 -13 -5 -16 -7 -2 -10 -8 -5 -12
8 -10 18 -2 21 17 1 7 5 18 8 23 8 12 -2 29 -18 32 -6 1 -10 -6 -9 -15z"/>
<path d="M590 515 c-7 -9 -8 -15 -2 -15 5 0 12 7 16 15 3 8 4 15 2 15 -2 0 -9
-7 -16 -15z"/>
<path d="M787 504 c-3 -4 0 -13 8 -20 18 -18 31 -18 16 -1 -6 8 -8 17 -4 20 3
4 2 7 -4 7 -5 0 -12 -3 -16 -6z"/>
<path d="M50 486 c0 -2 7 -7 16 -10 8 -3 12 -2 9 4 -6 10 -25 14 -25 6z"/>
<path d="M103 463 c29 -8 20 -26 -10 -19 -23 5 -25 4 -10 -5 10 -6 25 -8 33
-5 8 3 14 0 14 -6 0 -6 3 -9 6 -5 13 13 -8 47 -29 46 -17 -1 -18 -2 -4 -6z"/>
<path d="M140 460 c0 -5 5 -10 10 -10 6 0 10 5 10 10 0 6 -4 10 -10 10 -5 0
-10 -4 -10 -10z"/>
<path d="M182 445 c0 -16 2 -22 5 -12 2 9 2 23 0 30 -3 6 -5 -1 -5 -18z"/>
<path d="M205 460 c-3 -5 0 -10 9 -10 8 0 17 -6 19 -12 4 -8 6 -9 6 -2 1 18
-26 37 -34 24z"/>
<path d="M320 450 c-6 -11 -9 -20 -8 -20 2 0 11 9 21 20 9 11 13 20 7 20 -5 0
-14 -9 -20 -20z"/>
<path d="M370 455 c0 -8 4 -15 10 -15 5 0 7 7 4 15 -4 8 -8 15 -10 15 -2 0 -4
-7 -4 -15z"/>
<path d="M0 429 c0 -5 5 -7 10 -4 5 3 10 8 10 11 0 2 -4 4 -10 4 -5 0 -10 -5
-10 -11z"/>
<path d="M340 436 c0 -2 8 -10 18 -17 15 -13 16 -12 3 4 -13 16 -21 21 -21 13z"/>
<path d="M395 330 c-3 -5 -1 -10 4 -10 6 0 11 5 11 10 0 6 -2 10 -4 10 -3 0
-8 -4 -11 -10z"/>
<path d="M1698 293 c7 -3 16 -2 19 1 4 3 -2 6 -13 5 -11 0 -14 -3 -6 -6z"/>
<path d="M1475 220 c-3 -6 1 -7 9 -4 18 7 21 14 7 14 -6 0 -13 -4 -16 -10z"/>
<path d="M1105 110 c28 -12 37 -12 30 0 -3 6 -16 10 -28 9 -21 0 -21 -1 -2 -9z"/>
<path d="M1345 110 c-3 -5 -1 -10 4 -10 6 0 11 5 11 10 0 6 -2 10 -4 10 -3 0
-8 -4 -11 -10z"/>
<path d="M910 36 c0 -8 -6 -17 -12 -19 -8 -3 -6 -6 5 -6 11 -1 17 6 17 19 0
11 -2 20 -5 20 -3 0 -5 -6 -5 -14z"/>
<path d="M1220 40 c0 -5 7 -10 15 -10 8 0 15 5 15 10 0 6 -7 10 -15 10 -8 0
-15 -4 -15 -10z"/>
<path d="M1674 24 c3 -9 6 -18 6 -20 0 -12 19 -1 23 14 4 15 5 15 6 0 1 -11 7
-15 21 -11 29 8 24 20 -11 27 -46 9 -52 8 -45 -10z"/>
<path d="M1175 11 c-3 -5 8 -9 25 -9 21 1 27 4 18 9 -17 11 -35 11 -43 0z"/>
<path d="M1265 10 c3 -5 20 -10 36 -10 18 0 28 4 24 10 -3 6 -20 10 -36 10
-18 0 -28 -4 -24 -10z"/>
</g>
</svg>
