<?xml version="1.0" standalone="no"?>
<!DOCTYPE svg PUBLIC "-//W3C//DTD SVG 20010904//EN"
 "http://www.w3.org/TR/2001/REC-SVG-20010904/DTD/svg10.dtd">
<svg version="1.0" xmlns="http://www.w3.org/2000/svg"
 width="175.000000pt" height="203.000000pt" viewBox="0 0 175.000000 203.000000"
 preserveAspectRatio="xMidYMid meet">

<g transform="translate(0.000000,203.000000) scale(0.100000,-0.100000)"
fill="#000000" stroke="none">
<path d="M862 2015 c-35 -19 -40 -28 -9 -21 21 5 27 3 27 -10 0 -15 -8 -16
-60 -11 -33 4 -60 3 -60 -2 0 -5 33 -11 73 -14 39 -3 86 -8 102 -12 23 -5 26
-4 15 4 -13 10 -13 12 0 20 23 15 4 24 -21 11 -19 -11 -25 -10 -36 6 -17 24
-17 40 1 25 8 -7 53 -14 101 -16 85 -5 125 -16 125 -35 0 -6 -9 -10 -20 -10
-11 0 -20 -4 -20 -10 0 -5 13 -10 28 -10 15 0 34 -6 40 -12 10 -10 17 -10 31
-1 25 16 195 14 256 -2 47 -13 40 -14 -135 -15 -184 -1 -330 -14 -341 -31 -3
-5 -31 -6 -67 -1 -67 9 -72 8 -72 -20 0 -10 -4 -18 -10 -18 -5 0 -10 7 -10 15
0 11 -11 15 -40 15 -34 0 -40 -3 -40 -21 0 -19 4 -20 36 -14 27 5 35 3 32 -7
-3 -7 -21 -16 -41 -19 -33 -5 -37 -3 -38 15 0 21 -1 21 -8 1 -5 -11 -7 -28 -5
-38 4 -22 -11 -15 -119 60 -44 30 -89 53 -104 53 -14 0 -86 -18 -161 -41 -76
-22 -168 -50 -207 -61 -38 -11 -74 -24 -79 -28 -5 -5 87 -9 205 -9 190 0 229
-3 344 -26 175 -35 441 -122 485 -160 60 -50 180 -100 180 -74 0 4 11 6 25 5
16 0 23 -6 20 -14 -3 -9 4 -11 27 -7 17 3 36 9 42 13 6 4 24 7 41 7 16 0 30 5
30 12 0 6 3 15 8 19 4 4 7 -2 7 -14 0 -20 5 -22 59 -22 38 0 61 -4 64 -12 3
-8 6 -9 6 -2 1 8 23 10 71 6 60 -4 70 -2 70 12 0 21 9 20 26 -1 11 -15 13 13
14 180 l0 197 -57 1 c-32 1 -48 4 -35 6 49 10 18 23 -55 24 -43 1 -70 3 -60 6
9 2 17 9 17 15 0 6 14 8 38 3 20 -4 63 -9 95 -11 l57 -3 0 60 0 59 -432 -1
c-319 -1 -439 -5 -456 -14z m325 -51 c-3 -3 -12 -4 -19 -1 -8 3 -5 6 6 6 11 1
17 -2 13 -5z m333 -44 c0 -5 -8 -10 -17 -10 -15 0 -16 2 -3 10 19 12 20 12 20
0z m80 -40 c0 -6 -26 -9 -62 -8 -62 1 -63 1 -18 8 69 11 80 11 80 0z m-622
-58 c13 -4 -23 -7 -80 -8 -70 0 -88 2 -58 6 59 9 110 9 138 2z m302 -13 c0 -5
-9 -9 -20 -9 -11 0 -20 6 -20 14 0 9 7 12 20 9 11 -3 20 -9 20 -14z m-356 -55
c9 -3 13 -11 9 -17 -4 -6 2 -8 15 -5 12 4 24 3 27 -2 2 -4 16 -7 30 -7 14 0
29 -3 32 -7 13 -12 -8 -19 -54 -17 -47 1 -77 16 -67 32 3 5 -10 9 -28 9 -25 0
-29 3 -18 10 17 11 32 12 54 4z m161 -4 c-4 -6 -27 -10 -53 -9 -33 1 -40 3
-24 7 39 11 83 12 77 2z m-344 -17 c13 -15 12 -15 -8 -4 -24 12 -29 21 -14 21
5 0 15 -7 22 -17z m59 -40 c0 -11 -4 -11 -20 -1 -11 7 -20 19 -20 25 0 11 4
11 20 1 11 -7 20 -19 20 -25z m375 17 c-3 -5 -15 -10 -26 -10 -11 0 -17 5 -14
10 3 6 15 10 26 10 11 0 17 -4 14 -10z m190 0 c-3 -5 -14 -10 -23 -10 -15 0
-15 2 -2 10 20 13 33 13 25 0z m-445 -15 c0 -9 -9 -15 -23 -15 -13 0 -29 -6
-36 -12 -11 -11 -11 -9 0 9 7 12 22 24 34 26 11 2 21 5 23 6 1 0 2 -6 2 -14z
m510 -1 c0 -7 -27 -34 -34 -34 -4 0 -1 9 6 20 12 19 28 27 28 14z m-312 -25
c-20 -13 -28 -11 -22 5 3 8 12 12 21 9 12 -5 12 -7 1 -14z m115 -6 c-7 -2 -19
-2 -25 0 -7 3 -2 5 12 5 14 0 19 -2 13 -5z m482 -33 c-3 -5 -12 -10 -18 -10
-7 0 -6 4 3 10 19 12 23 12 15 0z m-445 -20 c0 -5 -4 -10 -10 -10 -5 0 -10 5
-10 10 0 6 5 10 10 10 6 0 10 -4 10 -10z m47 -56 c-3 -3 -12 -4 -19 -1 -8 3
-5 6 6 6 11 1 17 -2 13 -5z m268 -44 c-3 -5 -12 -10 -18 -10 -7 0 -6 4 3 10
19 12 23 12 15 0z m-375 -10 c0 -5 -5 -10 -11 -10 -5 0 -7 5 -4 10 3 6 8 10
11 10 2 0 4 -4 4 -10z"/>
<path d="M10 1996 c0 -2 16 -6 35 -8 19 -2 35 0 35 4 0 4 -16 8 -35 8 -19 0
-35 -2 -35 -4z"/>
<path d="M0 1970 c0 -5 15 -10 33 -10 24 0 28 3 17 10 -20 13 -50 13 -50 0z"/>
<path d="M658 1973 c12 -2 32 -2 45 0 12 2 2 4 -23 4 -25 0 -35 -2 -22 -4z"/>
<path d="M1008 1943 c6 -2 18 -2 25 0 6 3 1 5 -13 5 -14 0 -19 -2 -12 -5z"/>
<path d="M153 1711 c-7 -26 -32 -31 -62 -12 -23 15 -24 15 -12 -6 16 -31 14
-50 -4 -27 -13 17 -14 17 -15 2 0 -10 -4 -18 -9 -18 -5 0 -7 8 -4 18 3 12 -2
18 -16 19 -27 2 -26 -5 1 -34 18 -20 19 -23 5 -23 -9 0 -17 7 -17 15 0 8 -4
15 -10 15 -15 0 -12 -36 5 -50 8 -6 20 -8 26 -4 7 4 9 3 6 -3 -4 -6 1 -14 11
-18 16 -6 16 -7 0 -19 -10 -7 -15 -16 -11 -19 3 -4 -1 -7 -10 -7 -9 0 -17 -4
-17 -10 0 -5 6 -10 14 -10 7 0 19 -7 26 -15 7 -8 16 -13 19 -10 4 2 8 -2 8
-10 0 -8 -7 -17 -14 -19 -8 -3 -11 -1 -8 4 3 6 -1 10 -9 10 -10 0 -13 -6 -9
-16 5 -14 1 -16 -21 -12 -25 5 -27 3 -24 -26 3 -30 4 -31 46 -28 39 3 58 -10
30 -21 -8 -4 -7 -6 3 -6 22 -1 32 26 13 33 -22 8 -17 23 10 30 13 3 32 9 43
13 17 6 17 5 -1 -15 -19 -22 -19 -22 4 -46 22 -24 22 -25 1 -19 -12 3 -21 1
-21 -6 0 -6 -8 -10 -17 -9 -36 3 -63 -2 -63 -12 0 -5 7 -7 15 -4 8 4 15 1 15
-4 0 -6 -9 -14 -20 -17 -23 -7 -26 -21 -7 -28 18 -7 97 14 97 26 0 4 -4 6 -9
3 -5 -4 -7 3 -4 13 4 16 11 18 39 14 19 -3 34 -2 34 3 0 5 7 18 15 28 15 19
15 19 29 1 12 -17 12 -21 -3 -33 -14 -12 -13 -13 11 -9 15 2 29 0 31 -6 2 -6
12 -5 27 3 l25 14 -25 6 c-23 7 -22 7 10 11 71 8 43 60 -47 87 -24 7 -43 16
-44 20 0 4 -2 16 -4 27 -2 11 4 28 13 39 13 14 13 17 2 11 -8 -5 -24 -11 -35
-12 -11 -2 -23 -10 -28 -18 -4 -9 -13 -13 -18 -9 -5 3 -9 2 -8 -3 6 -32 -3
-35 -26 -8 -13 17 -24 33 -25 36 0 3 19 6 43 7 29 1 46 8 55 21 10 15 19 18
35 12 24 -9 31 -11 50 -11 8 0 8 -3 -2 -9 -9 -6 -3 -8 18 -6 18 1 37 7 44 14
6 6 17 11 25 11 9 0 12 6 8 16 -4 12 -2 15 9 10 10 -4 15 1 15 15 0 13 -4 18
-11 13 -8 -5 -10 1 -7 19 3 15 1 24 -3 21 -5 -3 -9 -11 -9 -19 0 -7 -8 -16
-17 -19 -10 -4 -14 -4 -10 0 9 9 -22 44 -39 44 -7 0 -15 -6 -18 -12 -3 -7 -3
-3 0 10 7 27 -12 30 -33 5 -14 -17 -14 -17 -9 0 6 20 3 20 -47 6 -22 -6 -35
-14 -31 -21 4 -6 1 -9 -7 -6 -8 3 -21 2 -30 -3 -8 -4 -22 -3 -30 2 -11 9 -11
10 0 7 8 -2 24 6 37 19 13 13 30 23 39 23 8 0 15 5 15 10 0 7 -8 6 -22 -1 -21
-11 -22 -11 -9 4 10 13 10 17 1 17 -6 0 -14 -9 -17 -19z m-69 -90 c3 -5 -1
-11 -9 -14 -9 -4 -12 -1 -8 9 6 16 10 17 17 5z m41 -20 l20 -24 -22 14 c-13 8
-23 20 -23 28 0 8 1 12 3 10 1 -2 11 -15 22 -28z m81 -26 c-3 -8 -10 -15 -15
-15 -6 0 -8 7 -5 15 4 8 1 15 -4 15 -6 0 -13 -10 -15 -22 -4 -21 -4 -21 -6 3
-2 35 17 52 36 33 8 -8 12 -21 9 -29z m158 20 c-18 -28 -25 -30 -42 -13 -19
19 -14 26 21 31 17 2 33 5 35 5 1 1 -5 -9 -14 -23z m-94 -5 c13 -8 13 -10 -2
-10 -9 0 -20 5 -23 10 -8 13 5 13 25 0z m-170 -40 c0 -5 -4 -10 -10 -10 -5 0
-10 5 -10 10 0 6 5 10 10 10 6 0 10 -4 10 -10z m118 -55 c0 -13 -4 -22 -9 -19
-5 3 -9 0 -9 -7 0 -9 -3 -10 -11 -2 -8 8 -6 17 7 32 23 26 22 26 22 -4z m122
-95 c0 -5 -11 -10 -25 -10 -14 0 -25 5 -25 10 0 6 11 10 25 10 14 0 25 -4 25
-10z"/>
<path d="M298 1712 c-14 -6 -10 -11 21 -29 27 -15 41 -19 52 -11 12 8 12 9 -1
6 -8 -3 -23 6 -35 18 -13 15 -26 20 -37 16z"/>
<path d="M573 1683 c-7 -2 -13 -9 -13 -15 0 -7 5 -7 13 1 8 6 17 8 20 4 4 -3
7 -1 7 5 0 13 -7 14 -27 5z"/>
<path d="M410 1660 c-9 -16 -8 -18 5 -14 8 4 15 11 15 18 0 6 5 4 10 -4 14
-22 12 -30 -6 -23 -12 4 -15 2 -12 -8 2 -8 15 -16 28 -17 18 -3 21 0 17 13 -4
9 -3 14 3 10 6 -4 9 -14 8 -23 -4 -22 28 -28 36 -7 9 23 1 32 -47 55 -49 24
-44 24 -57 0z"/>
<path d="M625 1660 c-3 -5 3 -10 15 -10 12 0 18 5 15 10 -3 6 -10 10 -15 10
-5 0 -12 -4 -15 -10z"/>
<path d="M585 1640 c-3 -5 -1 -10 4 -10 6 0 11 5 11 10 0 6 -2 10 -4 10 -3 0
-8 -4 -11 -10z"/>
<path d="M800 1610 c0 -5 7 -10 16 -10 8 0 12 5 9 10 -3 6 -10 10 -16 10 -5 0
-9 -4 -9 -10z"/>
<path d="M585 1600 c-4 -6 -11 -8 -16 -5 -5 4 -9 2 -9 -4 0 -5 -12 -13 -26
-18 -23 -8 -25 -10 -10 -22 14 -12 16 -11 16 5 0 14 3 15 8 6 7 -9 15 -7 35
12 15 14 23 27 18 31 -5 3 -12 1 -16 -5z"/>
<path d="M715 1605 c-5 -2 -22 -6 -37 -9 -15 -3 -39 -17 -54 -31 -26 -24 -26
-25 -5 -25 11 0 21 5 21 11 0 8 5 7 16 -2 14 -11 12 -14 -11 -27 -15 -7 -36
-12 -46 -9 -11 3 -19 0 -19 -7 0 -6 10 -12 23 -13 35 -3 107 -25 107 -33 0
-15 33 -21 42 -8 6 11 8 10 8 0 0 -9 9 -7 30 8 28 20 36 17 31 -13 -1 -5 3 -6
9 -2 5 3 10 13 10 21 0 8 5 14 11 14 15 0 39 26 32 34 -4 3 -15 6 -25 6 -10 0
-18 6 -18 13 0 19 -37 50 -49 42 -6 -3 -11 1 -11 9 0 27 -21 29 -48 5 -26 -23
-26 -23 -8 -1 18 20 15 25 -9 17z m37 -82 c19 -17 25 -39 8 -28 -6 3 -7 -1 -4
-9 7 -19 -21 -22 -32 -4 -5 7 -3 8 6 3 9 -6 11 -4 5 6 -10 15 -14 49 -7 49 3
0 14 -7 24 -17z m72 -19 c3 -9 2 -12 -5 -9 -6 4 -19 -1 -30 -11 -10 -9 -19
-14 -19 -11 0 5 41 47 46 47 1 0 5 -7 8 -16z"/>
<path d="M410 1585 c-15 -18 -13 -20 16 -29 16 -5 23 -2 27 13 3 12 -1 22 -10
25 -20 8 -19 8 -33 -9z"/>
<path d="M420 1510 c0 -5 4 -10 9 -10 6 0 9 -9 8 -19 -1 -12 -6 -17 -16 -13
-9 3 -12 1 -7 -6 3 -6 2 -13 -4 -17 -5 -3 -10 -2 -10 2 0 5 -9 9 -20 10 -23 2
-27 -15 -6 -23 8 -3 12 -12 9 -20 -3 -8 0 -14 6 -14 6 0 11 6 11 14 0 17 33
31 38 17 2 -6 10 -11 18 -11 8 0 14 -6 14 -14 0 -11 5 -12 24 -3 l24 12 -26
11 c-15 6 -30 9 -34 7 -11 -6 -10 15 2 37 8 14 5 21 -15 34 -14 9 -25 12 -25
6z"/>
<path d="M0 1494 c0 -11 5 -14 16 -10 9 3 21 6 27 6 16 0 -14 20 -30 20 -7 0
-13 -7 -13 -16z"/>
<path d="M290 1498 c-15 -6 -20 -12 -12 -15 6 -3 9 -10 5 -16 -4 -7 1 -6 10 2
9 7 24 11 32 7 17 -6 65 13 65 26 0 11 -7 10 -31 -2 -13 -7 -19 -7 -19 0 0 12
-17 12 -50 -2z"/>
<path d="M478 1499 c13 -14 17 -33 4 -25 -4 2 -8 -4 -8 -15 0 -14 7 -19 28
-19 44 0 32 36 -22 65 -12 6 -13 5 -2 -6z"/>
<path d="M525 1487 c10 -15 20 -25 23 -22 3 3 -5 16 -17 28 l-23 22 17 -28z"/>
<path d="M1010 1489 c0 -3 10 -9 23 -13 34 -9 42 -7 29 6 -13 13 -52 19 -52 7z"/>
<path d="M857 1466 c-9 -10 -17 -23 -17 -31 0 -7 -6 -16 -12 -19 -7 -3 5 -5
26 -3 25 1 41 -3 43 -11 3 -7 -1 -11 -9 -10 -7 2 -13 -6 -13 -17 0 -13 -11
-24 -30 -32 -35 -13 -66 -16 -64 -5 3 20 -3 31 -27 47 l-27 17 7 -28 c5 -24 4
-26 -5 -11 -6 10 -8 24 -5 32 7 20 -20 38 -49 33 -14 -3 -25 -1 -25 4 0 5 -13
0 -29 -11 -16 -12 -34 -21 -40 -21 -7 0 -16 -10 -22 -22 -9 -22 -9 -21 -6 5 4
22 2 25 -9 16 -8 -6 -14 -22 -14 -34 0 -27 26 -41 34 -19 3 9 10 13 16 9 5 -3
20 1 34 10 22 14 24 14 30 -1 4 -10 1 -22 -5 -28 -9 -8 -10 -7 -6 6 8 22 -14
14 -30 -11 -10 -16 -8 -18 13 -15 13 1 24 -2 24 -7 0 -5 -9 -9 -19 -9 -11 0
-27 -7 -35 -16 -15 -14 -16 -14 -16 5 0 24 -15 28 -24 6 -3 -8 -9 -14 -13 -13
-11 4 -56 -42 -49 -49 6 -6 -18 -33 -29 -33 -4 0 -5 7 -2 14 4 10 1 13 -8 10
-7 -3 -24 0 -37 8 -24 14 -210 19 -201 6 2 -5 14 -8 26 -8 16 0 18 -3 9 -12
-16 -16 -15 -48 1 -48 9 0 9 -2 -1 -9 -24 -15 12 -31 61 -27 26 2 47 0 47 -5
0 -12 47 -12 55 1 3 5 14 1 25 -10 11 -11 27 -20 35 -20 8 0 15 -4 15 -10 0
-5 -5 -10 -11 -10 -22 0 3 -19 45 -33 25 -9 49 -11 57 -6 8 4 16 4 20 -3 4 -6
12 -7 18 -4 19 12 12 23 -16 29 -16 3 -37 13 -48 21 -19 14 -16 15 44 16 67 0
78 10 17 15 -19 2 -41 7 -47 11 -8 4 -9 3 -5 -4 12 -20 -13 -13 -34 8 -11 11
-27 20 -35 20 -8 0 -15 7 -15 16 0 13 7 15 36 9 20 -3 43 -13 51 -21 16 -15
20 -16 44 -6 14 6 15 9 3 20 -12 11 -14 10 -14 -4 0 -16 -2 -16 -18 2 -10 10
-21 27 -25 37 -6 15 -4 16 13 7 19 -10 24 -6 21 13 0 4 4 7 9 7 6 0 10 -4 10
-10 0 -5 9 -10 20 -10 13 0 20 -7 20 -19 0 -12 9 -20 23 -23 35 -7 69 9 65 29
-2 10 3 23 12 30 13 10 10 12 -16 13 -22 0 -37 -7 -47 -22 -15 -21 -16 -22
-14 -3 4 34 15 43 51 43 19 0 38 2 43 5 4 3 17 -1 27 -9 18 -13 18 -14 -5 -33
-26 -21 -19 -42 9 -25 12 8 22 8 34 0 24 -15 36 1 13 18 -17 12 -14 15 34 40
29 14 57 23 62 20 6 -3 19 5 31 18 l21 23 -6 -23 c-4 -19 -3 -21 9 -11 8 6 14
8 14 4 0 -4 8 -1 17 6 15 12 16 12 10 -3 -4 -12 -2 -15 8 -12 7 3 18 -3 24
-14 9 -18 7 -20 -24 -19 -24 1 -35 6 -35 17 0 10 -6 7 -20 -10 -14 -18 -16
-28 -8 -38 6 -7 17 -11 25 -8 9 4 11 1 7 -6 -4 -6 1 -17 11 -25 18 -13 18 -13
0 -13 -11 0 -34 -14 -52 -32 -18 -18 -33 -27 -33 -22 0 6 4 14 10 20 11 11 -2
13 -99 14 -66 1 -91 -7 -53 -17 12 -3 19 -9 16 -14 -6 -11 10 -18 52 -23 17
-1 36 -6 42 -10 6 -4 30 3 53 14 22 12 60 22 82 23 23 1 45 7 49 12 4 6 8 0 8
-12 0 -16 4 -21 16 -16 13 5 15 2 9 -15 -5 -18 -2 -22 15 -22 20 0 20 1 4 25
-14 22 -14 25 -1 25 23 0 42 30 39 64 -6 57 -12 67 -35 60 -22 -6 -22 -6 -2
10 11 8 14 16 8 16 -19 0 -16 24 6 49 14 17 26 21 43 16 22 -6 22 -5 3 6 -11
7 -23 17 -27 23 -5 7 -8 5 -8 -5 0 -20 -28 -29 -55 -18 -17 6 -16 8 8 8 16 1
26 5 23 9 -5 9 -47 9 -63 -1 -13 -8 -23 2 -23 22 0 14 2 14 10 1 5 -8 10 -12
11 -7 1 9 1 53 0 67 -1 12 -51 -10 -51 -23 0 -6 -5 -5 -12 1 -7 6 -17 10 -23
10 -20 1 -14 17 10 29 14 6 23 7 19 2 -3 -5 2 -9 10 -9 24 0 19 15 -8 28 -17
8 -27 7 -35 -1 -17 -17 -83 -16 -76 2 4 11 2 11 -9 2 -11 -9 -15 -9 -18 0 -3
8 -9 6 -21 -5z m-147 -66 c0 -17 -3 -19 -19 -8 -21 13 -19 28 5 28 8 0 14 -9
14 -20z m269 -36 c-10 -13 -39 -9 -39 5 0 14 11 19 31 14 15 -4 17 -9 8 -19z
m-63 -7 c1 -9 -3 -17 -9 -17 -7 0 -4 -5 6 -11 9 -5 17 -15 17 -20 0 -6 -7 -4
-15 4 -8 9 -20 18 -27 20 -10 4 -9 8 2 16 10 7 11 11 3 11 -7 0 -13 4 -13 9 0
16 33 5 36 -12z m-166 -27 c0 -5 -2 -10 -4 -10 -3 0 -8 5 -11 10 -3 6 -1 10 4
10 6 0 11 -4 11 -10z m65 -20 c3 -5 1 -10 -4 -10 -6 0 -11 -9 -11 -20 0 -23
-4 -24 -29 -8 -25 15 -15 48 15 48 12 0 26 -4 29 -10z m69 1 c4 -5 -3 -7 -14
-4 -23 6 -26 13 -6 13 8 0 17 -4 20 -9z m71 -1 c3 -5 1 -10 -4 -10 -6 0 -11 5
-11 10 0 6 2 10 4 10 3 0 8 -4 11 -10z m-272 -23 c4 3 7 2 7 -4 0 -17 -13 -23
-27 -12 -7 6 -13 16 -13 21 0 7 5 6 13 -1 8 -6 17 -8 20 -4z m149 -9 c-7 -7
-12 -8 -12 -2 0 14 12 26 19 19 2 -3 -1 -11 -7 -17z m252 -7 c-2 -3 -12 3 -22
13 -16 17 -16 18 5 5 12 -7 20 -15 17 -18z m-534 -6 c-7 -9 -15 -13 -19 -10
-3 3 1 10 9 15 21 14 24 12 10 -5z m-154 -72 c2 -22 1 -23 -15 -9 -10 9 -21
13 -24 9 -4 -3 -7 0 -7 8 0 8 10 15 23 15 17 1 22 -4 23 -23z m-82 8 c3 -4 -4
-17 -15 -27 -21 -19 -21 -18 -8 9 13 30 15 31 23 18z m106 -7 c0 -8 -5 -12
-10 -9 -6 4 -8 11 -5 16 9 14 15 11 15 -7z m731 -18 c-6 -7 -9 -20 -5 -29 6
-16 -32 -44 -44 -33 -3 3 0 6 6 6 7 0 8 10 2 29 -6 22 -5 28 4 25 6 -2 18 5
26 16 8 11 16 16 18 10 2 -6 -1 -17 -7 -24z m-77 16 c3 -5 -1 -9 -9 -9 -8 0
-12 4 -9 9 3 4 7 8 9 8 2 0 6 -4 9 -8z m-216 -97 c-3 -3 -9 2 -12 12 -6 14 -5
15 5 6 7 -7 10 -15 7 -18z"/>
<path d="M775 1290 c-3 -5 -1 -10 4 -10 6 0 11 5 11 10 0 6 -2 10 -4 10 -3 0
-8 -4 -11 -10z"/>
<path d="M1607 1457 c-12 -4 -30 -6 -39 -3 -10 2 -21 0 -24 -5 -3 -6 30 -9 85
-8 50 1 91 5 91 10 0 10 1 10 -53 12 -21 1 -48 -2 -60 -6z"/>
<path d="M1235 1450 c3 -5 8 -10 11 -10 2 0 4 5 4 10 0 6 -5 10 -11 10 -5 0
-7 -4 -4 -10z"/>
<path d="M1276 1448 c7 -11 34 -10 34 1 0 6 -9 9 -19 8 -11 0 -17 -5 -15 -9z"/>
<path d="M1493 1443 c9 -2 23 -2 30 0 6 3 -1 5 -18 5 -16 0 -22 -2 -12 -5z"/>
<path d="M565 1430 c3 -5 8 -10 11 -10 2 0 4 5 4 10 0 6 -5 10 -11 10 -5 0 -7
-4 -4 -10z"/>
<path d="M765 1390 c29 -31 57 -40 53 -18 -4 18 -44 48 -64 48 -15 0 -13 -5
11 -30z"/>
<path d="M441 1360 c9 -18 9 -25 0 -28 -6 -2 -11 -9 -11 -15 0 -7 -12 -13 -27
-14 -14 0 -22 2 -17 5 15 11 40 46 27 39 -6 -4 -14 -3 -17 2 -4 5 2 12 11 14
14 4 13 5 -4 6 -12 0 -25 -3 -28 -9 -3 -5 -1 -10 5 -10 6 0 8 -5 5 -10 -4 -6
-10 -8 -15 -5 -5 3 -7 -6 -4 -20 3 -16 0 -24 -7 -23 -6 2 -14 -3 -16 -9 -3 -9
6 -13 25 -13 17 0 33 6 35 13 4 9 8 8 16 -3 13 -19 26 -5 34 36 4 21 1 38 -9
50 -14 18 -14 17 -3 -6z"/>
<path d="M490 1345 c0 -8 5 -15 10 -15 6 0 10 7 10 15 0 8 -4 15 -10 15 -5 0
-10 -7 -10 -15z"/>
<path d="M1560 1350 c0 -5 5 -10 11 -10 5 0 7 5 4 10 -3 6 -8 10 -11 10 -2 0
-4 -4 -4 -10z"/>
<path d="M1 1314 c0 -11 3 -14 6 -6 3 7 2 16 -1 19 -3 4 -6 -2 -5 -13z"/>
<path d="M1220 1320 c0 -5 5 -10 11 -10 5 0 7 5 4 10 -3 6 -8 10 -11 10 -2 0
-4 -4 -4 -10z"/>
<path d="M1378 1318 c5 -5 16 -8 23 -6 8 3 3 7 -10 11 -17 4 -21 3 -13 -5z"/>
<path d="M240 1300 c0 -5 -7 -10 -16 -10 -8 0 -12 -5 -9 -10 4 -6 10 -8 15 -5
4 3 13 -2 20 -10 7 -8 17 -15 23 -15 6 0 2 7 -10 15 -13 9 -20 22 -17 30 4 8
3 15 0 15 -3 0 -6 -4 -6 -10z"/>
<path d="M1150 1284 c0 -8 5 -12 10 -9 6 3 10 10 10 16 0 5 -4 9 -10 9 -5 0
-10 -7 -10 -16z"/>
<path d="M470 1275 c0 -9 6 -12 15 -9 8 4 15 10 15 15 0 5 -7 9 -15 9 -8 0
-15 -7 -15 -15z"/>
<path d="M1196 1274 c-5 -14 -4 -15 9 -4 17 14 19 20 6 20 -5 0 -12 -7 -15
-16z"/>
<path d="M1608 1273 c7 -3 16 -2 19 1 4 3 -2 6 -13 5 -11 0 -14 -3 -6 -6z"/>
<path d="M34 1255 c-4 -8 -3 -22 0 -31 4 -10 0 -18 -12 -21 -14 -3 -19 -14
-19 -41 0 -20 2 -32 4 -26 2 7 13 10 23 7 11 -3 26 2 34 10 14 13 14 16 0 28
-9 7 -14 23 -11 36 2 13 0 20 -6 16 -6 -4 -8 2 -5 15 7 25 0 30 -8 7z"/>
<path d="M100 1245 c0 -11 9 -15 30 -13 29 2 34 5 15 8 -5 1 -18 6 -27 11 -14
7 -18 6 -18 -6z"/>
<path d="M1212 1243 c-6 -13 -4 -23 8 -34 15 -14 18 -14 37 7 l20 22 -24 11
c-31 14 -31 14 -41 -6z m34 -20 c-7 -7 -26 7 -26 19 0 6 6 6 15 -2 9 -7 13
-15 11 -17z"/>
<path d="M910 1239 c0 -5 5 -7 10 -4 6 3 10 8 10 11 0 2 -4 4 -10 4 -5 0 -10
-5 -10 -11z"/>
<path d="M868 1233 c7 -3 16 -2 19 1 4 3 -2 6 -13 5 -11 0 -14 -3 -6 -6z"/>
<path d="M1421 1234 c-1 -6 10 -36 22 -65 13 -30 27 -62 30 -72 6 -15 10 -16
29 -6 27 14 87 14 102 -1 13 -13 24 -13 29 3 2 6 3 4 2 -5 -4 -21 11 -33 20
-18 4 6 15 8 25 5 13 -4 23 1 32 14 7 12 17 21 23 21 6 0 12 11 13 25 2 24 0
25 -41 19 -23 -3 -47 -7 -54 -9 -6 -2 -13 0 -15 5 -4 11 -80 16 -96 6 -8 -4
-24 0 -39 11 -14 10 -35 23 -47 30 -11 7 -24 20 -27 30 -4 10 -8 13 -8 7z
m173 -109 c7 -19 -3 -19 -28 0 -19 15 -19 15 1 15 11 0 23 -7 27 -15z m108
-17 c-9 -9 -15 -9 -24 0 -9 9 -7 12 12 12 19 0 21 -3 12 -12z"/>
<path d="M70 1205 c0 -34 26 -47 70 -35 43 12 54 22 18 16 -13 -1 -27 3 -33 9
-5 7 -20 16 -32 20 -17 5 -23 2 -23 -10z"/>
<path d="M1728 1203 c7 -3 16 -2 19 1 4 3 -2 6 -13 5 -11 0 -14 -3 -6 -6z"/>
<path d="M1275 1190 c-3 -5 -4 -10 -1 -10 2 0 11 -3 20 -6 11 -4 16 -1 16 10
0 18 -25 22 -35 6z"/>
<path d="M890 1183 c5 -2 8 -9 4 -14 -3 -5 0 -9 6 -9 15 0 7 23 -8 26 -7 1 -8
0 -2 -3z"/>
<path d="M932 1178 c-16 -16 -15 -28 3 -28 8 0 15 5 15 11 0 8 6 7 17 -2 11
-10 14 -10 9 -1 -4 7 -2 12 4 12 6 0 8 5 5 10 -8 14 -38 13 -53 -2z"/>
<path d="M210 1144 c0 -13 -3 -14 -15 -4 -8 7 -15 8 -15 3 0 -15 36 -44 43
-36 10 10 8 41 -3 48 -5 3 -10 -1 -10 -11z"/>
<path d="M126 1135 c-10 -8 -24 -16 -30 -18 -7 -3 -8 -8 -1 -15 7 -7 17 -5 33
9 28 22 26 44 -2 24z"/>
<path d="M620 1129 c0 -5 5 -7 10 -4 6 3 10 8 10 11 0 2 -4 4 -10 4 -5 0 -10
-5 -10 -11z"/>
<path d="M42 1108 c-7 -7 -12 -8 -12 -3 0 17 -29 -30 -30 -47 0 -23 51 -24 84
-2 l24 15 -23 25 c-26 28 -27 28 -43 12z m26 -32 c-1 -2 -16 -6 -33 -10 l-30
-6 28 15 c15 9 28 21 28 28 1 7 3 4 6 -6 3 -10 3 -20 1 -21z"/>
<path d="M680 1111 c-23 -6 -23 -8 -6 -14 13 -5 25 -2 35 8 16 16 11 17 -29 6z"/>
<path d="M1190 1105 c-10 -12 -9 -16 4 -21 22 -8 46 2 46 21 0 19 -34 20 -50
0z"/>
<path d="M1025 1090 c3 -5 13 -10 21 -10 8 0 14 5 14 10 0 6 -9 10 -21 10 -11
0 -17 -4 -14 -10z"/>
<path d="M1716 1074 c-4 -10 -15 -14 -33 -12 -23 2 -27 -1 -25 -17 15 -102 13
-138 -7 -166 -12 -15 -21 -31 -21 -36 0 -4 7 2 15 13 23 30 18 9 -14 -59 -22
-46 -37 -65 -60 -75 -18 -8 -28 -18 -24 -25 4 -7 0 -8 -11 -4 -13 5 -17 3 -13
-6 3 -7 -8 -24 -24 -36 -16 -13 -26 -28 -22 -34 4 -7 0 -8 -12 -3 -11 4 -22 2
-26 -6 -5 -7 -12 -13 -17 -13 -14 0 -62 -56 -79 -92 -15 -33 -54 -46 -68 -23
-4 6 -11 8 -16 5 -5 -4 -9 -2 -9 3 0 6 -11 13 -24 16 -25 6 -50 55 -40 80 3 8
1 17 -5 21 -6 3 -15 -4 -20 -17 -7 -17 -10 -19 -10 -5 -1 10 -9 17 -20 17 -11
0 -27 3 -36 6 -14 6 -14 1 4 -32 15 -28 18 -40 9 -45 -7 -5 -16 -3 -20 4 -6 9
-8 9 -8 -1 0 -7 -4 -10 -10 -7 -5 3 -10 2 -10 -3 0 -15 -37 -21 -50 -8 -9 8
-11 8 -8 -3 3 -13 -45 -49 -68 -50 -6 -1 -29 -9 -50 -18 -22 -9 -43 -16 -48
-14 -5 1 -16 -4 -25 -12 -9 -8 -42 -20 -74 -27 -34 -8 -62 -21 -67 -31 -11
-20 -62 -32 -72 -16 -6 9 -8 9 -8 0 0 -7 -7 -13 -16 -13 -8 0 -13 4 -10 9 4 5
-2 8 -11 6 -10 -2 -35 -7 -56 -10 -21 -3 -35 -10 -32 -14 10 -18 -237 -44
-375 -39 l-85 2 -3 -142 -3 -143 290 2 c243 1 289 3 284 15 -6 17 13 19 23 2
5 -8 11 -6 20 6 7 10 17 15 23 11 6 -3 17 -3 23 2 7 4 26 6 42 4 19 -2 26 1
21 8 -3 6 -12 8 -18 5 -9 -5 -9 -4 0 6 10 11 16 10 35 -2 19 -13 27 -13 41 -3
9 6 13 15 9 19 -4 4 7 0 24 -10 20 -11 37 -15 50 -10 19 8 19 8 0 15 -14 6
-16 10 -7 15 7 5 17 1 25 -9 11 -15 14 -15 27 -3 17 17 128 31 148 18 9 -5 23
-3 38 7 21 14 23 14 23 -1 0 -9 -8 -16 -19 -16 -11 0 -23 -5 -26 -10 -4 -6 5
-10 24 -8 16 1 29 7 28 13 -1 5 6 9 16 9 9 -1 17 5 17 13 0 12 8 13 40 8 35
-6 39 -5 34 10 -6 15 -4 16 14 6 11 -6 30 -11 41 -11 12 0 21 -4 21 -10 0 -5
11 -10 25 -10 25 0 35 15 14 22 -6 2 13 4 43 4 29 1 38 -1 19 -3 -21 -3 -35
-11 -38 -22 -4 -16 -17 -19 -101 -20 -52 0 -98 -3 -100 -6 -3 -3 43 -5 101 -5
96 0 107 -2 117 -20 9 -17 8 -20 -9 -20 -11 0 -22 -4 -25 -8 -2 -4 58 -9 135
-10 81 -1 139 2 139 7 0 5 -10 12 -22 14 -13 2 0 4 27 4 28 0 40 -2 28 -4 -13
-2 -23 -9 -23 -14 0 -14 68 -11 73 4 4 9 6 9 6 0 1 -18 31 -16 31 2 0 18 -31
20 -49 2 -11 -10 -12 -8 -7 8 5 18 1 20 -42 19 -83 -2 -92 -4 -92 -19 0 -8 -9
-15 -20 -15 -29 0 -24 17 10 35 39 20 119 35 126 24 3 -5 15 -9 27 -9 18 0 19
2 7 10 -9 6 -10 10 -3 10 6 0 19 -7 27 -16 15 -14 16 -13 16 15 0 20 -6 31
-17 34 -17 4 -17 5 0 6 14 1 17 11 17 66 0 67 -5 74 -41 55 -21 -12 -26 -1 -7
18 15 15 -30 33 -61 25 -15 -4 -21 -1 -21 12 0 13 6 16 24 11 14 -3 28 -2 31
4 3 6 -1 7 -9 4 -9 -3 -16 -1 -16 5 0 11 37 24 61 21 40 -6 39 -11 39 325 0
179 -3 325 -7 325 -5 0 -24 14 -43 30 -28 24 -31 28 -12 23 12 -3 22 -9 22
-14 0 -11 11 -11 29 0 9 6 11 18 7 35 -7 29 -21 34 -30 10z m-356 -793 c0 -6
19 -12 43 -14 33 -3 29 -4 -20 -5 -57 -2 -82 9 -50 21 19 8 27 8 27 -2z m235
-1 c18 -8 17 -9 -7 -9 -16 -1 -28 4 -28 9 0 12 8 12 35 0z m-75 -14 c0 -2 -9
-6 -20 -9 -11 -3 -20 -1 -20 4 0 5 9 9 20 9 11 0 20 -2 20 -4z m168 -3 c-9 -2
-15 -10 -12 -18 4 -10 -2 -13 -22 -11 -38 4 -42 24 -7 29 39 6 63 6 41 0z
m-121 -19 c2 -5 -5 -10 -14 -11 -10 -1 -29 -4 -43 -6 -14 -2 -17 -2 -8 0 9 2
22 11 29 19 13 15 31 14 36 -2z m30 -6 c-3 -8 -6 -5 -6 6 -1 11 2 17 5 13 3
-3 4 -12 1 -19z m-217 -8 c24 -8 24 -8 -6 -9 -17 -1 -46 -4 -64 -8 -25 -4 -31
-3 -26 6 5 7 14 10 22 7 8 -3 14 -1 14 4 0 12 24 11 60 0z m135 -50 c3 -5 -3
-10 -15 -10 -12 0 -18 5 -15 10 3 6 10 10 15 10 5 0 12 -4 15 -10z m-231 -22
c-3 -4 -26 -8 -52 -7 -33 1 -40 3 -24 8 33 9 82 8 76 -1z m236 -9 c0 -5 -9 -9
-20 -9 -11 0 -20 4 -20 8 0 4 9 8 20 9 11 1 20 -2 20 -8z m73 -6 c-7 -2 -19
-2 -25 0 -7 3 -2 5 12 5 14 0 19 -2 13 -5z m110 0 c-13 -2 -33 -2 -45 0 -13 2
-3 4 22 4 25 0 35 -2 23 -4z m-98 -33 c-3 -5 -35 -10 -69 -10 -44 0 -67 -5
-76 -15 -10 -12 -7 -16 15 -25 24 -9 32 -7 51 11 21 20 44 19 44 -2 0 -6 -4
-8 -8 -5 -5 3 -20 -1 -34 -8 -13 -7 -39 -11 -56 -8 -37 5 -42 -5 -9 -18 19 -8
18 -9 -11 -7 -32 1 -57 16 -30 18 7 0 4 4 -7 9 -19 8 -19 9 3 9 12 1 22 6 22
11 0 6 -10 15 -22 20 l-23 9 23 0 c12 1 22 -4 22 -10 0 -5 5 -7 10 -4 6 4 8
10 5 15 -3 5 29 11 72 13 43 1 79 4 81 5 2 1 0 -2 -3 -8z m55 -14 c0 -6 -11
-12 -25 -12 -28 -2 -30 1 -13 20 14 15 38 10 38 -8z m45 4 c3 -5 -1 -10 -9
-10 -9 0 -16 5 -16 10 0 6 4 10 9 10 6 0 13 -4 16 -10z m-935 -41 c0 -6 -4 -7
-10 -4 -5 3 -10 11 -10 16 0 6 5 7 10 4 6 -3 10 -11 10 -16z"/>
<path d="M960 1056 c-4 -11 -6 -24 -3 -28 2 -5 -3 -8 -11 -8 -10 0 -13 8 -10
27 4 20 2 24 -8 16 -7 -6 -53 -13 -101 -16 -49 -3 -91 -7 -94 -10 -3 -4 -2
-14 2 -24 5 -10 7 -26 6 -36 -2 -17 -1 -17 28 -3 20 11 32 12 36 5 5 -7 11 -6
21 2 8 6 17 9 20 6 3 -3 17 -1 31 4 16 6 38 6 61 0 23 -7 41 -7 53 0 13 6 19
6 19 -1 0 -5 6 -10 13 -10 8 0 24 -11 36 -24 l22 -23 -21 -6 c-15 -4 -20 -2
-17 7 3 7 -2 12 -11 11 -37 -3 -78 -32 -97 -69 -11 -22 -26 -41 -33 -44 -19
-6 -14 -18 13 -30 15 -7 25 -8 25 -2 0 6 9 10 19 10 11 0 23 5 27 12 5 8 2 9
-11 4 -15 -5 -16 -4 -5 9 7 8 16 13 20 10 5 -3 12 -1 15 5 4 6 16 10 28 8 17
-2 22 2 20 17 -1 12 7 26 18 33 16 10 28 9 72 -10 28 -12 53 -25 55 -28 1 -4
23 -5 47 -4 25 2 45 0 45 -4 0 -10 -48 -31 -55 -23 -9 9 -65 10 -65 1 0 -5 -6
-7 -12 -6 -24 3 -37 17 -31 32 6 17 -12 34 -37 34 -9 0 -16 -9 -16 -20 0 -18
8 -24 29 -21 4 0 7 -4 7 -9 0 -9 -14 -14 -33 -11 -4 1 -5 -10 -3 -24 3 -14 0
-25 -5 -25 -5 0 -9 5 -9 10 0 11 -30 8 -72 -9 -39 -15 -37 -46 4 -60 23 -8 33
-8 39 0 4 6 12 8 18 5 18 -11 13 -26 -10 -26 -34 0 -12 -18 31 -25 22 -4 43
-11 46 -16 7 -12 75 -9 92 5 8 5 26 10 40 11 22 0 28 5 30 26 3 23 0 26 -21
24 -14 -2 -28 4 -35 16 -10 15 -9 19 2 19 8 0 16 5 18 11 2 7 12 7 30 0 21 -8
26 -7 22 3 -6 15 23 32 61 35 27 2 16 21 -15 28 -29 5 -47 19 -37 29 2 2 17 0
32 -6 22 -8 26 -8 22 3 -3 9 2 13 15 13 24 -1 65 64 47 75 -7 4 -3 12 12 22
12 9 26 14 31 11 4 -3 8 2 8 10 0 25 -21 19 -52 -16 l-29 -33 6 28 c5 17 3 27
-4 27 -6 0 -11 5 -11 10 0 6 10 10 23 10 17 0 19 2 7 9 -8 6 -19 7 -25 3 -5
-3 -20 -5 -32 -4 -12 2 -26 -4 -32 -15 -7 -12 -10 -13 -11 -4 0 11 -3 11 -15
1 -12 -10 -15 -10 -15 4 0 15 12 21 35 16 5 -1 6 2 2 7 -5 4 -26 8 -47 9 -32
1 -38 -3 -37 -18 1 -10 7 -16 13 -14 7 3 10 -3 7 -14 -3 -13 -14 -18 -32 -18
-36 1 -76 -21 -63 -34 11 -11 5 -38 -9 -38 -5 0 -9 10 -9 21 0 17 -5 20 -25
17 -14 -3 -25 -1 -25 4 0 5 11 13 25 18 14 5 25 14 25 19 0 15 -53 8 -68 -9
-10 -11 -15 -12 -18 -2 -3 6 -13 12 -23 12 -9 0 -23 6 -30 13 -11 10 -14 10
-18 0 -3 -7 -9 -13 -14 -13 -6 0 -7 6 -1 16 5 9 8 26 6 38 -3 12 -2 15 2 9 3
-7 15 -13 26 -13 27 0 17 25 -11 26 -15 1 -26 -6 -31 -20z m340 -116 c0 -5 -9
-6 -20 -3 -11 3 -17 9 -15 14 7 10 35 1 35 -11z m73 4 c-5 -14 -3 -15 15 -5
17 9 19 8 15 -9 -4 -16 -9 -17 -29 -8 -32 15 -32 25 3 37 1 1 0 -6 -4 -15z
m-345 -60 c-3 -14 -5 -12 -10 9 -3 19 -2 25 4 19 6 -6 8 -18 6 -28z m-33 -4
c3 -5 -3 -10 -14 -10 -12 0 -21 5 -21 10 0 6 6 10 14 10 8 0 18 -4 21 -10z
m55 -100 c0 -5 -2 -10 -4 -10 -3 0 -8 5 -11 10 -3 6 -1 10 4 10 6 0 11 -4 11
-10z m-50 -6 c0 -8 -19 -13 -24 -6 -3 5 1 9 9 9 8 0 15 -2 15 -3z m250 -64 c0
-5 -5 -10 -12 -10 -6 0 -21 -8 -32 -17 -15 -13 -14 -10 3 10 25 28 41 35 41
17z"/>
<path d="M88 1017 c4 -16 2 -19 -12 -14 -10 4 -21 7 -24 7 -4 0 0 5 8 10 8 5
10 10 4 10 -6 0 -17 -6 -24 -14 -6 -8 -18 -12 -26 -9 -11 4 -14 -8 -14 -66 l0
-70 33 6 c17 3 36 9 41 14 5 4 19 3 32 -3 24 -11 54 -5 54 10 0 5 -12 7 -27 4
l-28 -5 20 20 c11 11 23 19 28 16 4 -2 7 0 7 5 0 6 10 8 21 5 15 -4 27 0 35
12 12 16 11 21 -3 37 -9 10 -24 18 -34 18 -10 0 -21 5 -24 10 -8 13 -25 13
-25 -1 0 -5 4 -8 9 -4 5 3 12 1 16 -5 3 -5 1 -10 -5 -10 -6 0 -9 -4 -6 -8 3
-5 -1 -9 -9 -9 -8 0 -12 4 -10 8 9 13 -6 37 -24 42 -15 3 -17 0 -13 -16z"/>
<path d="M1119 1031 c8 -5 21 -7 29 -3 10 3 13 1 8 -6 -10 -17 -1 -15 14 3 11
13 7 15 -26 15 -27 0 -35 -3 -25 -9z"/>
<path d="M212 1018 c3 -7 13 -15 22 -16 12 -3 17 1 14 10 -3 7 -13 15 -22 16
-12 3 -17 -1 -14 -10z"/>
<path d="M403 1018 c1 -7 -6 -12 -15 -10 -10 2 -18 -2 -18 -8 0 -14 23 -13 38
2 15 15 16 28 2 28 -5 0 -9 -6 -7 -12z"/>
<path d="M435 1020 c-3 -5 -1 -10 4 -10 6 0 11 5 11 10 0 6 -2 10 -4 10 -3 0
-8 -4 -11 -10z"/>
<path d="M626 1018 c3 -4 -2 -8 -10 -8 -9 0 -15 -6 -13 -12 1 -9 -15 -13 -54
-14 -39 0 -62 -5 -73 -17 -10 -9 -23 -17 -29 -17 -7 0 -3 -7 7 -15 10 -8 23
-12 27 -9 5 3 9 0 9 -5 0 -6 6 -11 14 -11 8 0 18 -5 22 -12 4 -7 3 -8 -4 -4
-7 4 -12 2 -12 -3 0 -21 33 -11 59 18 14 16 35 31 46 33 11 2 19 10 17 17 -2
10 4 12 20 6 43 -14 72 -11 76 7 3 14 -1 16 -14 11 -13 -5 -16 -3 -11 10 3 9
2 19 -3 22 -6 4 -10 1 -10 -4 0 -16 -30 -13 -36 2 -3 8 -11 14 -19 14 -8 0
-12 -4 -9 -9z m-47 -83 c-6 -6 -12 -6 -17 0 -9 14 -45 14 -55 0 -5 -6 -7 -4
-5 5 3 8 16 15 31 15 15 1 30 5 34 9 4 3 10 1 14 -6 5 -7 4 -17 -2 -23z"/>
<path d="M403 986 c-13 -6 -23 -14 -23 -18 0 -15 27 -8 45 12 20 22 13 24 -22
6z"/>
<path d="M322 925 c3 -14 2 -25 -3 -25 -4 0 -9 -15 -11 -32 -3 -33 -27 -46
-35 -20 -3 6 2 12 11 12 18 0 21 15 6 25 -12 8 -53 -33 -45 -45 4 -6 1 -10 -4
-10 -17 0 -13 -40 4 -46 12 -5 12 -11 -5 -43 -13 -26 -15 -38 -7 -39 7 -1 40
-4 75 -7 60 -5 62 -5 62 18 0 28 -37 34 -56 9 -12 -15 -12 -15 -7 6 4 16 1 22
-11 22 -19 0 -21 11 -4 28 9 9 9 12 0 12 -21 0 -13 15 18 33 27 16 32 17 45 3
10 -10 12 -17 4 -21 -11 -8 -7 -10 70 -53 42 -23 49 -45 11 -35 -11 3 -20 0
-20 -6 0 -14 36 -9 52 7 7 7 17 12 23 12 19 0 48 37 35 45 -5 3 -8 11 -4 16 4
6 10 6 18 0 7 -6 17 -7 22 -3 5 4 -1 -5 -14 -19 l-23 -26 28 4 c50 8 56 12 44
27 -6 7 -7 17 -3 21 4 5 1 5 -5 1 -16 -9 -49 9 -93 51 -19 18 -43 33 -53 33
-28 0 -57 -19 -58 -38 0 -12 -3 -10 -10 6 -5 13 -7 28 -3 33 3 5 0 9 -5 9 -6
0 -11 5 -11 10 0 6 15 10 33 10 27 1 29 2 14 11 -10 6 -27 9 -38 6 -10 -3 -19
-2 -19 3 0 4 -7 11 -16 14 -13 5 -15 1 -12 -19z m162 -81 c10 -26 0 -28 -23
-5 -20 20 -20 21 -2 21 10 0 22 -7 25 -16z m-64 -10 c0 -8 -4 -12 -10 -9 -5 3
-10 10 -10 16 0 5 5 9 10 9 6 0 10 -7 10 -16z m54 -20 c9 -3 16 -12 16 -20 0
-17 -26 -8 -34 12 -6 16 -4 17 18 8z m-200 -20 c6 -15 4 -15 -11 -3 -10 7 -20
15 -22 16 -2 2 3 3 11 3 9 0 19 -7 22 -16z"/>
<path d="M869 943 c-1 -5 -1 -11 -1 -15 1 -3 -17 -4 -38 -1 -33 5 -40 3 -40
-11 0 -14 8 -17 43 -15 24 2 47 0 53 -4 6 -3 18 3 28 15 15 17 15 22 5 29 -9
5 -17 3 -22 -7 -5 -8 -13 -12 -19 -8 -6 4 -5 10 3 15 10 6 11 9 2 9 -7 0 -14
-3 -14 -7z"/>
<path d="M760 930 c0 -5 5 -10 10 -10 6 0 10 5 10 10 0 6 -4 10 -10 10 -5 0
-10 -4 -10 -10z"/>
<path d="M740 921 c0 -6 -6 -8 -12 -6 -7 3 -26 1 -43 -4 -27 -8 -25 -9 23 -10
48 -1 66 9 42 24 -5 3 -10 2 -10 -4z"/>
<path d="M151 862 c-12 -12 -12 -16 2 -24 10 -5 14 -15 10 -26 -6 -15 -5 -15
10 -3 20 16 21 30 4 52 -11 14 -14 15 -26 1z"/>
<path d="M22 847 c-19 -20 -22 -35 -22 -114 l0 -91 43 10 c23 5 44 13 45 19 2
5 8 7 13 3 5 -3 14 6 21 20 6 14 15 26 19 26 4 0 15 3 25 7 10 4 15 2 11 -3
-3 -6 3 -10 13 -11 11 -1 22 2 25 8 4 5 -1 9 -9 9 -8 0 -17 4 -20 9 -10 15 5
43 20 37 8 -3 11 0 7 10 -7 18 -8 18 -27 -2 -10 -10 -16 -11 -16 -4 0 9 -8 7
-24 -3 -21 -14 -26 -14 -36 -2 -7 8 -10 21 -7 30 8 19 -53 38 -66 21 -5 -7 -6
-4 -3 7 3 10 6 22 6 25 0 4 4 1 9 -7 9 -14 31 -7 31 10 0 18 -37 9 -58 -14z
m48 -47 c0 -5 -2 -10 -4 -10 -3 0 -8 5 -11 10 -3 6 -1 10 4 10 6 0 11 -4 11
-10z m0 -33 c0 -5 -7 -6 -16 -3 -9 3 -18 6 -20 6 -2 0 -4 7 -4 15 0 13 3 13
20 3 11 -7 20 -17 20 -21z m-37 -20 c3 -8 -1 -14 -9 -14 -15 0 -18 9 -7 20 9
9 10 9 16 -6z m43 -50 c4 -4 -5 -7 -20 -7 -15 0 -25 4 -22 9 7 10 31 9 42 -2z"/>
<path d="M520 855 c0 -8 71 -37 76 -32 3 2 -1 9 -8 14 -16 12 -68 26 -68 18z"/>
<path d="M678 820 c32 -27 117 -51 144 -41 16 6 18 10 9 16 -8 4 -16 3 -20 -4
-12 -19 -39 -2 -34 20 4 14 0 19 -13 20 -11 0 -39 3 -64 5 l-45 4 23 -20z"/>
<path d="M1016 832 c-3 -5 1 -9 9 -9 8 0 15 4 15 9 0 4 -4 8 -9 8 -6 0 -12 -4
-15 -8z"/>
<path d="M127 809 c4 -13 9 -17 15 -11 11 11 3 32 -12 32 -4 0 -6 -9 -3 -21z"/>
<path d="M560 725 c0 -12 -4 -13 -18 -6 -22 12 -85 -15 -75 -33 5 -8 2 -7 -8
1 -11 9 -20 8 -39 -3 -21 -12 -21 -14 -4 -9 17 4 23 0 26 -19 4 -18 1 -23 -10
-19 -8 3 -17 2 -21 -3 -16 -22 -51 -34 -76 -24 -16 6 -25 6 -25 0 0 -6 8 -10
18 -10 10 0 24 -9 32 -19 7 -11 17 -18 21 -15 4 2 11 -1 15 -7 5 -9 -1 -10
-20 -5 -20 5 -26 3 -21 -5 5 -8 1 -9 -13 -5 -14 5 -28 0 -41 -13 -12 -12 -21
-17 -21 -11 0 5 -6 8 -12 6 -7 -1 -10 -1 -5 1 4 3 7 11 7 19 0 9 -3 13 -7 11
-5 -3 -8 15 -8 40 -1 34 -5 47 -20 56 -21 12 -47 15 -55 7 -3 -3 -18 -14 -35
-25 -32 -21 -56 -26 -66 -13 -3 5 -17 -1 -31 -12 -15 -11 -31 -20 -37 -20 -20
0 -12 -27 11 -38 13 -6 17 -11 10 -11 -10 -1 -10 -6 -1 -22 9 -17 13 -19 20
-8 7 11 9 10 9 -3 0 -10 5 -18 10 -18 6 0 10 8 8 17 -4 23 32 30 47 9 16 -21
71 -28 112 -14 24 9 35 9 46 -1 18 -15 56 -7 117 25 45 24 86 32 76 15 -8 -12
86 -21 100 -10 7 5 18 8 25 7 7 -2 13 2 14 9 0 18 15 28 15 10 0 -14 5 -14 32
-5 27 10 29 12 15 23 -10 7 -17 16 -17 20 0 5 8 1 18 -8 18 -17 65 -20 55 -4
-3 5 1 13 8 18 11 7 9 13 -11 29 -14 11 -20 20 -13 20 18 0 0 53 -20 56 -19 2
-23 -11 -7 -21 16 -10 12 -21 -9 -22 -15 -1 -18 3 -14 15 5 12 -1 11 -20 -7
-14 -12 -30 -20 -36 -17 -5 4 -13 2 -16 -4 -4 -7 -11 -8 -18 -1 -7 5 -28 11
-47 13 -31 3 -35 0 -38 -22 -3 -24 -26 -50 -45 -50 -5 0 -2 11 7 25 9 14 12
25 6 25 -21 0 -9 18 22 33 20 10 39 12 53 7 12 -5 29 -4 39 2 14 8 17 7 12 -1
-11 -17 20 -13 34 4 7 8 16 12 21 9 5 -3 9 0 9 6 0 7 -6 10 -14 7 -8 -3 -17 1
-20 9 -3 9 -10 13 -15 9 -5 -3 -12 -1 -16 5 -9 15 -25 12 -25 -5z m-320 -99
c0 -3 -4 -8 -10 -11 -5 -3 -10 -1 -10 4 0 6 5 11 10 11 6 0 10 -2 10 -4z m390
-11 c7 -9 8 -15 2 -15 -5 0 -12 7 -16 15 -3 8 -4 15 -2 15 2 0 9 -7 16 -15z
m-211 -32 c0 -11 -3 -13 -6 -5 -2 6 -10 9 -15 6 -7 -4 -8 -2 -4 4 11 18 26 14
25 -5z"/>
<path d="M730 715 c7 -8 16 -12 21 -9 5 3 19 -2 31 -10 14 -10 17 -16 8 -16
-11 0 -11 -3 -2 -12 9 -9 15 -9 23 -1 7 7 21 8 39 3 26 -8 61 3 49 15 -15 14
-68 23 -73 12 -3 -8 -11 -4 -22 11 -12 15 -27 22 -51 22 -30 0 -34 -2 -23 -15z"/>
<path d="M1398 713 c6 -2 18 -2 25 0 6 3 1 5 -13 5 -14 0 -19 -2 -12 -5z"/>
<path d="M1398 688 c5 -5 16 -8 23 -6 8 3 3 7 -10 11 -17 4 -21 3 -13 -5z"/>
<path d="M275 668 c8 -20 56 -39 70 -28 7 5 15 7 18 3 4 -3 7 -1 7 5 0 11 -12
16 -67 27 -25 5 -32 3 -28 -7z"/>
<path d="M810 612 c0 -7 -7 -9 -17 -5 -15 5 -16 3 -5 -8 9 -10 15 -10 24 -1 6
6 9 15 5 19 -4 3 -7 1 -7 -5z"/>
<path d="M84 512 c4 -3 14 -7 22 -8 9 -1 13 0 10 4 -4 3 -14 7 -22 8 -9 1 -13
0 -10 -4z"/>
<path d="M610 444 c0 -8 5 -12 10 -9 6 3 10 10 10 16 0 5 -4 9 -10 9 -5 0 -10
-7 -10 -16z"/>
<path d="M88 443 c7 -3 16 -2 19 1 4 3 -2 6 -13 5 -11 0 -14 -3 -6 -6z"/>
<path d="M687 434 c2 -6 13 -9 24 -7 23 6 17 16 -10 18 -11 1 -17 -4 -14 -11z"/>
<path d="M20 396 c0 -9 40 -13 46 -5 3 5 -6 9 -20 9 -14 0 -26 -2 -26 -4z"/>
<path d="M1728 303 c7 -3 16 -2 19 1 4 3 -2 6 -13 5 -11 0 -14 -3 -6 -6z"/>
<path d="M1726 275 c-3 -9 0 -15 9 -15 8 0 15 7 15 15 0 8 -4 15 -9 15 -5 0
-11 -7 -15 -15z"/>
<path d="M1028 73 c6 -2 18 -2 25 0 6 3 1 5 -13 5 -14 0 -19 -2 -12 -5z"/>
<path d="M1138 43 c7 -3 16 -2 19 1 4 3 -2 6 -13 5 -11 0 -14 -3 -6 -6z"/>
<path d="M1285 45 c23 -8 85 -10 85 -3 0 4 -21 8 -47 7 -27 0 -43 -2 -38 -4z"/>
<path d="M650 9 c0 -5 5 -7 10 -4 6 3 10 8 10 11 0 2 -4 4 -10 4 -5 0 -10 -5
-10 -11z"/>
<path d="M1300 10 c-12 -8 -11 -10 7 -10 12 0 25 5 28 10 8 13 -15 13 -35 0z"/>
</g>
</svg>
