<?xml version="1.0" standalone="no"?>
<!DOCTYPE svg PUBLIC "-//W3C//DTD SVG 20010904//EN"
 "http://www.w3.org/TR/2001/REC-SVG-20010904/DTD/svg10.dtd">
<svg version="1.0" xmlns="http://www.w3.org/2000/svg"
 width="175.000000pt" height="203.000000pt" viewBox="0 0 175.000000 203.000000"
 preserveAspectRatio="xMidYMid meet">

<g transform="translate(0.000000,203.000000) scale(0.100000,-0.100000)"
fill="#000000" stroke="none">
<path d="M5 2020 c-7 -12 2 -30 16 -30 5 0 9 7 9 15 0 8 5 15 11 15 6 0 9 -9
6 -19 -3 -14 2 -21 17 -25 32 -9 35 -8 29 14 -5 19 -1 20 58 16 70 -5 99 -13
99 -28 0 -5 -6 -6 -12 -2 -9 5 -8 2 1 -10 8 -9 17 -13 20 -8 10 15 49 24 56
12 5 -8 10 -8 20 0 9 8 40 5 111 -10 105 -21 174 -39 174 -44 0 -2 -21 -2 -47
1 -42 4 -45 3 -28 -9 24 -15 87 -17 98 -3 5 6 12 5 20 -5 6 -8 22 -14 35 -12
12 2 22 -1 22 -7 0 -6 9 -11 20 -11 11 0 20 -4 20 -9 0 -5 8 -8 18 -7 9 0 16
-4 15 -11 -1 -6 14 -18 35 -28 20 -9 45 -20 55 -26 10 -5 22 -7 27 -4 16 10
67 -23 74 -47 4 -16 9 -19 14 -11 8 12 24 12 54 -1 9 -4 21 -5 27 -2 5 4 14
-1 19 -10 5 -10 16 -15 24 -12 17 7 42 -10 51 -34 7 -19 27 -25 27 -8 0 20 48
-21 54 -46 5 -20 13 -24 41 -24 23 0 34 -4 32 -12 -1 -7 4 -12 11 -11 6 2 12
-4 12 -13 0 -10 6 -14 15 -10 10 3 15 -1 15 -13 0 -17 7 -25 75 -81 17 -14 32
-29 33 -35 2 -5 5 -20 9 -32 6 -26 13 -28 32 -10 11 10 13 9 8 -5 -4 -11 3
-24 20 -36 27 -19 27 -20 5 -26 -24 -8 -27 -17 -13 -32 9 -8 23 -77 25 -116 0
-10 4 -18 9 -18 5 0 4 -7 -3 -15 -7 -9 -8 -15 -2 -15 5 0 8 -8 5 -19 -3 -10 0
-22 6 -25 6 -4 9 -17 6 -29 -3 -12 1 -31 9 -42 14 -18 16 -9 12 105 -2 69 -1
118 2 110 2 -8 11 -30 18 -48 7 -18 10 -31 6 -28 -4 2 -6 -26 -6 -62 1 -37 -3
-75 -7 -84 -6 -10 -5 -19 1 -23 14 -9 2 -31 -18 -32 -13 -1 -18 5 -18 20 1 29
-28 29 -32 0 -2 -13 2 -23 8 -23 7 0 0 -13 -13 -30 -14 -16 -29 -40 -33 -52
-4 -13 -12 -26 -18 -30 -8 -6 -6 -11 4 -19 12 -8 10 -9 -7 -4 -30 8 -65 -12
-59 -33 7 -21 -3 -36 -28 -45 -11 -4 -16 -13 -12 -22 3 -8 -3 -19 -12 -24 -9
-6 -13 -11 -9 -11 4 0 -6 -13 -23 -30 -16 -16 -30 -34 -30 -40 0 -6 -5 -8 -10
-5 -6 3 -13 -1 -16 -9 -3 -9 -13 -16 -21 -16 -9 0 -31 -9 -49 -21 -19 -11 -34
-17 -34 -13 0 4 -6 -1 -14 -11 -8 -11 -13 -26 -11 -35 1 -8 -3 -21 -11 -28 -8
-7 -14 -10 -14 -6 0 4 -9 -2 -20 -14 -18 -19 -39 -27 -62 -23 -5 0 -8 -4 -8
-10 0 -5 -4 -7 -10 -4 -5 3 -10 -2 -10 -12 0 -15 -2 -16 -10 -3 -8 12 -10 12
-16 -3 -3 -9 -10 -15 -14 -12 -5 3 -11 -4 -15 -15 -7 -22 -20 -26 -30 -10 -8
12 -45 13 -45 1 0 -15 -39 -19 -51 -5 -9 11 -8 15 4 20 8 3 21 4 28 3 15 -3
114 55 126 74 5 7 15 17 24 22 9 6 34 24 57 40 40 29 47 45 24 53 -7 2 -10 -2
-6 -12 3 -9 1 -16 -5 -16 -6 0 -24 -14 -40 -31 -17 -17 -34 -28 -40 -25 -5 3
-22 1 -37 -4 -33 -13 -39 -8 -23 18 16 26 6 50 -28 63 -27 10 -39 9 -77 -7
-16 -6 -18 -4 -13 9 5 13 -3 19 -33 28 l-40 12 27 17 c31 19 52 16 80 -8 10
-10 34 -18 53 -19 19 0 64 -3 99 -6 41 -3 69 -1 77 7 32 28 44 36 52 36 4 0
26 19 47 42 22 23 31 36 20 31 -15 -8 -25 -8 -37 1 -10 7 -15 16 -11 19 3 4 7
18 9 32 3 27 -19 40 -79 44 -10 0 -15 5 -12 11 4 7 -3 7 -20 0 -16 -6 -33 -6
-43 -1 -9 5 -21 9 -27 9 -5 0 -11 5 -13 11 -2 6 7 8 22 5 19 -3 26 0 26 11 0
24 26 17 59 -16 17 -17 31 -26 31 -22 0 5 15 10 33 11 76 5 143 15 154 24 7 5
24 11 38 12 30 4 30 4 39 33 9 30 -26 66 -57 58 -20 -6 -21 -5 -5 8 21 17 14
27 -21 28 -15 0 -20 3 -11 6 8 3 22 11 30 18 8 7 26 16 40 20 14 4 36 15 50
25 31 21 50 16 50 -14 0 -19 4 -22 25 -18 26 4 32 16 15 27 -5 3 -7 30 -5 60
4 36 2 55 -5 55 -6 0 -9 -4 -5 -9 3 -5 1 -12 -4 -15 -5 -4 -12 2 -14 11 -4 17
-5 17 -6 0 0 -10 -5 -15 -11 -12 -6 3 -10 -4 -10 -17 0 -18 -2 -20 -10 -8 -9
13 -10 13 -10 0 -1 -12 -3 -11 -11 2 -11 20 -9 49 6 61 6 5 3 7 -7 3 -26 -8
-48 3 -41 22 5 11 2 14 -10 9 -10 -4 -17 -2 -17 4 0 7 11 9 24 7 28 -6 41 14
27 40 -7 12 -3 25 12 47 51 70 51 67 -27 128 -42 34 -81 57 -96 57 -31 0 -61
19 -43 27 21 8 15 23 -13 34 -25 9 -26 11 -10 28 9 9 16 22 16 27 0 5 -5 1
-11 -8 -13 -23 -29 -23 -29 -2 0 13 -7 15 -34 11 -19 -3 -39 0 -45 6 -9 9 -14
8 -21 -2 -7 -12 -12 -12 -34 2 -14 9 -32 17 -41 17 -11 0 -14 8 -11 34 3 25
-1 39 -15 52 -10 9 -19 14 -19 11 0 -4 -9 2 -19 12 -27 27 -72 38 -166 40 -53
1 -88 7 -104 18 -18 12 -26 13 -29 4 -3 -9 -7 -9 -18 0 -8 6 -14 9 -14 6 0 -3
-26 5 -58 17 -37 15 -70 21 -95 18 -28 -3 -37 -1 -37 11 0 8 -8 25 -18 37 -17
21 -19 21 -35 5 -19 -19 -23 -50 -5 -39 8 5 9 2 5 -9 -3 -10 -2 -17 2 -17 5 0
12 6 14 13 3 6 6 2 6 -10 1 -13 -2 -23 -6 -23 -15 1 -43 27 -36 34 4 4 -3 9
-15 13 -12 3 -22 10 -22 15 0 5 -9 21 -20 35 -11 14 -20 20 -20 13 0 -9 -13
-11 -45 -7 -24 3 -47 2 -50 -2 -2 -5 -21 -12 -41 -15 -26 -5 -34 -11 -30 -22
4 -11 0 -14 -17 -12 -31 4 -47 22 -47 52 0 14 -5 28 -12 32 -8 5 -9 2 -5 -11
6 -15 3 -17 -23 -13 l-30 5 0 -74 c0 -40 2 -73 4 -73 17 0 66 24 70 36 3 8 15
14 26 14 11 0 20 5 20 11 0 5 5 7 10 4 8 -5 7 -11 -1 -21 -14 -17 2 -19 19 -2
9 9 12 8 12 -4 0 -17 -26 -33 -49 -29 -9 2 -12 -3 -8 -13 7 -19 6 -19 -29 -6
-20 8 -32 7 -50 -5 -21 -14 -24 -23 -24 -85 0 -38 5 -72 10 -75 6 -3 10 -13
10 -21 0 -8 -4 -13 -9 -9 -6 3 -9 -4 -8 -14 1 -16 11 -22 47 -26 25 -4 58 -11
73 -17 34 -13 47 -3 21 17 -16 12 -17 14 -2 15 9 0 21 -13 28 -32 7 -18 14
-27 17 -20 3 6 9 9 14 6 6 -3 5 -11 -2 -20 -6 -8 -8 -14 -4 -14 3 0 -7 -13
-23 -29 -18 -19 -32 -45 -36 -70 -6 -37 -8 -40 -29 -32 -16 6 -22 17 -23 42
-1 54 -2 55 -44 72 -32 12 -40 13 -40 2 0 -7 6 -16 12 -18 10 -4 10 -6 1 -6
-10 -1 -13 -26 -13 -92 0 -80 2 -90 15 -79 19 15 19 11 1 -32 -11 -25 -15 -85
-16 -235 l-1 -201 47 14 c25 7 50 11 55 8 5 -3 9 0 9 5 0 6 -4 11 -9 11 -6 0
-27 15 -47 34 -28 26 -35 38 -29 52 5 11 7 22 7 26 -1 5 4 8 12 8 8 0 16 6 18
12 3 9 15 8 45 -6 34 -15 43 -25 51 -57 6 -22 6 -39 1 -39 -5 0 -9 8 -9 17 0
12 -3 14 -11 6 -8 -8 -7 -17 3 -32 12 -20 10 -24 -11 -42 -14 -11 -18 -19 -10
-19 8 0 15 -11 15 -25 1 -13 -1 -24 -5 -23 -26 3 -51 -5 -72 -23 -13 -11 -25
-16 -27 -10 -2 5 -10 7 -18 4 -11 -4 -14 -26 -14 -94 0 -75 2 -89 16 -89 13 0
14 -3 5 -14 -7 -8 -9 -25 -5 -40 4 -18 2 -26 -7 -26 -7 0 0 -13 16 -30 16 -16
25 -30 20 -30 -4 0 3 -10 17 -23 25 -24 71 -45 98 -46 141 -7 149 -5 184 24
25 21 32 33 25 41 -7 8 -7 14 1 19 5 3 10 0 10 -7 1 -9 5 -7 14 4 7 10 16 15
19 11 4 -3 7 1 7 10 0 21 18 31 33 19 7 -5 26 -8 42 -7 17 1 40 -5 51 -12 18
-11 31 -12 68 -2 26 6 50 9 53 5 4 -3 -1 -6 -10 -6 -10 0 -17 -4 -17 -10 0 -5
0 -13 0 -17 0 -4 16 -9 36 -11 25 -2 39 2 48 14 10 13 21 15 47 10 19 -4 44
-7 57 -8 24 -2 31 -18 7 -18 -18 0 -20 -16 -2 -24 6 -3 -7 -4 -30 -2 -25 2
-41 -1 -40 -7 1 -5 -14 -14 -33 -19 -19 -6 -39 -15 -43 -21 -6 -9 -10 -9 -14
0 -4 10 -9 10 -24 -1 -14 -9 -31 -11 -55 -6 -19 4 -36 4 -39 0 -3 -4 -22 -11
-42 -15 -21 -4 -44 -12 -52 -18 -7 -6 -20 -13 -30 -15 -42 -9 -71 -13 -126
-17 -119 -10 -149 -15 -158 -28 -5 -7 -6 -2 -1 13 7 25 6 25 -14 7 -25 -23
-92 -29 -92 -9 0 8 -6 12 -14 9 -8 -3 -17 -1 -20 6 -2 7 -5 0 -5 -15 -1 -23 3
-28 24 -28 14 0 25 -6 25 -12 0 -8 7 -5 15 6 13 17 15 18 15 3 0 -10 8 -17 20
-17 14 0 18 5 13 16 -4 12 -2 15 8 12 8 -3 13 -10 12 -16 -2 -6 20 -9 57 -8
36 2 61 -1 64 -8 3 -7 5 -6 5 2 1 7 6 10 12 7 5 -4 19 3 30 16 15 17 22 20 31
11 9 -9 8 -12 -5 -12 -9 0 -19 -11 -23 -25 -3 -14 -14 -25 -23 -26 -9 0 -25
-2 -36 -5 -11 -2 -67 -6 -125 -9 -58 -2 -108 -4 -112 -5 -5 0 -8 -22 -8 -50
l0 -50 875 0 875 0 0 413 0 412 -26 -42 c-14 -24 -27 -43 -29 -43 -2 0 9 29
26 65 l29 65 0 580 0 580 -869 0 c-569 0 -872 -3 -876 -10z m292 -6 c-3 -3
-12 -4 -19 -1 -8 3 -5 6 6 6 11 1 17 -2 13 -5z m223 -34 c47 -10 99 -24 115
-30 28 -9 27 -10 -10 -4 -76 10 -250 52 -220 53 17 0 68 -8 115 -19z m1168
-105 c-8 -8 -247 -9 -255 -2 -3 4 54 7 127 7 73 0 131 -2 128 -5z m-441 -12
c-20 -2 -52 -2 -70 0 -17 2 0 4 38 4 39 0 53 -2 32 -4z m98 -198 c158 -106
250 -206 330 -363 25 -48 47 -105 50 -127 5 -30 -2 -19 -27 45 -46 116 -81
173 -152 249 -85 88 -338 280 -372 281 -5 0 -20 10 -34 21 -43 34 119 -49 205
-106z m-1008 60 c18 -38 117 -95 164 -95 29 0 29 0 13 -25 -13 -20 -14 -28 -4
-40 11 -13 7 -15 -31 -12 -43 3 -119 30 -119 42 0 3 3 4 8 1 4 -2 18 1 31 8
17 10 20 15 11 21 -7 4 -15 3 -19 -3 -4 -6 -24 -13 -45 -16 -36 -4 -38 -3 -32
19 6 23 4 24 -24 19 -23 -5 -30 -3 -30 10 0 9 -4 16 -10 16 -15 0 -12 26 5 40
11 9 15 9 15 1 0 -7 4 -9 10 -6 5 3 -1 16 -16 28 l-25 22 41 2 c37 1 43 -2 57
-32z m327 -54 c5 -30 4 -32 -11 -20 -15 13 -16 11 -9 -16 5 -22 4 -26 -4 -15
-13 20 -13 63 2 78 14 14 14 15 22 -27z m-474 -71 c-20 -13 -33 -13 -25 0 3 6
14 10 23 10 15 0 15 -2 2 -10z m596 -55 c13 -14 25 -21 28 -16 3 4 24 11 47
14 23 3 46 11 50 19 7 10 10 10 21 -1 7 -8 8 -11 2 -8 -5 3 -23 -4 -38 -17
-26 -20 -27 -24 -13 -38 14 -14 14 -18 1 -34 -12 -17 -13 -17 -8 -1 7 18 4 19
-53 22 -41 3 -77 16 -107 39 -22 17 -12 40 15 33 11 -3 17 -1 13 4 -12 20 20
7 42 -16z m-467 8 c-5 -29 3 -33 21 -12 10 13 19 21 20 17 0 -4 -8 -17 -17
-28 -13 -14 -20 -17 -30 -8 -9 7 -13 7 -13 -1 0 -6 -4 -11 -10 -11 -11 0 -1
32 14 42 14 10 16 10 15 1z m-45 -17 c-3 -8 -12 -12 -21 -9 -12 5 -12 7 -1 14
20 13 28 11 22 -5z m116 -6 c0 -5 -2 -10 -4 -10 -3 0 -8 5 -11 10 -3 6 -1 10
4 10 6 0 11 -4 11 -10z m113 -35 c-9 -19 -20 -35 -23 -35 -11 0 2 54 14 62 22
15 25 7 9 -27z m727 9 c0 -8 -9 -14 -20 -14 -22 0 -26 10 -8 28 13 13 28 7 28
-14z m-560 -85 c0 -21 16 -26 23 -6 3 6 6 2 6 -10 1 -13 6 -23 11 -23 6 0 10
-7 10 -16 0 -14 -7 -15 -39 -10 -22 3 -42 2 -45 -3 -10 -16 -59 -23 -67 -9 -6
9 -9 4 -9 -15 0 -21 -6 -30 -21 -34 -16 -4 -19 -12 -17 -36 3 -35 -42 -90 -67
-80 -8 3 -15 0 -15 -6 0 -6 7 -11 16 -11 11 0 14 -6 8 -22 -6 -21 -6 -22 19
-5 23 15 26 15 31 0 8 -19 -12 -45 -27 -36 -7 4 -8 -5 -4 -25 4 -18 5 -32 3
-32 -2 0 -15 11 -30 25 -30 28 -66 33 -66 10 0 -12 -7 -14 -27 -9 -15 4 -42 8
-60 8 -17 1 -35 5 -40 10 -5 5 -1 7 10 3 9 -4 17 -4 17 0 0 3 -8 12 -17 19
-21 16 -1 19 26 5 11 -7 40 -4 87 9 38 10 59 19 47 19 -27 1 -29 13 -7 31 30
26 37 50 18 71 -9 10 -21 16 -26 13 -8 -5 -2 32 6 43 1 1 25 3 53 5 47 3 52 5
57 30 4 20 16 30 53 44 66 24 79 35 57 47 -13 7 -14 11 -3 18 17 10 29 2 29
-22z m265 13 c-3 -3 -11 0 -18 7 -9 10 -8 11 6 5 10 -3 15 -9 12 -12z m158
-39 c7 -10 4 -13 -10 -13 -17 0 -19 5 -15 28 3 16 7 21 10 12 3 -8 9 -21 15
-27z m307 -18 c0 -8 -7 -15 -15 -15 -9 0 -12 6 -9 15 4 8 10 15 15 15 5 0 9
-7 9 -15z m-300 -32 c28 -24 25 -31 -20 -44 -22 -7 -47 -20 -56 -30 -9 -10
-23 -15 -32 -13 -15 5 -15 4 -2 -8 21 -18 25 -42 5 -35 -12 5 -15 -1 -15 -26
l0 -33 -65 -1 -66 0 22 24 c13 12 31 23 42 23 14 0 17 5 13 16 -4 9 -1 23 5
30 6 8 7 14 2 14 -5 0 -9 8 -10 19 -2 24 64 55 118 56 39 0 51 9 27 18 -10 4
-10 6 -1 6 7 1 22 -7 33 -16z m-926 -25 c19 -30 29 -85 16 -93 -6 -4 -10 5
-10 19 0 15 -8 31 -20 38 -20 13 -26 38 -13 51 9 10 11 9 27 -15z m616 -28 c0
-5 -4 -10 -10 -10 -5 0 -10 5 -10 10 0 6 5 10 10 10 6 0 10 -4 10 -10z m-490
-30 c8 -5 11 -10 5 -10 -5 0 -17 5 -25 10 -8 5 -10 10 -5 10 6 0 17 -5 25 -10z
m1075 0 c3 -5 1 -10 -4 -10 -6 0 -11 5 -11 10 0 6 2 10 4 10 3 0 8 -4 11 -10z
m-1051 -36 c24 -9 19 -19 -9 -19 -25 0 -31 6 -18 18 8 8 8 8 27 1z m546 -4 c0
-5 -5 -10 -11 -10 -5 0 -7 5 -4 10 3 6 8 10 11 10 2 0 4 -4 4 -10z m353 -24
c20 -20 22 -26 10 -30 -8 -4 -11 -1 -8 5 4 6 -2 13 -14 16 -12 3 -21 12 -21
19 0 19 5 18 33 -10z m-981 -18 c-7 -7 -12 -8 -12 -2 0 14 12 26 19 19 2 -3
-1 -11 -7 -17z m272 -9 c-3 -5 -10 -7 -15 -3 -5 3 -7 10 -3 15 3 5 10 7 15 3
5 -3 7 -10 3 -15z m-392 -21 c-7 -7 -12 -8 -12 -2 0 14 12 26 19 19 2 -3 -1
-11 -7 -17z m32 -3 c3 -8 1 -15 -4 -15 -6 0 -10 7 -10 15 0 8 2 15 4 15 2 0 6
-7 10 -15z m446 5 c0 -5 -2 -10 -4 -10 -3 0 -8 5 -11 10 -3 6 -1 10 4 10 6 0
11 -4 11 -10z m-405 -20 c-3 -5 -11 -10 -16 -10 -6 0 -7 5 -4 10 3 6 11 10 16
10 6 0 7 -4 4 -10z m34 -14 c9 -10 8 -15 -4 -20 -10 -4 -15 1 -15 14 0 24 4
25 19 6z m338 -8 c-3 -8 -6 -5 -6 6 -1 11 2 17 5 13 3 -3 4 -12 1 -19z m1170
-10 c-3 -7 -5 -2 -5 12 0 14 2 19 5 13 2 -7 2 -19 0 -25z m-790 16 c-3 -3 -12
-4 -19 -1 -8 3 -5 6 6 6 11 1 17 -2 13 -5z m223 -28 c0 -3 -4 -8 -10 -11 -5
-3 -10 -1 -10 4 0 6 5 11 10 11 6 0 10 -2 10 -4z m-133 -23 c-4 -3 -2 -12 4
-20 9 -10 8 -13 -5 -13 -9 0 -16 8 -16 20 0 11 5 20 12 20 6 0 8 -3 5 -7z m63
-63 c0 -11 -4 -20 -9 -20 -5 0 -7 9 -4 20 3 11 7 20 9 20 2 0 4 -9 4 -20z
m-195 -20 c3 -5 -1 -10 -9 -10 -9 0 -16 5 -16 10 0 6 4 10 9 10 6 0 13 -4 16
-10z m382 3 c-10 -10 -82 -24 -117 -24 -20 1 -30 -2 -23 -6 6 -5 14 -19 18
-33 5 -23 2 -27 -39 -39 l-44 -13 -40 40 c-49 49 -39 66 34 59 26 -2 58 1 70
8 22 11 152 19 141 8z m-641 -23 c11 1 31 2 45 1 26 -1 26 -2 -19 -46 l-45
-45 27 -21 c33 -26 34 -43 2 -35 -32 8 -87 -4 -79 -17 3 -5 0 -8 -8 -5 -8 2
-23 23 -34 46 -13 28 -27 42 -39 42 -15 0 -17 3 -8 12 9 9 18 9 37 0 31 -14
72 -16 79 -3 3 5 0 11 -8 14 -12 5 -11 11 2 40 10 19 20 30 23 25 3 -5 15 -9
25 -8z m264 -20 c0 -5 -4 -10 -10 -10 -5 0 -10 5 -10 10 0 6 5 10 10 10 6 0
10 -4 10 -10z m700 -24 c0 -2 -7 -9 -15 -16 -13 -11 -14 -10 -9 4 5 14 24 23
24 12z m-795 -30 c12 -11 12 -16 -1 -32 -14 -18 -15 -18 -9 4 4 13 2 22 -4 22
-6 0 -11 5 -11 10 0 14 9 12 25 -4z m435 2 c0 -9 3 -9 12 0 14 14 48 16 48 3
0 -5 -7 -14 -15 -21 -12 -10 -15 -10 -15 1 0 11 -2 11 -8 1 -7 -9 -13 -8 -27
8 -10 11 -13 20 -7 20 7 0 12 -5 12 -12z m-1010 -48 c0 -5 11 -12 24 -16 14
-3 27 -12 30 -20 3 -8 13 -14 23 -14 17 -1 17 -1 0 -11 -20 -11 -41 -3 -31 13
4 6 -1 8 -14 4 -14 -5 -27 2 -46 24 -31 38 -34 55 -6 40 11 -6 20 -15 20 -20z
m680 21 c0 -12 -20 -25 -27 -18 -7 7 6 27 18 27 5 0 9 -4 9 -9z m651 -14 c-10
-9 -11 -8 -5 6 3 10 9 15 12 12 3 -3 0 -11 -7 -18z m-546 3 c-11 -5 -27 -9
-35 -9 -13 -1 -13 0 0 9 8 5 24 9 35 9 l20 0 -20 -9z m335 6 c0 -2 -7 -7 -16
-10 -8 -3 -12 -2 -9 4 6 10 25 14 25 6z m-190 -28 c0 -16 -3 -19 -11 -11 -6 6
-19 9 -28 5 -14 -5 -14 -4 -2 11 19 24 41 21 41 -5z m-818 -20 c-7 -7 -12 -8
-12 -2 0 14 12 26 19 19 2 -3 -1 -11 -7 -17z m1190 -10 c-7 -7 -10 -5 -7 8 5
29 6 30 12 16 3 -8 1 -18 -5 -24z m-1052 -28 c-6 -11 -16 -20 -22 -20 -6 0 -3
9 7 20 10 11 20 20 22 20 2 0 -1 -9 -7 -20z m-90 -21 c0 -6 -4 -7 -10 -4 -5 3
-10 11 -10 16 0 6 5 7 10 4 6 -3 10 -11 10 -16z m335 1 c3 -5 2 -10 -4 -10 -5
0 -13 5 -16 10 -3 6 -2 10 4 10 5 0 13 -4 16 -10z m66 -36 c33 -17 36 -46 5
-52 -15 -3 -18 0 -13 17 3 11 -1 25 -9 32 -11 9 -14 7 -14 -10 0 -22 -24 -29
-36 -10 -5 8 -9 8 -14 -1 -4 -7 -13 -9 -20 -5 -8 5 1 14 26 25 22 10 40 19 42
19 2 1 17 -6 33 -15z m359 6 c0 -5 -2 -10 -4 -10 -3 0 -8 5 -11 10 -3 6 -1 10
4 10 6 0 11 -4 11 -10z m-725 -11 c4 -5 19 -15 33 -21 16 -6 22 -12 14 -15 -6
-3 -9 -9 -6 -15 4 -6 -1 -8 -11 -6 -19 3 -62 68 -45 68 5 0 12 -5 15 -11z
m705 -4 c11 -13 10 -14 -4 -9 -9 3 -16 10 -16 15 0 13 6 11 20 -6z m-621 -4
c7 -5 10 -14 7 -20 -4 -6 -2 -11 4 -11 6 0 8 -5 5 -11 -7 -11 -55 26 -55 43 0
10 21 10 39 -1z m-251 -23 c-2 -7 5 -12 14 -10 9 1 19 -2 23 -8 3 -5 -3 -10
-14 -10 -11 0 -24 -7 -28 -15 -8 -14 -11 -14 -28 0 -20 15 -20 15 4 35 27 23
32 25 29 8z m201 -39 c20 -7 31 -18 31 -31 0 -15 -4 -18 -21 -13 -12 4 -28 8
-35 9 -21 3 -29 16 -9 16 14 0 15 3 5 15 -15 18 -12 18 29 4z m461 -21 c0 -11
-28 -10 -35 1 -3 6 4 9 15 8 11 -1 20 -5 20 -9z m-780 -7 c0 -6 -4 -13 -10
-16 -5 -3 -10 1 -10 9 0 9 5 16 10 16 6 0 10 -4 10 -9z m535 -8 c72 -6 93 -20
31 -20 -25 0 -56 -7 -71 -17 -23 -15 -24 -20 -13 -34 7 -9 -1 -6 -17 8 -17 14
-34 28 -38 31 -15 12 13 51 31 44 9 -3 44 -9 77 -12z m-645 -43 c0 -5 -4 -10
-10 -10 -5 0 -10 5 -10 10 0 6 5 10 10 10 6 0 10 -4 10 -10z m245 -58 c-11
-11 -22 11 -17 35 l5 28 8 -29 c5 -17 7 -32 4 -34z m472 -14 c6 -5 16 -22 21
-38 10 -26 8 -28 -20 -34 -47 -9 -58 -7 -58 10 0 14 3 14 15 4 29 -24 16 11
-15 40 -16 15 -27 30 -23 33 7 8 65 -3 80 -15z m153 12 c8 -5 12 -10 7 -10 -4
0 -1 -13 7 -29 14 -27 14 -29 -11 -40 -22 -10 -25 -9 -20 4 4 8 1 15 -6 16 -7
0 -3 4 8 9 16 7 16 9 4 9 -18 1 -33 27 -23 42 7 11 15 11 34 -1z m-589 -44
c-8 -9 -18 -13 -23 -10 -6 4 -6 10 0 16 6 6 8 18 5 27 -5 14 -4 14 12 -1 15
-14 16 -20 6 -32z m249 -49 c0 -5 -4 -5 -10 -2 -5 3 -10 14 -10 23 0 15 2 15
10 2 5 -8 10 -19 10 -23z m360 -17 c0 -5 -13 -10 -30 -10 -16 0 -30 4 -30 8 0
4 14 9 30 10 17 1 30 -2 30 -8z m-790 -50 c0 -5 -4 -10 -10 -10 -5 0 -10 5
-10 10 0 6 5 10 10 10 6 0 10 -4 10 -10z m450 -150 c0 -5 -10 -12 -22 -16 -13
-4 -26 -12 -30 -18 -6 -8 -10 -7 -16 2 -7 11 -17 9 -48 -7 -26 -13 -55 -19
-86 -17 -27 2 -48 -1 -48 -6 0 -4 -7 -8 -15 -8 -22 0 -14 22 13 37 20 11 94 9
114 -3 5 -3 7 0 6 8 -2 7 6 13 17 14 11 0 27 3 35 6 40 16 80 20 80 8z m47 4
c-3 -3 -12 -4 -19 -1 -8 3 -5 6 6 6 11 1 17 -2 13 -5z"/>
<path d="M350 1650 c0 -5 7 -10 16 -10 8 0 12 5 9 10 -3 6 -10 10 -16 10 -5 0
-9 -4 -9 -10z"/>
<path d="M730 469 c0 -5 5 -7 10 -4 6 3 10 8 10 11 0 2 -4 4 -10 4 -5 0 -10
-5 -10 -11z"/>
<path d="M350 156 c0 -2 7 -6 15 -10 8 -3 15 -1 15 4 0 6 -7 10 -15 10 -8 0
-15 -2 -15 -4z"/>
<path d="M296 1961 c-8 -12 3 -41 15 -41 12 0 12 37 0 45 -5 3 -12 1 -15 -4z"/>
<path d="M437 1939 c7 -7 15 -10 18 -7 3 3 -2 9 -12 12 -14 6 -15 5 -6 -5z"/>
<path d="M120 1920 c0 -5 4 -10 9 -10 6 0 13 5 16 10 3 6 -1 10 -9 10 -9 0
-16 -4 -16 -10z"/>
<path d="M490 1920 c0 -5 5 -10 10 -10 6 0 10 5 10 10 0 6 -4 10 -10 10 -5 0
-10 -4 -10 -10z"/>
<path d="M566 1855 c-7 -8 -17 -11 -21 -7 -5 4 -6 2 -2 -4 7 -13 79 -5 74 9
-5 16 -36 17 -51 2z"/>
<path d="M468 1843 c7 -3 16 -2 19 1 4 3 -2 6 -13 5 -11 0 -14 -3 -6 -6z"/>
<path d="M651 1831 c-11 -7 -9 -11 8 -21 31 -16 46 -8 24 12 -12 11 -23 14
-32 9z"/>
<path d="M1067 1631 c6 -23 21 -37 30 -28 3 3 -4 16 -15 28 l-21 21 6 -21z"/>
<path d="M80 1456 c0 -18 31 -29 44 -16 8 8 7 14 -4 20 -22 14 -40 12 -40 -4z"/>
<path d="M1462 1261 c-10 -6 -10 -10 3 -21 13 -11 15 -9 15 9 0 24 0 24 -18
12z"/>
<path d="M1500 975 c0 -9 -6 -15 -14 -13 -14 3 -16 0 -16 -22 0 -18 17 -11 34
14 10 15 12 27 6 31 -6 3 -10 -1 -10 -10z"/>
<path d="M1460 900 c0 -5 5 -10 10 -10 6 0 10 5 10 10 0 6 -4 10 -10 10 -5 0
-10 -4 -10 -10z"/>
<path d="M1415 810 c4 -6 11 -8 16 -5 14 9 11 15 -7 15 -8 0 -12 -5 -9 -10z"/>
<path d="M1232 773 c-9 -4 -8 -12 5 -36 10 -18 25 -37 33 -44 10 -9 11 -12 3
-13 -7 0 -13 -11 -13 -24 0 -13 -7 -29 -15 -36 -8 -7 -12 -16 -10 -21 3 -4 -4
-13 -16 -19 -15 -9 -18 -15 -10 -23 8 -8 19 -3 41 18 16 16 30 33 30 39 0 5 8
18 17 28 17 20 27 52 13 43 -15 -9 -32 23 -23 42 5 10 9 24 9 32 -1 15 -41 24
-64 14z"/>
<path d="M631 318 c-19 -5 -43 -7 -53 -5 -12 3 -18 1 -15 -6 2 -6 18 -14 35
-18 17 -3 29 -2 26 2 -5 9 11 19 40 23 20 3 34 16 15 15 -8 0 -29 -5 -48 -11z"/>
<path d="M20 306 c0 -21 18 -39 30 -31 9 5 11 4 6 -3 -4 -7 -2 -12 4 -12 16 0
24 30 11 43 -14 14 -51 17 -51 3z"/>
<path d="M490 300 c0 -5 5 -10 11 -10 5 0 7 5 4 10 -3 6 -8 10 -11 10 -2 0 -4
-4 -4 -10z"/>
<path d="M336 274 c-5 -12 -2 -15 10 -10 8 3 23 6 32 6 15 0 15 2 2 10 -22 14
-37 12 -44 -6z"/>
<path d="M290 271 c0 -5 7 -11 14 -14 10 -4 13 -1 9 9 -6 15 -23 19 -23 5z"/>
<path d="M85 230 c-8 -13 15 -13 35 0 12 8 11 10 -7 10 -12 0 -25 -4 -28 -10z"/>
<path d="M35 220 c3 -5 13 -10 21 -10 8 0 14 5 14 10 0 6 -9 10 -21 10 -11 0
-17 -4 -14 -10z"/>
</g>
</svg>
