<?xml version="1.0" standalone="no"?>
<!DOCTYPE svg PUBLIC "-//W3C//DTD SVG 20010904//EN"
 "http://www.w3.org/TR/2001/REC-SVG-20010904/DTD/svg10.dtd">
<svg version="1.0" xmlns="http://www.w3.org/2000/svg"
 width="175.000000pt" height="203.000000pt" viewBox="0 0 175.000000 203.000000"
 preserveAspectRatio="xMidYMid meet">

<g transform="translate(0.000000,203.000000) scale(0.100000,-0.100000)"
fill="#000000" stroke="none">
<path d="M0 2019 c0 -6 7 -9 15 -5 8 3 15 1 15 -3 0 -5 9 -7 20 -4 11 3 17 9
14 14 -8 13 -64 11 -64 -2z"/>
<path d="M88 1993 c4 -32 2 -35 -14 -29 -22 9 -22 9 -51 7 -22 -1 -23 -5 -23
-91 0 -87 1 -90 23 -90 13 0 32 6 42 14 11 8 25 12 32 9 15 -6 18 13 3 22 -5
3 -9 16 -9 28 1 20 2 21 6 2 3 -11 10 -26 16 -34 6 -7 16 -23 22 -35 10 -19
19 -21 95 -22 112 -1 122 -2 115 -14 -3 -5 -12 -7 -20 -4 -8 3 -28 -4 -44 -15
-16 -12 -35 -21 -41 -21 -7 0 -18 -7 -25 -16 -10 -15 -16 -13 -48 20 -41 41
-75 46 -132 19 -31 -15 -35 -21 -35 -55 0 -21 4 -38 10 -38 17 0 50 -39 50
-60 0 -11 5 -20 10 -20 6 0 10 -4 10 -10 0 -5 -18 -3 -40 5 l-40 14 0 -78 0
-78 30 5 c16 2 27 9 24 14 -3 5 0 9 7 7 36 -4 59 2 59 17 0 8 4 12 10 9 6 -3
10 2 10 12 1 17 2 17 13 1 8 -9 22 -15 33 -13 10 2 24 4 29 5 6 1 -3 5 -19 9
-44 9 -33 25 18 26 38 1 46 -2 50 -21 7 -26 -20 -84 -39 -84 -8 0 -19 -9 -24
-19 -10 -17 -6 -20 37 -25 26 -4 76 -8 112 -11 36 -3 80 -7 98 -9 27 -4 33 -2
30 12 -3 12 -12 16 -31 15 -15 -1 -27 3 -27 8 0 6 5 7 10 4 18 -11 10 18 -11
41 l-22 23 29 6 c16 4 34 8 41 10 6 2 17 -3 23 -11 9 -10 9 -14 1 -14 -21 0
-11 -36 19 -65 26 -25 32 -27 55 -17 18 8 24 9 20 1 -11 -17 125 1 168 23 23
12 5 48 -25 48 -15 0 -19 5 -15 20 4 16 -2 22 -34 31 -22 7 -38 13 -36 15 1 2
25 6 52 9 32 4 58 15 74 30 l23 23 -23 32 c-13 18 -41 41 -62 51 -34 18 -39
18 -53 4 -9 -9 -24 -13 -38 -9 -29 7 -126 -48 -126 -71 0 -19 47 -65 67 -65
34 0 28 -17 -10 -29 -50 -17 -75 -2 -68 41 1 10 -71 45 -108 53 -20 4 -30 14
-34 31 -3 16 0 24 10 24 8 0 11 5 7 11 -5 8 -1 8 14 0 11 -6 30 -11 41 -11 12
0 21 -4 21 -10 0 -5 9 -10 21 -10 13 0 18 4 13 12 -4 6 7 23 27 39 26 22 30
29 16 29 -10 0 -17 6 -14 13 2 6 9 12 14 12 6 0 15 3 19 8 4 4 0 7 -9 7 -25 0
-21 18 6 23 19 4 18 4 -5 6 -32 1 -34 8 -11 36 13 16 15 17 10 3 -8 -22 9 -24
17 -3 4 11 11 13 23 7 27 -13 93 -14 93 -2 0 6 -13 16 -29 21 -16 6 -31 16
-34 23 -9 24 -86 69 -104 61 -37 -16 -101 -13 -121 5 -11 10 -36 21 -56 24
-35 6 -76 25 -76 36 0 4 7 15 15 26 13 17 14 17 15 2 0 -23 20 -34 31 -17 5 8
9 9 9 3 0 -7 11 -15 25 -18 14 -4 25 -11 25 -16 0 -16 30 -12 36 5 9 21 27 19
42 -6 l14 -21 19 21 c24 25 57 26 124 2 43 -15 50 -21 47 -41 -3 -20 -1 -22
25 -16 15 4 31 12 34 18 4 6 14 8 24 5 9 -4 13 -11 10 -17 -3 -5 -2 -10 4 -10
6 0 8 -6 5 -13 -3 -8 4 -13 17 -14 17 -2 19 1 8 13 -11 13 -9 14 17 8 39 -9
53 -22 34 -34 -13 -8 -12 -10 3 -10 9 0 17 -6 17 -12 0 -7 7 -2 16 10 13 19
18 21 31 10 8 -6 21 -13 29 -14 7 -1 28 -9 45 -18 18 -9 38 -16 46 -16 7 0 13
-7 13 -15 0 -8 7 -15 15 -15 14 0 19 -11 16 -36 -1 -13 18 -31 39 -36 16 -3
30 -18 30 -31 0 -5 -4 -6 -9 -2 -5 3 -12 1 -16 -5 -10 -16 -28 -12 -21 6 4 11
1 14 -12 12 -18 -3 -30 -48 -13 -48 6 0 11 -5 11 -11 0 -5 -3 -8 -7 -6 -10 6
-8 -40 2 -68 15 -41 14 -45 -6 -45 -16 0 -19 4 -15 16 4 10 0 24 -9 33 -26 27
-64 89 -57 95 3 3 -3 6 -14 6 -10 0 -36 3 -56 6 -34 6 -38 4 -38 -15 0 -12 4
-31 10 -41 9 -17 7 -17 -20 -7 -17 6 -30 17 -30 24 0 7 -4 13 -10 13 -17 0
-11 -26 10 -45 16 -15 18 -21 7 -33 -10 -13 -8 -14 15 -9 15 4 30 3 33 -3 3
-5 0 -10 -7 -10 -18 0 -70 -49 -63 -59 2 -5 -2 -14 -10 -21 -21 -17 -19 -40 3
-40 10 0 23 -5 29 -11 14 -14 81 -31 118 -30 l30 1 -29 -15 c-15 -8 -36 -15
-45 -15 -15 -1 -61 -33 -61 -43 0 -19 185 -26 204 -7 5 5 26 10 46 11 28 0 31
2 15 9 -12 4 -26 15 -33 23 -11 13 -10 17 5 26 14 8 15 10 3 11 -9 0 -21 -5
-27 -11 -6 -6 -20 -8 -32 -4 -20 6 -20 7 9 31 16 14 35 24 42 23 7 -1 27 -1
43 1 26 1 27 3 10 9 -11 5 -26 6 -34 3 -10 -4 -13 1 -9 21 3 14 0 28 -6 31 -7
3 -6 5 2 5 7 1 10 6 7 11 -3 6 -1 10 4 10 6 0 11 7 11 15 0 9 -6 12 -15 9 -11
-5 -15 1 -15 24 0 17 4 34 10 37 5 3 10 13 10 21 0 8 -4 12 -10 9 -5 -3 -10
-2 -10 4 0 20 55 41 86 31 16 -4 23 -9 15 -9 -11 -1 -11 -4 -1 -16 7 -8 17
-12 23 -8 6 4 8 0 4 -10 -3 -9 -1 -19 5 -23 6 -4 8 -3 5 3 -4 6 0 13 8 17 8 3
14 2 14 -2 -4 -25 3 -41 15 -36 11 4 13 0 9 -15 -3 -12 -10 -21 -15 -21 -5 0
-7 4 -4 9 4 5 -3 7 -14 4 -24 -6 -25 -16 -5 -33 8 -7 15 -9 15 -5 0 4 6 2 13
-4 8 -6 17 -8 21 -4 4 4 4 0 1 -9 -4 -9 -1 -19 4 -23 6 -3 9 -11 6 -16 -10
-15 2 -10 21 9 17 16 18 16 10 -3 -10 -24 -19 -65 -10 -48 3 7 12 9 20 6 7 -3
12 -9 9 -14 -3 -4 3 -13 14 -18 22 -12 18 -46 -6 -56 -24 -8 -30 5 -10 20 14
10 15 14 3 24 -10 9 -16 8 -26 -4 -11 -13 -15 -13 -21 -3 -5 9 -8 6 -7 -9 2
-13 7 -19 16 -15 11 4 13 0 8 -16 -6 -17 -2 -23 18 -28 14 -3 26 -11 26 -16 0
-6 7 -7 16 -4 8 3 12 2 9 -4 -3 -6 0 -10 8 -10 8 0 17 -6 20 -14 4 -10 -2 -13
-19 -12 -13 0 -24 3 -24 6 0 3 -24 5 -54 6 -32 1 -63 8 -77 17 -13 10 -28 17
-34 17 -14 -1 37 -40 53 -40 6 0 12 -3 12 -8 0 -14 -154 -11 -177 4 -13 8 -23
10 -23 5 0 -6 -7 -8 -15 -5 -8 3 -26 -3 -40 -14 -21 -16 -22 -21 -9 -26 21 -8
21 -8 27 14 6 24 35 17 33 -8 0 -9 4 -16 10 -15 7 1 10 -6 7 -18 -4 -15 -8
-17 -19 -8 -8 6 -14 7 -14 2 0 -15 21 -32 34 -27 8 3 13 -10 14 -36 2 -34 0
-40 -17 -40 -11 0 -26 6 -33 13 -6 8 -22 11 -35 9 -23 -4 -25 -2 -26 33 -1 49
3 59 15 47 18 -18 30 -14 19 7 -7 13 -18 17 -37 13 -15 -3 -21 -8 -14 -12 6
-4 -18 -5 -54 -4 -36 2 -68 -1 -71 -6 -3 -6 -15 -10 -25 -10 -10 0 -22 -9 -25
-21 -6 -19 -28 -24 -25 -5 1 5 -4 13 -12 17 -10 7 -9 9 5 9 13 0 17 7 15 30
-1 20 -6 26 -12 20 -17 -17 -29 -11 -23 10 3 13 0 20 -9 20 -13 0 -32 -26 -32
-45 -1 -10 -22 -21 -22 -10 0 3 5 16 11 27 8 15 8 19 0 14 -6 -4 -11 -2 -11 3
0 8 -7 7 -20 -1 -27 -17 -37 -2 -15 22 10 11 31 20 47 20 19 0 28 4 25 13 -4
13 -15 13 -143 3 -69 -6 -87 -3 -128 15 -50 22 -67 20 -46 -6 10 -13 9 -15 -9
-15 -31 0 -26 -26 9 -40 33 -14 36 -20 18 -39 -9 -9 -9 -12 -1 -7 6 3 14 0 16
-6 4 -8 8 -4 12 10 8 23 46 30 73 13 22 -13 -6 -60 -42 -69 -17 -5 -33 -6 -36
-3 -15 17 -70 2 -70 -19 0 -18 49 -81 91 -116 43 -36 78 -40 104 -12 7 8 4 9
-8 5 -22 -8 -54 18 -36 29 9 5 6 11 -7 22 -14 10 -15 16 -6 19 10 4 10 8 1 19
-7 8 -9 17 -5 21 3 3 6 1 6 -5 0 -7 9 -12 20 -12 11 0 19 -3 19 -7 -3 -20 3
-23 23 -12 18 9 20 9 15 -4 -8 -21 2 -28 25 -16 25 13 188 37 188 28 0 -4 3
-15 7 -25 5 -13 3 -15 -7 -9 -8 5 -11 4 -6 -3 7 -12 33 -18 118 -27 52 -6 57
-5 51 11 -5 13 -3 15 7 9 7 -4 27 -10 43 -12 17 -1 34 -9 39 -16 4 -6 8 -7 8
-2 0 6 9 -5 20 -22 20 -34 40 -43 40 -19 0 8 8 17 18 21 14 5 15 4 5 -6 -19
-19 -16 -28 7 -22 11 3 17 10 13 17 -4 6 1 5 10 -3 9 -7 17 -9 17 -4 0 4 18 7
40 5 22 -2 38 -8 35 -12 -3 -5 5 -6 17 -3 18 5 21 3 11 -7 -9 -10 -8 -16 3
-27 18 -18 18 -34 1 -27 -8 3 -14 -2 -14 -11 0 -8 6 -15 14 -15 7 0 13 -4 13
-10 0 -5 -7 -6 -17 -3 -11 4 -14 3 -9 -5 4 -7 15 -12 25 -12 14 0 17 -6 13
-26 -3 -19 -7 -22 -13 -12 -6 9 -9 10 -9 1 0 -7 -13 -19 -30 -28 -16 -9 -30
-13 -30 -9 0 3 -11 -1 -25 -10 -15 -10 -25 -12 -25 -6 0 7 -8 9 -21 5 -14 -5
-19 -3 -15 3 3 6 2 13 -4 17 -5 3 -15 15 -20 25 -8 16 -8 18 5 14 8 -4 15 -10
15 -15 0 -5 11 -15 23 -24 21 -14 27 -14 55 1 18 8 32 18 32 20 0 3 -4 3 -8 0
-5 -3 -28 4 -51 16 -29 14 -38 23 -30 29 10 6 10 11 0 23 -8 9 -19 16 -26 16
-7 0 -15 9 -18 20 -3 11 -9 20 -14 18 -4 -1 -23 6 -40 15 -18 10 -33 14 -33
10 0 -4 -5 -2 -12 5 -17 17 -70 15 -94 -3 -10 -8 -26 -15 -35 -15 -8 0 -27
-13 -42 -28 -27 -28 -27 -29 -12 -67 l16 -37 82 7 c45 4 86 7 91 8 4 1 10 -7
12 -19 2 -13 -2 -21 -11 -21 -8 0 -15 4 -15 9 0 4 -7 8 -15 8 -20 0 -19 -6 10
-44 14 -18 25 -40 25 -49 0 -10 7 -17 15 -17 9 0 15 -6 13 -12 -3 -18 24 -58
41 -58 16 0 7 -63 -15 -97 -19 -30 -27 -29 -63 4 -16 16 -54 48 -85 73 -36 29
-59 57 -66 80 -17 53 -30 65 -90 90 -116 46 -107 42 -85 50 17 6 16 7 -8 12
-15 3 -27 1 -27 -3 0 -5 -7 -9 -16 -9 -17 0 -46 25 -38 33 11 11 -17 46 -36
44 -27 -2 -25 -25 3 -37 26 -10 24 -11 -26 -14 -22 -2 -43 -9 -47 -17 -6 -8
-7 5 -5 33 3 41 2 45 -16 41 -23 -6 -24 0 -3 21 8 9 13 20 9 26 -8 13 -70 42
-87 39 -24 -3 -42 1 -35 8 7 7 -16 25 -60 48 -25 13 -27 12 -42 -18 -17 -33
-41 -48 -41 -25 0 8 -12 19 -28 25 -26 10 -25 11 18 12 l45 1 -30 20 c-16 11
-36 18 -44 15 -11 -4 -11 -2 -2 9 19 22 8 62 -28 103 -32 36 -34 37 -42 17 -6
-17 -13 -20 -36 -16 -15 3 -31 10 -35 16 -12 19 -19 -18 -16 -85 l3 -64 42 0
c68 0 73 -19 8 -35 -56 -13 -67 -23 -40 -34 15 -5 15 -42 0 -67 -4 -6 3 -21
16 -35 l22 -24 -26 0 c-23 0 -27 -4 -26 -27 1 -17 3 -21 6 -10 2 9 11 17 19
17 11 0 10 -5 -6 -22 -11 -12 -20 -35 -20 -52 l0 -31 25 29 c26 31 31 41 15
31 -14 -9 -12 1 5 35 18 34 15 33 51 19 39 -14 75 -4 67 19 -4 9 -11 20 -16
23 -6 4 -2 16 9 27 19 21 19 20 21 -54 1 -58 -2 -74 -13 -74 -8 0 -14 -4 -14
-9 0 -5 11 -8 25 -6 14 1 25 -2 25 -6 0 -5 3 -8 8 -8 23 4 72 -2 72 -8 0 -5
-5 -15 -11 -23 -8 -11 -12 -12 -16 -2 -7 17 -26 15 -20 -2 4 -10 -2 -12 -26
-7 -38 8 -67 4 -67 -11 0 -5 7 -8 15 -4 21 8 45 -3 45 -21 0 -10 -6 -13 -16
-9 -14 5 -15 4 -4 -9 10 -12 10 -15 -3 -15 -9 0 -17 -6 -20 -12 -2 -7 -3 -5
-2 5 2 9 -1 17 -7 17 -5 0 -6 5 -3 10 3 6 2 10 -3 10 -33 0 -6 -95 31 -110 17
-7 18 -9 5 -9 -10 -1 -18 -9 -18 -18 -1 -15 -4 -14 -20 6 -18 21 -25 20 -21
-3 1 -5 -7 -6 -18 -3 -12 3 -22 -1 -25 -10 -6 -15 -36 -14 -48 2 -21 27 -28
-36 -28 -262 l0 -243 875 0 875 0 0 1015 0 1015 -805 0 c-611 0 -805 -3 -805
-12 0 -9 -3 -9 -12 0 -7 7 -19 12 -28 12 -13 0 -15 -8 -12 -37z m102 -8 c0 -8
5 -15 12 -15 8 0 9 -3 2 -10 -6 -6 -31 -13 -55 -15 -41 -3 -45 -1 -47 21 -2
24 12 32 23 14 4 -7 14 -5 28 5 27 19 37 19 37 0z m805 5 c35 -6 19 -6 -50 -3
-55 3 -102 7 -104 9 -8 7 103 2 154 -6z m112 3 c-9 -9 -47 -12 -52 -3 -2 3 10
7 28 8 17 2 28 -1 24 -5z m393 -2 c0 -3 -19 -5 -41 -3 -23 3 -39 0 -36 -4 3
-5 -19 -9 -49 -9 -30 0 -54 5 -54 10 0 6 -5 3 -10 -5 -5 -8 -10 -10 -10 -3 0
14 -122 13 -132 -2 -5 -6 -8 -6 -8 2 0 6 -9 10 -20 8 -11 -2 -20 0 -20 5 0 6
80 9 190 9 105 0 190 -4 190 -8z m-690 -11 c0 -13 -30 -13 -50 0 -11 7 -7 10
18 10 17 0 32 -4 32 -10z m93 -17 c-7 -2 -21 -2 -30 0 -10 3 -4 5 12 5 17 0
24 -2 18 -5z m-849 -61 c-7 -43 -12 -52 -30 -52 -14 0 -14 3 -4 15 7 8 13 33
14 55 1 34 3 38 13 25 6 -9 9 -29 7 -43z m66 24 c0 -3 -4 -8 -10 -11 -5 -3
-10 -1 -10 4 0 6 5 11 10 11 6 0 10 -2 10 -4z m243 -79 c-3 -5 -10 -4 -15 1
-6 6 -7 16 -3 22 6 9 9 9 16 -1 4 -7 5 -17 2 -22z m157 -17 c0 -5 -4 -10 -10
-10 -5 0 -10 5 -10 10 0 6 5 10 10 10 6 0 10 -4 10 -10z m-70 -75 c0 -8 -4
-15 -10 -15 -5 0 -10 7 -10 15 0 8 5 15 10 15 6 0 10 -7 10 -15z m-155 -35 c3
-5 -1 -10 -10 -10 -9 0 -13 5 -10 10 3 6 8 10 10 10 2 0 7 -4 10 -10z m165 0
c0 -5 -2 -10 -4 -10 -3 0 -8 5 -11 10 -3 6 -1 10 4 10 6 0 11 -4 11 -10z
m-190 -71 c0 -5 -8 -13 -19 -18 -14 -8 -22 -6 -35 8 -15 17 -14 18 19 18 19 0
35 -4 35 -8z m790 -20 c0 -6 -4 -7 -10 -4 -5 3 -10 11 -10 16 0 6 5 7 10 4 6
-3 10 -11 10 -16z m-740 -71 c0 -15 -21 -18 -35 -5 -12 13 -11 15 10 13 14 0
25 -4 25 -8z m957 -28 c1 -11 -3 -23 -9 -26 -7 -4 -8 -2 -4 4 4 7 3 12 -3 12
-6 0 -8 7 -5 15 9 21 19 19 21 -5z m-1240 -2 c0 -7 4 -21 8 -30 4 -11 3 -18
-4 -18 -6 0 -11 8 -11 18 0 15 -2 15 -11 2 -9 -12 -10 -12 -5 3 3 10 6 23 6
28 0 14 17 11 17 -3z m263 -18 c0 -5 -2 -10 -4 -10 -3 0 -8 5 -11 10 -3 6 -1
10 4 10 6 0 11 -4 11 -10z m1013 -23 c-2 -4 -5 -7 -8 -7 -3 0 -9 0 -15 0 -5 0
-10 4 -10 9 0 5 8 8 18 7 9 -2 16 -6 15 -9z m-305 -26 c26 -21 28 -33 7 -25
-8 4 -21 1 -29 -5 -11 -9 -15 -8 -20 6 -4 10 -2 19 3 21 6 2 9 8 5 13 -9 16
12 10 34 -10z m-338 -1 c0 -5 -4 -10 -10 -10 -5 0 -10 5 -10 10 0 6 5 10 10
10 6 0 10 -4 10 -10z m680 -50 c0 -6 5 -8 10 -5 6 4 10 -6 10 -23 0 -16 7 -46
16 -67 15 -37 14 -52 -4 -41 -6 3 -8 15 -5 25 3 10 0 22 -6 25 -6 4 -11 16
-11 26 0 10 -8 24 -17 29 -10 6 -14 11 -9 11 5 0 2 7 -5 16 -7 9 -15 25 -16
37 l-4 21 21 -21 c11 -12 20 -27 20 -33z m-1030 36 c0 -11 -19 -15 -25 -6 -3
5 1 10 9 10 9 0 16 -2 16 -4z m-48 -38 c-9 -9 -12 -7 -12 12 0 19 3 21 12 12
9 -9 9 -15 0 -24z m374 -27 c0 -11 -4 -17 -8 -15 -4 3 -8 12 -8 20 0 8 4 14 8
14 4 0 8 -9 8 -19z m720 -73 c4 -6 3 -8 -4 -4 -6 3 -13 2 -17 -4 -8 -13 -25
-13 -25 -1 0 5 8 12 18 14 9 3 18 5 19 6 1 0 5 -4 9 -11z m96 -105 c0 -10 1
-24 1 -31 -1 -8 5 -11 14 -8 9 4 17 -1 20 -14 3 -11 8 -20 12 -20 14 1 53 41
47 48 -4 4 -16 -4 -26 -18 -11 -14 -20 -20 -20 -13 0 6 5 15 10 18 14 9 -7 35
-26 35 -8 0 -14 5 -14 10 0 28 93 -1 137 -43 30 -28 31 -31 15 -43 -9 -7 -19
-10 -22 -8 -2 3 1 8 7 12 8 5 9 13 3 22 -7 12 -11 7 -16 -17 -4 -18 -11 -33
-16 -33 -6 0 -8 -6 -5 -14 3 -8 -1 -17 -9 -20 -9 -3 -13 -10 -10 -15 8 -13
-22 -7 -35 6 -8 8 -8 17 0 31 16 30 13 49 -3 26 -12 -16 -17 -17 -28 -6 -7 7
-13 17 -13 22 0 6 -3 10 -7 10 -5 0 -12 0 -18 0 -5 0 -10 -7 -10 -15 0 -8 6
-15 13 -15 7 0 12 -14 12 -35 0 -21 -5 -35 -12 -35 -7 0 -13 -7 -13 -15 0 -8
5 -15 10 -15 6 0 10 -7 10 -15 0 -8 -2 -15 -4 -15 -2 0 -11 -3 -20 -6 -9 -3
-16 -1 -16 6 0 6 5 8 10 5 6 -3 10 -1 10 5 0 7 -6 10 -12 7 -8 -2 -12 -18 -11
-37 1 -21 -2 -28 -7 -20 -4 7 -13 9 -20 5 -8 -5 -11 -4 -7 2 4 6 0 14 -8 17
-13 5 -13 9 -3 26 7 11 18 20 25 20 7 0 13 5 13 11 0 7 -11 8 -30 4 -21 -5
-43 1 -78 18 -57 28 -104 41 -147 39 -16 -1 -37 3 -45 8 -13 8 -12 10 3 10 10
0 16 4 12 9 -3 6 12 8 37 5 57 -7 108 3 108 22 0 13 45 39 63 36 4 -1 7 5 7
13 0 8 6 15 13 16 23 1 49 8 55 13 12 13 42 5 44 -11z m-854 -112 c3 -8 -1
-12 -9 -9 -7 2 -15 10 -17 17 -3 8 1 12 9 9 7 -2 15 -10 17 -17z m-543 -51 c3
-5 1 -10 -4 -10 -6 0 -11 5 -11 10 0 6 2 10 4 10 3 0 8 -4 11 -10z m942 4 c-3
-3 -12 -4 -19 -1 -8 3 -5 6 6 6 11 1 17 -2 13 -5z m507 -25 c12 19 24 3 18
-24 -5 -29 -10 -30 -36 -10 -12 9 -16 20 -12 32 6 14 9 15 15 4 6 -9 11 -10
15 -2z m-221 -16 c-7 -2 -19 -2 -25 0 -7 3 -2 5 12 5 14 0 19 -2 13 -5z m191
-48 c-4 -8 -12 -15 -20 -15 -17 0 -18 17 -1 23 22 9 27 7 21 -8z m123 -7 c-3
-8 -6 -5 -6 6 -1 11 2 17 5 13 3 -3 4 -12 1 -19z m-1499 -6 c6 -18 -15 -14
-22 4 -4 10 -1 14 6 12 6 -2 14 -10 16 -16z m1262 -9 c14 -15 20 -24 14 -20
-6 3 -16 -8 -24 -27 -16 -42 -48 -64 -57 -40 -3 9 0 20 7 24 8 5 9 9 1 14 -23
15 -4 75 24 75 6 1 21 -11 35 -26z m-1166 -67 c-6 -15 -24 -23 -24 -11 0 8 24
34 28 30 1 -1 0 -10 -4 -19z m827 -8 c11 -21 11 -22 -4 -9 -10 7 -17 17 -17
22 0 15 9 10 21 -13z m-16 -26 c-3 -3 -11 0 -18 7 -9 10 -8 11 6 5 10 -3 15
-9 12 -12z m45 -42 c12 -7 12 -10 1 -10 -8 0 -11 -6 -7 -16 3 -8 2 -13 -3 -10
-11 7 -22 46 -13 46 4 0 14 -5 22 -10z m-596 -26 c3 -8 2 -12 -4 -9 -6 3 -10
10 -10 16 0 14 7 11 14 -7z m-40 -31 c4 -9 2 -21 -3 -26 -5 -5 -7 -15 -5 -21
5 -13 -45 -70 -53 -62 -3 2 1 14 7 26 11 20 10 21 -11 15 -19 -6 -21 -4 -16
14 3 14 0 21 -9 21 -8 0 -14 5 -14 11 0 5 4 8 9 4 5 -3 25 3 43 14 41 25 44
25 52 4z m183 11 c-3 -3 -12 -4 -19 -1 -8 3 -5 6 6 6 11 1 17 -2 13 -5z m-130
-81 c-4 -3 -2 -12 5 -20 6 -7 8 -16 4 -20 -3 -3 -6 -1 -6 5 0 7 -5 12 -11 12
-5 0 -8 -4 -5 -8 2 -4 0 -14 -5 -22 -8 -13 -10 -13 -18 -1 -7 10 -3 22 12 38
12 12 24 23 26 23 2 0 1 -3 -2 -7z m-77 -44 c0 -5 6 -7 13 -4 6 4 4 0 -6 -9
-24 -19 -52 -11 -34 10 14 16 27 18 27 3z m-190 -17 c0 -5 -7 -9 -15 -9 -8 0
-12 4 -9 9 3 4 9 8 15 8 5 0 9 -4 9 -8z m285 -12 c-3 -5 -12 -10 -18 -10 -7 0
-6 4 3 10 19 12 23 12 15 0z m-35 -4 c0 -3 -4 -8 -10 -11 -5 -3 -10 -1 -10 4
0 6 5 11 10 11 6 0 10 -2 10 -4z m-290 -16 c0 -5 -5 -10 -11 -10 -5 0 -7 5 -4
10 3 6 8 10 11 10 2 0 4 -4 4 -10z m78 -2 c-5 -15 -68 -24 -68 -10 0 15 13 22
43 22 18 0 27 -4 25 -12z m152 2 c13 -8 13 -10 -1 -10 -9 0 -20 -10 -24 -22
-4 -16 -8 -19 -12 -9 -5 11 -7 11 -14 0 -6 -10 -9 -11 -9 -1 0 11 30 50 40 51
3 0 12 -4 20 -9z m75 -10 c-3 -5 -12 -10 -18 -10 -7 0 -6 4 3 10 19 12 23 12
15 0z m-180 -29 c-6 -5 -25 10 -25 20 0 5 6 4 14 -3 8 -7 12 -15 11 -17z m35
9 c0 -5 -5 -10 -11 -10 -5 0 -7 5 -4 10 3 6 8 10 11 10 2 0 4 -4 4 -10z m-99
-27 c-12 -20 -14 -14 -5 12 4 9 9 14 11 11 3 -2 0 -13 -6 -23z"/>
<path d="M1340 1120 c0 -5 5 -10 10 -10 6 0 10 5 10 10 0 6 -4 10 -10 10 -5 0
-10 -4 -10 -10z"/>
<path d="M381 711 c-8 -5 -9 -11 -3 -15 5 -3 12 1 16 9 6 17 6 18 -13 6z"/>
<path d="M542 1920 c10 -15 14 -16 25 -5 18 19 16 23 -11 23 -21 0 -23 -3 -14
-18z"/>
<path d="M580 1900 c0 -5 4 -10 9 -10 6 0 13 5 16 10 3 6 -1 10 -9 10 -9 0
-16 -4 -16 -10z"/>
<path d="M657 1851 c3 -13 11 -17 24 -14 15 4 17 8 8 19 -17 21 -38 17 -32 -5z"/>
<path d="M854 1802 c-10 -15 -8 -17 10 -17 11 1 22 4 24 8 10 30 -17 37 -34 9z"/>
<path d="M725 1800 c-3 -5 -14 -10 -24 -10 -10 0 -25 -7 -32 -16 -9 -11 -23
-14 -46 -11 l-33 6 18 -24 c9 -14 21 -25 25 -25 16 0 37 -29 27 -35 -17 -10
-11 -21 13 -23 58 -5 142 0 148 9 3 5 12 9 20 7 9 -2 15 7 17 27 3 40 -7 53
-49 65 l-34 9 30 -24 c16 -13 26 -27 22 -31 -4 -4 -20 5 -35 19 -16 15 -38 27
-50 27 -25 0 -28 10 -10 28 7 7 9 12 6 12 -4 0 -10 -4 -13 -10z"/>
<path d="M917 1793 c-4 -3 2 -13 14 -21 26 -18 32 -12 9 10 -9 10 -20 15 -23
11z"/>
<path d="M600 1700 c0 -5 5 -10 11 -10 5 0 7 5 4 10 -3 6 -8 10 -11 10 -2 0
-4 -4 -4 -10z"/>
<path d="M976 1655 c4 -8 10 -12 15 -9 11 6 2 24 -11 24 -5 0 -7 -7 -4 -15z"/>
<path d="M1120 1604 c0 -8 5 -12 10 -9 6 3 10 10 10 16 0 5 -4 9 -10 9 -5 0
-10 -7 -10 -16z"/>
<path d="M1146 1564 c-4 -10 -1 -14 6 -12 15 5 23 28 10 28 -5 0 -13 -7 -16
-16z"/>
<path d="M735 1491 c-6 -11 20 -33 28 -24 4 3 7 10 7 14 0 11 -29 19 -35 10z"/>
<path d="M1205 1470 c-3 -5 -1 -10 4 -10 6 0 11 5 11 10 0 6 -2 10 -4 10 -3 0
-8 -4 -11 -10z"/>
<path d="M1183 1385 c-18 -8 -33 -20 -33 -27 0 -9 3 -9 12 0 7 7 20 12 29 12
17 0 35 17 28 25 -2 2 -19 -3 -36 -10z"/>
<path d="M30 1379 c0 -5 -4 -8 -9 -5 -5 3 -11 -1 -15 -9 -4 -10 1 -15 14 -15
13 0 20 7 20 20 0 11 -2 20 -5 20 -3 0 -5 -5 -5 -11z"/>
<path d="M1246 1382 c-3 -5 1 -9 9 -9 8 0 12 4 9 9 -3 4 -7 8 -9 8 -2 0 -6 -4
-9 -8z"/>
<path d="M86 1361 c-3 -5 1 -12 10 -15 27 -10 44 -7 44 9 0 16 -45 21 -54 6z"/>
<path d="M1200 1352 c-18 -6 -30 -22 -30 -40 0 -10 3 -10 15 1 8 9 20 17 26
19 7 2 10 9 8 14 -2 6 -11 9 -19 6z"/>
<path d="M790 1340 c-11 -7 -12 -12 -3 -21 14 -14 53 -2 53 17 0 16 -28 18
-50 4z"/>
<path d="M0 1305 c0 -14 4 -25 9 -25 5 0 18 -3 28 -7 17 -6 17 -6 0 14 -9 11
-15 22 -12 25 3 3 -1 8 -10 11 -11 5 -15 0 -15 -18z"/>
<path d="M525 1290 c3 -5 11 -10 16 -10 6 0 7 5 4 10 -3 6 -11 10 -16 10 -6 0
-7 -4 -4 -10z"/>
<path d="M751 1289 c-23 -9 -24 -10 -5 -24 10 -8 26 -14 34 -14 11 0 9 3 -5
11 -19 11 -19 11 0 18 10 4 14 9 9 12 -5 3 -20 2 -33 -3z"/>
<path d="M60 1280 c0 -17 37 -30 85 -30 35 0 47 -4 51 -17 4 -10 12 -32 20
-50 8 -17 14 -36 14 -42 0 -6 12 -11 26 -11 14 0 23 4 19 10 -3 6 -1 10 4 10
6 0 11 -4 11 -10 0 -20 20 -9 35 20 17 33 19 44 6 36 -10 -7 -23 22 -16 34 10
17 -55 41 -103 39 -26 -1 -67 3 -92 9 -56 14 -60 14 -60 2z"/>
<path d="M0 1221 c0 -26 4 -31 25 -31 14 0 29 8 35 21 14 25 11 29 -29 35 -29
5 -31 3 -31 -25z m55 -2 c-10 -15 -25 -10 -19 6 4 8 10 12 15 9 5 -3 7 -10 4
-15z"/>
<path d="M768 1223 c10 -4 10 -8 1 -19 -9 -11 -7 -14 9 -14 15 0 19 5 15 20
-3 11 -13 20 -22 19 -11 0 -12 -2 -3 -6z"/>
<path d="M100 1216 c0 -2 9 -6 20 -9 11 -3 20 -1 20 4 0 5 -9 9 -20 9 -11 0
-20 -2 -20 -4z"/>
<path d="M908 1193 c7 -3 16 -2 19 1 4 3 -2 6 -13 5 -11 0 -14 -3 -6 -6z"/>
<path d="M160 1160 c8 -5 20 -10 25 -10 6 0 3 5 -5 10 -8 5 -19 10 -25 10 -5
0 -3 -5 5 -10z"/>
<path d="M184 1074 c-1 -14 4 -24 11 -24 8 0 11 8 8 20 -8 30 -18 32 -19 4z"/>
<path d="M285 1060 c-3 -5 -2 -10 4 -10 5 0 13 5 16 10 3 6 2 10 -4 10 -5 0
-13 -4 -16 -10z"/>
<path d="M310 1026 c19 -18 80 -34 64 -17 -6 6 -26 16 -44 21 -30 8 -32 8 -20
-4z"/>
<path d="M505 1001 c-6 -11 9 -23 19 -14 9 9 7 23 -3 23 -6 0 -12 -4 -16 -9z"/>
<path d="M863 975 c0 -8 4 -15 8 -15 4 0 9 7 13 15 3 9 0 15 -8 15 -7 0 -13
-7 -13 -15z"/>
<path d="M583 969 c-18 -18 -17 -24 20 -61 65 -64 132 -85 173 -52 10 8 12 12
4 8 -13 -7 -13 -5 -2 8 7 9 17 30 22 47 8 28 7 31 -15 31 -13 0 -36 5 -52 11
-45 17 -136 22 -150 8z"/>
<path d="M1130 901 c0 -5 5 -13 10 -16 6 -3 10 -2 10 4 0 5 -4 13 -10 16 -5 3
-10 2 -10 -4z"/>
<path d="M50 715 c-16 -9 -20 -14 -9 -15 12 0 14 -8 11 -30 -4 -30 -3 -31 24
-24 16 4 34 11 39 16 7 7 3 8 -11 4 -19 -6 -21 -3 -17 29 4 39 0 41 -37 20z"/>
<path d="M13 663 c-7 -3 -13 -11 -13 -20 0 -12 2 -12 16 2 18 17 16 25 -3 18z"/>
<path d="M65 600 c3 -5 11 -10 16 -10 6 0 7 5 4 10 -3 6 -11 10 -16 10 -6 0
-7 -4 -4 -10z"/>
</g>
</svg>
