<?xml version="1.0" standalone="no"?>
<!DOCTYPE svg PUBLIC "-//W3C//DTD SVG 20010904//EN"
 "http://www.w3.org/TR/2001/REC-SVG-20010904/DTD/svg10.dtd">
<svg version="1.0" xmlns="http://www.w3.org/2000/svg"
 width="175.000000pt" height="203.000000pt" viewBox="0 0 175.000000 203.000000"
 preserveAspectRatio="xMidYMid meet">

<g transform="translate(0.000000,203.000000) scale(0.100000,-0.100000)"
fill="#000000" stroke="none">
<path d="M10 2020 c-12 -7 -12 -12 -2 -22 10 -10 15 -10 22 2 7 11 10 11 10 2
0 -7 4 -11 9 -7 5 3 12 -3 16 -13 4 -15 13 -18 39 -15 23 2 36 -1 40 -12 3 -8
13 -16 23 -16 10 -1 -13 -5 -52 -9 -54 -5 -75 -4 -93 8 -20 13 -22 13 -22 -6
0 -12 8 -26 17 -32 17 -10 17 -10 1 -20 -10 -6 -18 -15 -18 -21 0 -10 44 15
69 39 10 10 16 10 27 1 11 -9 14 -8 14 2 1 9 4 8 11 -4 9 -14 7 -21 -7 -32
-18 -12 -17 -14 9 -26 33 -15 46 -5 29 21 -10 16 -10 20 0 20 9 0 8 4 -2 11
-13 9 -13 10 0 6 8 -2 15 -9 15 -14 0 -6 3 -15 7 -18 4 -4 1 -23 -7 -41 -13
-31 -13 -34 4 -34 9 0 34 -8 54 -18 l37 -18 -45 -13 c-25 -7 -50 -22 -56 -32
-5 -11 -7 -19 -3 -19 4 0 -1 -9 -11 -20 -16 -18 -16 -20 -2 -20 10 0 26 9 37
20 11 11 40 25 65 31 24 6 42 15 40 19 -10 17 14 20 52 7 21 -6 38 -18 38 -26
0 -21 21 -25 29 -5 8 20 -16 40 -59 50 -16 3 -34 12 -38 18 -6 8 -10 7 -14 -3
-4 -9 -10 -3 -19 18 -17 42 -4 69 37 78 33 6 37 18 11 32 -13 7 -22 7 -29 0
-8 -8 -13 -7 -17 0 -4 6 -16 11 -27 11 -11 0 -19 7 -20 18 0 9 -3 12 -5 5 -3
-7 -12 -9 -20 -6 -21 8 -17 23 7 23 12 0 23 8 26 20 6 24 23 27 23 4 0 -9 3
-14 8 -12 4 2 21 10 37 18 17 8 34 19 38 25 5 6 7 4 6 -5 -5 -45 0 -50 26 -25
13 14 32 24 42 24 17 -1 17 -2 0 -6 -21 -6 -21 -10 -1 -30 14 -14 16 -14 21 6
3 11 12 21 20 21 8 0 11 -4 8 -10 -3 -5 -1 -10 4 -10 21 0 11 -21 -14 -30 -14
-5 -25 -11 -25 -13 0 -6 74 -7 103 -1 28 6 38 24 12 24 -8 0 -12 6 -9 14 3 8
15 11 29 8 21 -4 23 -7 14 -25 -10 -17 -9 -19 6 -13 13 5 16 2 11 -10 -4 -11
-2 -15 8 -11 8 3 21 -4 30 -17 14 -22 13 -25 -9 -46 -22 -21 -24 -21 -43 -4
-30 26 -82 46 -82 32 0 -7 -7 -3 -15 8 -11 15 -14 16 -15 4 0 -11 -9 -15 -27
-14 -16 1 -27 7 -26 13 2 6 -2 11 -7 11 -6 0 -10 -4 -10 -9 0 -5 -9 -12 -19
-16 -18 -5 -16 -10 20 -46 38 -38 50 -71 29 -84 -15 -9 -12 -25 5 -25 7 0 18
-7 23 -16 7 -12 9 -5 9 26 0 30 6 47 18 57 25 18 30 9 11 -19 -18 -25 -21 -58
-6 -58 6 0 10 -7 10 -15 0 -8 7 -15 16 -15 14 0 15 2 3 17 -12 15 -12 16 4 10
11 -4 16 -3 12 4 -10 15 24 61 41 55 8 -3 14 -1 14 3 0 5 -6 11 -12 14 -7 2
-10 8 -5 13 4 4 15 0 24 -9 13 -13 14 -19 4 -31 -8 -9 -8 -16 -2 -20 7 -5 7
-15 1 -31 -7 -20 -6 -25 5 -25 8 0 15 -6 15 -13 0 -9 16 -14 51 -14 41 -1 48
1 39 12 -7 9 -7 15 -1 19 10 7 34 -28 25 -36 -2 -3 8 -11 23 -17 16 -6 35 -22
42 -34 8 -12 10 -19 6 -15 -4 4 -18 3 -31 -2 -13 -5 -23 -6 -23 -2 3 21 -3 23
-21 7 -11 -10 -30 -19 -43 -21 -12 -1 -22 -3 -22 -5 0 -1 -17 -3 -37 -4 -24
-1 -39 3 -42 11 -3 8 -10 14 -16 14 -6 0 -8 -4 -5 -10 3 -5 1 -10 -6 -10 -7 0
-9 10 -7 25 3 14 1 25 -6 25 -6 0 -5 4 3 9 7 5 11 13 7 19 -3 6 0 12 6 15 7 2
10 8 6 12 -4 4 -15 4 -25 0 -27 -12 -85 -13 -112 -3 -27 10 -43 1 -21 -12 11
-7 7 -15 -19 -39 -29 -27 -34 -29 -48 -16 -8 8 -19 15 -24 15 -13 0 -11 -18 4
-23 7 -3 4 -6 -6 -6 -10 -1 -15 -6 -12 -11 16 -25 -65 -59 -95 -39 -13 7 -12
9 2 9 10 0 22 9 28 19 13 26 13 31 -5 31 -8 0 -15 5 -15 10 0 6 3 10 8 10 4 0
7 11 7 25 0 14 -5 25 -12 25 -6 0 -18 3 -27 6 -12 4 -16 0 -16 -15 0 -12 6
-21 15 -21 8 0 15 -7 15 -16 0 -15 -2 -15 -25 0 -25 17 -124 24 -163 12 -18
-6 -22 -15 -22 -47 0 -22 4 -38 9 -35 5 3 19 -2 31 -12 28 -22 20 -59 -15 -72
-21 -8 -24 -16 -23 -59 0 -46 3 -51 39 -77 21 -15 39 -29 39 -32 0 -2 -18 -2
-40 2 l-40 6 0 -34 c0 -37 16 -57 26 -32 3 9 10 13 15 10 14 -8 0 -46 -25 -66
-12 -10 -15 -18 -8 -18 22 0 53 36 56 66 2 16 4 33 5 38 0 4 12 6 26 4 20 -4
23 -3 14 8 -9 11 -8 14 3 14 8 0 19 5 25 11 14 14 -20 84 -48 102 -23 14 -24
27 -4 27 9 0 15 6 14 13 -5 41 2 67 19 67 24 0 34 -10 23 -24 -13 -17 -20 -56
-10 -56 5 0 16 14 24 30 9 17 20 28 26 25 5 -4 6 -11 3 -17 -4 -7 -2 -8 4 -4
7 4 12 1 12 -7 0 -8 8 -18 17 -21 15 -6 14 -8 -5 -22 -32 -22 -47 -54 -31 -65
16 -10 39 7 39 30 1 14 3 13 15 -3 7 -10 24 -18 37 -17 13 0 41 0 63 1 22 0
57 0 77 0 20 1 40 -5 44 -11 5 -8 3 -9 -6 -4 -9 5 -11 4 -6 -4 12 -19 27 -1
24 27 -2 22 2 28 20 30 26 4 29 19 5 25 -10 3 -5 4 12 3 22 -2 30 -8 30 -22 0
-25 82 -45 95 -24 12 19 1 33 -15 20 -9 -7 -16 -6 -25 5 -11 13 -8 15 14 15
14 0 26 5 26 10 0 22 41 8 62 -20 12 -17 28 -28 35 -26 7 3 12 0 10 -6 -3 -16
37 -26 106 -27 33 -1 68 -7 81 -16 21 -14 23 -13 36 9 12 24 41 29 67 13 6 -4
17 1 24 10 8 9 9 14 4 11 -6 -4 -19 0 -30 8 -18 14 -18 15 14 27 29 11 32 15
27 41 -4 17 -11 33 -17 37 -13 8 19 41 35 36 6 -2 13 -27 14 -57 5 -65 -18
-111 -64 -133 -30 -15 -33 -15 -37 1 -4 16 -5 16 -6 0 0 -10 -7 -18 -13 -18
-9 0 -8 -4 2 -10 12 -8 9 -10 -10 -8 -19 2 -25 -2 -25 -17 -1 -13 -6 -18 -15
-16 -50 14 -79 11 -122 -13 -36 -20 -56 -25 -94 -22 -27 2 -44 2 -37 -1 7 -2
9 -11 6 -19 -6 -15 32 -34 66 -31 19 1 19 2 3 21 -17 20 -17 20 13 2 44 -27
65 -52 65 -76 0 -12 -4 -18 -10 -15 -5 3 -10 1 -10 -4 0 -6 -7 -11 -16 -11
-13 0 -14 3 -5 14 7 8 8 16 4 19 -14 8 -53 -12 -53 -28 0 -10 5 -13 12 -9 7 4
8 3 4 -4 -12 -19 -36 -14 -36 8 0 11 -5 20 -11 20 -9 0 -22 25 -43 85 -5 14
-9 16 -15 7 -6 -10 -15 -9 -42 2 -28 12 -31 16 -17 21 10 4 15 11 12 17 -3 5
-12 1 -20 -10 -8 -11 -22 -19 -31 -17 -10 2 -21 4 -25 4 -5 1 -8 7 -8 14 0 17
-38 53 -46 44 -3 -3 4 -10 15 -17 12 -6 21 -16 21 -22 0 -9 -3 -9 -11 -1 -9 9
-15 8 -25 -2 -18 -18 -48 -9 -59 18 -8 17 -20 23 -57 25 -45 3 -48 2 -48 -22
0 -31 27 -50 93 -67 52 -13 65 -24 41 -33 -14 -5 -12 -10 11 -30 15 -13 29
-36 30 -51 4 -31 54 -80 127 -125 45 -27 53 -26 76 18 11 20 25 36 31 34 6 -1
14 5 17 13 8 19 69 46 88 39 8 -3 34 1 57 9 39 13 45 13 55 -1 18 -25 5 -35
-22 -18 -20 14 -23 14 -18 1 6 -13 -5 -19 -22 -12 -4 1 -12 -14 -18 -33 -7
-21 -18 -34 -26 -32 -8 1 -4 -7 10 -18 20 -16 34 -19 69 -14 41 6 43 5 36 -15
-5 -17 -2 -21 15 -21 18 0 16 -4 -15 -31 -19 -17 -35 -38 -35 -47 0 -14 2 -14
18 0 27 24 45 12 26 -18 -16 -23 -16 -24 12 -24 37 0 59 14 49 30 -5 8 -4 11
2 7 6 -4 21 5 34 19 22 23 24 24 36 8 12 -16 15 -16 50 2 46 24 65 42 80 77 7
15 17 27 23 27 6 0 29 9 50 19 22 11 40 15 40 10 0 -5 -7 -12 -15 -15 -8 -4
-15 -13 -15 -21 0 -9 -6 -13 -15 -9 -9 3 -15 0 -15 -9 0 -9 10 -15 25 -15 34
0 31 -13 -5 -27 -16 -6 -30 -16 -30 -23 0 -6 4 -8 10 -5 6 3 7 -1 4 -10 -4 -9
-13 -14 -20 -11 -7 3 -16 1 -19 -4 -4 -6 -15 -10 -26 -10 -28 0 -19 23 11 30
13 3 25 11 26 18 1 7 0 8 -3 2 -2 -5 -9 -8 -13 -5 -10 6 -91 -33 -102 -49 -4
-6 -8 -7 -8 -2 0 5 -7 3 -15 -4 -8 -6 -23 -9 -36 -5 -15 5 -19 4 -14 -4 4 -7
-4 -21 -19 -32 -24 -19 -38 -48 -17 -35 5 3 8 -2 7 -11 -2 -26 34 -29 41 -4 3
12 9 21 14 21 11 0 11 2 0 -37 -8 -27 -5 -36 20 -64 29 -33 33 -44 29 -89 -2
-29 0 -26 -26 -34 -15 -4 -31 2 -55 24 -19 16 -53 46 -77 66 -27 24 -41 43
-37 53 11 36 -34 62 -93 54 -28 -4 -42 -2 -42 6 0 6 8 11 18 11 9 0 -2 10 -26
22 -31 16 -45 19 -50 11 -4 -7 -16 -10 -27 -8 -11 2 -26 4 -32 4 -7 1 -13 9
-13 19 -1 16 -2 15 -15 -2 -9 -12 -11 -25 -6 -35 8 -15 -16 -51 -29 -43 -11 7
-80 -22 -80 -34 0 -7 -8 -13 -17 -13 -10 0 -35 -1 -56 -3 -41 -4 -44 10 -6 29
13 7 20 13 14 13 -5 0 1 9 14 19 14 10 32 16 40 13 9 -3 13 -2 9 3 -4 4 0 14
8 22 8 8 12 19 9 24 -4 5 0 9 8 9 27 0 29 32 3 58 -30 31 -107 40 -131 16 -9
-9 -26 -14 -39 -12 l-23 5 19 -38 c31 -65 18 -109 -32 -109 -17 0 -38 -8 -48
-18 -17 -17 -22 -55 -9 -68 4 -4 7 -13 7 -21 0 -10 -5 -11 -19 -4 -21 12 -32
5 -24 -15 3 -8 0 -14 -6 -14 -6 0 -11 4 -11 9 0 5 -9 11 -19 14 -15 3 -18 1
-14 -11 4 -9 2 -13 -5 -9 -6 4 -13 21 -17 37 -8 37 -24 49 -21 15 2 -16 -1
-22 -8 -18 -6 4 -27 6 -46 6 -19 -1 -27 1 -17 3 26 8 21 34 -8 34 -18 0 -23
-4 -19 -15 4 -8 1 -15 -6 -15 -6 0 -8 -5 -5 -10 4 -6 1 -9 -6 -8 -6 2 -14 -3
-16 -10 -3 -8 1 -10 14 -6 10 3 3 -3 -15 -15 -31 -20 -37 -38 -17 -53 6 -5 3
-8 -7 -8 -14 0 -16 -25 -17 -250 l-2 -250 876 0 875 0 0 1015 0 1015 -863 0
c-498 -1 -869 -5 -877 -10z m269 -16 c10 -3 11 -8 4 -15 -6 -6 -24 -3 -54 11
l-44 21 40 -7 c22 -3 46 -8 54 -10z m-49 -24 c0 -5 -4 -10 -10 -10 -5 0 -10 5
-10 10 0 6 5 10 10 10 6 0 10 -4 10 -10z m1007 -16 c-3 -3 -12 -4 -19 -1 -8 3
-5 6 6 6 11 1 17 -2 13 -5z m-501 -64 c1 0 2 -11 2 -25 0 -13 -4 -22 -9 -20
-4 3 -10 1 -14 -5 -9 -15 17 -12 40 4 21 14 77 33 59 19 -18 -13 -24 -52 -8
-46 12 4 16 -3 16 -27 0 -3 10 -15 23 -28 16 -17 22 -19 22 -8 0 8 -5 12 -11
9 -8 -4 -8 -3 0 6 8 8 18 7 42 -5 32 -15 36 -39 6 -27 -9 3 -19 1 -23 -4 -3
-5 -18 -13 -33 -17 -21 -5 -26 -3 -22 8 3 7 -3 21 -12 31 -12 11 -19 14 -22 6
-2 -6 -12 -2 -23 11 -17 21 -17 19 2 -14 13 -23 18 -45 14 -58 -4 -12 -1 -28
7 -38 10 -13 8 -13 -9 2 -13 11 -29 16 -39 12 -15 -6 -15 -4 -3 10 11 14 10
16 -6 13 -23 -4 -77 29 -69 42 3 5 17 9 32 9 l27 1 -28 15 c-16 9 -31 13 -35
10 -3 -3 -13 1 -23 10 -16 14 -15 17 13 47 18 20 28 40 25 53 -3 20 -1 21 27
13 17 -5 31 -9 32 -9z m-525 -17 c1 -10 1 -21 1 -24 -1 -4 7 -5 16 -2 13 3 18
-2 20 -21 1 -20 -3 -26 -19 -26 -11 0 -18 -4 -15 -9 3 -4 -7 -6 -22 -3 -17 4
-21 7 -11 10 19 4 30 53 17 76 -6 10 -5 16 2 16 5 0 11 -8 11 -17z m334 -44
c12 -18 -3 -22 -20 -5 -14 14 -14 16 -1 16 8 0 18 -5 21 -11z m365 -13 c0 -2
-7 -6 -15 -10 -8 -3 -15 -1 -15 4 0 6 7 10 15 10 8 0 15 -2 15 -4z m83 -72
c-6 -16 14 -27 34 -20 15 6 14 8 -1 19 -16 12 -16 13 4 14 19 2 20 -3 17 -38
-2 -22 0 -42 6 -46 6 -3 7 -1 3 5 -3 6 3 16 14 22 16 9 20 8 20 -4 0 -9 6 -13
13 -10 10 3 13 -6 11 -36 -1 -23 -4 -44 -8 -47 -11 -11 -6 -43 7 -43 7 0 5 -5
-4 -10 -12 -7 -26 -5 -44 4 -24 12 -25 15 -8 20 10 3 24 18 30 33 15 30 7 47
-9 20 -7 -13 -17 -17 -34 -13 -19 5 -24 2 -24 -11 0 -12 -3 -14 -8 -7 -9 16
-82 35 -82 23 0 -5 -11 -2 -25 7 -24 16 -25 15 -34 -7 -5 -13 -7 -27 -4 -32 2
-4 -1 -6 -9 -5 -7 2 -12 -5 -11 -16 1 -13 -2 -15 -10 -7 -7 7 -7 14 0 23 19
24 22 58 6 58 -8 0 -11 -4 -8 -10 4 -6 -6 -10 -24 -10 -16 0 -33 5 -37 11 -5
8 1 10 20 7 21 -4 26 -1 26 14 0 15 5 18 23 13 21 -6 21 -5 4 9 -18 14 -18 15
3 26 26 14 92 21 84 9 -3 -5 -14 -9 -24 -9 -34 0 -34 -35 0 -40 44 -7 50 -1
45 41 -4 29 0 47 13 64 15 20 18 21 23 7 3 -10 4 -22 2 -28z m-363 21 c0 -8
-2 -15 -4 -15 -2 0 -6 7 -10 15 -3 8 -1 15 4 15 6 0 10 -7 10 -15z m-113 -57
c-3 -8 -6 -5 -6 6 -1 11 2 17 5 13 3 -3 4 -12 1 -19z m-333 -13 c-4 -8 -11
-15 -16 -15 -6 0 -5 6 2 15 7 8 14 15 16 15 2 0 1 -7 -2 -15z m771 -95 c-3 -5
-11 -10 -16 -10 -6 0 -7 5 -4 10 3 6 11 10 16 10 6 0 7 -4 4 -10z m259 -11
c-3 -5 -12 -9 -20 -9 -8 0 -14 -4 -14 -10 0 -5 8 -10 18 -10 12 0 17 -8 17
-25 0 -14 -6 -25 -14 -25 -8 0 -11 -6 -7 -15 4 -10 -1 -15 -17 -16 -16 -1 -17
-3 -5 -6 9 -2 15 -10 12 -18 -5 -11 -10 -12 -25 -2 -16 10 -21 9 -28 -1 -6
-10 -10 -3 -15 22 -4 20 -11 36 -16 36 -6 0 -10 5 -10 11 0 6 7 8 16 5 8 -3
12 -2 9 4 -3 6 -1 10 4 10 6 0 11 -4 11 -10 0 -19 17 -10 28 16 7 14 9 23 4
20 -4 -2 -14 -1 -22 4 -13 8 -12 11 4 23 19 14 80 11 70 -4z m-1154 -34 c0 -5
-5 -3 -10 5 -5 8 -10 20 -10 25 0 6 5 3 10 -5 5 -8 10 -19 10 -25z m857 5 c1
-11 -2 -22 -8 -25 -16 -11 -10 -36 9 -33 12 2 16 -3 14 -19 -2 -17 3 -24 22
-29 29 -7 34 -33 16 -80 l-10 -26 -25 26 c-26 29 -32 48 -14 44 6 -2 14 3 17
11 3 9 0 11 -7 7 -7 -5 -10 -2 -9 6 2 7 -3 12 -10 10 -8 -1 -11 2 -7 7 3 6
-18 11 -52 13 -50 3 -54 4 -30 12 31 9 71 45 73 64 2 26 4 32 12 32 4 0 8 -9
9 -20z m34 -7 c-12 -20 -14 -14 -5 12 4 9 9 14 11 11 3 -2 0 -13 -6 -23z
m-462 -34 c48 2 53 0 42 -13 -10 -12 -18 -13 -32 -5 -11 5 -25 7 -31 3 -6 -4
-28 -6 -50 -6 -28 1 -38 -2 -38 -13 0 -13 4 -14 20 -5 25 13 37 -8 21 -38 -12
-22 -3 -65 12 -55 6 3 7 1 3 -6 -9 -14 -36 3 -36 24 0 6 -16 16 -35 22 -31 10
-35 9 -35 -7 0 -16 -4 -17 -29 -7 -21 8 -27 15 -23 30 4 14 1 18 -9 15 -8 -3
-13 -15 -12 -27 3 -19 0 -20 -17 -11 -10 5 -22 15 -26 21 -10 16 44 56 96 70
25 6 49 15 54 19 4 5 22 3 40 -2 17 -6 55 -10 85 -9z m581 11 c0 -5 -2 -10 -4
-10 -3 0 -8 5 -11 10 -3 6 -1 10 4 10 6 0 11 -4 11 -10z m-277 -30 c-3 -11 -9
-20 -14 -20 -10 0 -12 24 -2 33 13 13 21 7 16 -13z m-583 -20 c0 -5 -2 -10 -4
-10 -3 0 -8 5 -11 10 -3 6 -1 10 4 10 6 0 11 -4 11 -10z m270 -32 c0 -10 -3
-17 -7 -17 -20 3 -27 -2 -13 -11 8 -5 11 -12 8 -16 -4 -3 -14 1 -23 9 -13 14
-13 17 0 31 8 8 15 23 15 33 0 15 2 16 10 3 5 -8 10 -23 10 -32z m158 7 c10
-10 -7 -17 -20 -9 -13 9 -18 10 -38 13 -5 0 -10 5 -10 10 0 9 57 -2 68 -14z
m379 -11 c-3 -3 -12 -4 -19 -1 -8 3 -5 6 6 6 11 1 17 -2 13 -5z m178 -24 c4
-6 16 -6 33 1 27 10 27 10 -5 -18 -30 -27 -31 -29 -17 -55 16 -30 21 -33 44
-18 12 8 11 10 -7 10 -14 0 -23 6 -23 15 0 8 6 15 14 15 8 0 21 3 30 6 9 3 16
1 16 -5 0 -6 -7 -11 -16 -11 -24 0 4 -24 57 -48 45 -21 99 -66 99 -82 0 -5 -4
-12 -10 -15 -16 -10 -12 -38 4 -32 10 4 12 0 9 -14 -4 -15 -2 -18 11 -13 9 3
13 10 10 15 -3 5 2 6 10 3 21 -8 20 -9 -9 -39 -26 -25 -21 -37 4 -12 8 6 6 0
-4 -15 -9 -16 -21 -28 -26 -28 -5 0 -9 -5 -9 -11 0 -5 5 -7 11 -3 13 8 -8 -35
-27 -53 -15 -15 -54 -17 -54 -3 0 5 6 7 14 4 8 -3 16 3 19 16 5 18 2 21 -14
17 -15 -4 -17 -2 -9 13 6 11 15 22 20 25 17 11 11 34 -14 56 -14 12 -22 28
-19 35 7 18 -2 18 -21 -2 -14 -14 -16 -14 -16 0 0 17 -33 38 -65 42 -27 3 -56
-6 -51 -15 3 -4 -8 -6 -23 -3 -32 4 -95 -24 -86 -39 4 -5 11 -6 17 -3 7 4 8 2
4 -4 -3 -6 3 -16 14 -22 22 -12 60 -79 60 -106 0 -15 3 -15 20 4 11 12 20 25
20 29 0 5 10 14 21 21 20 13 21 12 17 -17 -3 -19 1 -36 9 -42 18 -15 17 -39
-2 -39 -8 0 -15 4 -15 9 0 18 -37 21 -66 5 l-29 -16 27 6 c26 6 50 -8 26 -16
-6 -2 -11 -19 -10 -37 1 -31 0 -32 -31 -25 -27 6 -30 5 -19 -8 16 -20 8 -25
-27 -20 -18 2 -33 13 -40 28 -19 42 -13 59 24 77 19 9 35 22 35 27 0 6 -4 8
-10 5 -5 -3 -10 1 -10 9 0 9 -7 16 -16 16 -10 0 -14 6 -11 18 17 60 17 72 3
72 -10 0 -13 -6 -10 -15 4 -9 0 -15 -9 -15 -28 0 -47 12 -47 30 0 10 -4 29 -9
42 -5 13 -8 25 -8 28 0 3 -5 15 -12 28 -15 27 -6 28 38 1 18 -11 38 -18 45
-16 6 2 -6 12 -26 22 -36 18 -50 35 -28 35 13 0 130 107 123 113 -5 6 28 45
39 46 4 1 9 -3 13 -9z m160 -20 c-3 -5 2 -10 12 -10 15 0 16 -2 3 -10 -9 -6
-17 -5 -22 3 -6 11 -2 27 8 27 3 0 2 -4 -1 -10z m-1020 -30 c3 -5 1 -10 -4
-10 -6 0 -11 5 -11 10 0 6 2 10 4 10 3 0 8 -4 11 -10z m-226 -34 c9 -6 7 -12
-9 -23 -19 -13 -24 -13 -47 2 -19 13 -22 19 -13 25 15 9 51 7 69 -4z m1262 5
c6 10 9 3 9 -19 0 -20 -4 -31 -10 -27 -6 4 -8 10 -5 15 3 5 1 11 -5 15 -5 3
-10 12 -9 18 0 8 3 7 6 -2 5 -11 7 -11 14 0z m39 -57 c0 -8 -5 -12 -10 -9 -6
4 -8 11 -5 16 9 14 15 11 15 -7z m-1030 -44 c0 -5 -2 -10 -4 -10 -3 0 -8 5
-11 10 -3 6 -1 10 4 10 6 0 11 -4 11 -10z m594 -46 c23 -9 20 -26 -4 -19 -15
5 -22 0 -30 -19 -9 -25 -30 -36 -30 -17 0 17 -34 22 -46 7 -15 -21 -21 -20
-35 6 -10 18 -9 20 5 15 9 -4 16 -2 16 4 0 6 8 9 18 8 9 -1 24 1 32 4 47 18
54 19 74 11z m637 -15 c8 -17 8 -23 -1 -29 -7 -4 -14 -18 -15 -31 -1 -13 -3
-28 -4 -33 -2 -14 -28 13 -34 35 -4 15 -2 19 9 15 7 -3 18 3 24 14 6 11 7 20
2 20 -5 0 -9 7 -9 15 0 22 14 18 28 -6z m-1081 -5 c0 -2 -7 -4 -15 -4 -8 0
-15 4 -15 10 0 5 7 7 15 4 8 -4 15 -8 15 -10z m1121 -21 c13 -16 12 -17 -3 -4
-17 13 -22 21 -14 21 2 0 10 -8 17 -17z m-1053 -19 c2 -1 -9 -1 -23 -1 -25 0
-31 7 -18 20 3 4 13 1 22 -5 9 -7 17 -13 19 -14z m692 11 c0 -5 8 -15 18 -22
22 -13 19 -73 -3 -73 -8 0 -11 8 -8 20 4 14 -3 28 -21 45 -31 29 -33 44 -6 42
11 -1 20 -6 20 -12z m-280 -4 c0 -5 -9 -7 -20 -4 -11 3 -20 7 -20 9 0 2 9 4
20 4 11 0 20 -4 20 -9z m-426 -37 c3 -8 2 -12 -4 -9 -6 3 -10 10 -10 16 0 14
7 11 14 -7z m438 -1 c24 -21 23 -33 -3 -33 -15 0 -19 -4 -14 -19 3 -11 1 -22
-4 -25 -6 -4 -7 -14 -4 -24 6 -14 4 -15 -9 -4 -10 8 -19 9 -22 3 -4 -5 -2 -12
4 -16 5 -3 10 -14 10 -23 0 -23 -17 -3 -25 31 -5 18 -3 27 5 27 15 0 41 26 33
34 -3 3 -12 1 -20 -5 -16 -14 -17 3 -1 19 22 22 -11 33 -50 16 -25 -10 -33
-11 -30 -1 5 13 61 36 92 36 11 1 28 -6 38 -16z m-256 -58 c-10 -8 -23 -12
-29 -8 -11 7 12 23 33 23 12 -1 11 -4 -4 -15z m-56 -5 c0 -5 -2 -10 -4 -10 -3
0 -8 5 -11 10 -3 6 -1 10 4 10 6 0 11 -4 11 -10z m860 6 c0 -3 -4 -8 -10 -11
-5 -3 -10 -1 -10 4 0 6 5 11 10 11 6 0 10 -2 10 -4z m-175 -72 c-9 -9 -18 -14
-21 -11 -9 9 6 27 22 27 13 0 13 -2 -1 -16z m-738 -14 c-2 -24 -6 -24 -32 -3
-20 15 -20 15 3 10 12 -3 22 -1 22 4 0 5 2 9 4 9 3 0 4 -9 3 -20z m710 1 c12
-19 8 -31 -10 -31 -5 0 -7 6 -4 14 3 7 0 19 -6 25 -6 6 -7 11 -1 11 5 0 15 -9
21 -19z m-112 -1 c-3 -5 -10 -10 -16 -10 -5 0 -9 5 -9 10 0 6 7 10 16 10 8 0
12 -4 9 -10z m141 -39 c0 -11 -4 -17 -8 -15 -4 3 -8 0 -8 -5 0 -6 -6 -11 -14
-11 -11 0 -8 7 7 25 12 13 22 25 22 25 1 0 1 -9 1 -19z m-326 -61 c0 -5 -4
-10 -10 -10 -5 0 -10 5 -10 10 0 6 5 10 10 10 6 0 10 -4 10 -10z m30 0 c0 -5
-4 -10 -10 -10 -5 0 -10 5 -10 10 0 6 5 10 10 10 6 0 10 -4 10 -10z m-550 -70
c0 -5 -2 -10 -4 -10 -3 0 -8 5 -11 10 -3 6 -1 10 4 10 6 0 11 -4 11 -10z
m-180 -170 c0 -19 -18 -19 -23 -1 -3 14 -1 18 9 14 8 -3 14 -9 14 -13z"/>
<path d="M1005 1690 c-3 -5 1 -10 9 -10 9 0 16 5 16 10 0 6 -4 10 -9 10 -6 0
-13 -4 -16 -10z"/>
<path d="M391 1454 c0 -11 3 -14 6 -6 3 7 2 16 -1 19 -3 4 -6 -2 -5 -13z"/>
<path d="M1215 1289 c-4 -6 -5 -11 -4 -12 2 -1 13 -8 24 -15 47 -29 126 -61
140 -56 23 9 18 24 -9 24 -31 0 -86 20 -86 31 0 5 -9 9 -20 9 -11 0 -20 7 -20
15 0 17 -16 20 -25 4z"/>
<path d="M440 1890 c0 -5 5 -10 11 -10 5 0 7 5 4 10 -3 6 -8 10 -11 10 -2 0
-4 -4 -4 -10z"/>
<path d="M64 1820 c3 -17 1 -30 -4 -30 -6 0 -10 6 -10 13 0 6 -5 4 -11 -6 -5
-9 -7 -22 -3 -28 3 -6 -3 -17 -15 -25 -17 -12 -21 -26 -21 -66 0 -42 3 -49 16
-44 9 3 28 6 43 6 20 0 29 7 38 30 6 17 8 30 5 30 -15 1 -40 27 -47 49 -8 25
-2 25 66 5 13 -3 17 1 15 19 -1 19 -6 23 -26 19 -20 -3 -22 -1 -10 7 12 8 12
11 1 11 -8 0 -11 6 -7 16 3 8 2 12 -4 9 -6 -3 -10 -1 -10 4 0 6 -5 11 -11 11
-7 0 -9 -11 -5 -30z"/>
<path d="M150 1760 c0 -5 7 -7 15 -4 8 4 15 8 15 10 0 2 -7 4 -15 4 -8 0 -15
-4 -15 -10z"/>
<path d="M390 1742 c0 -5 7 -9 15 -9 8 0 15 4 15 9 0 4 -7 8 -15 8 -8 0 -15
-4 -15 -8z"/>
<path d="M571 1714 c0 -11 3 -14 6 -6 3 7 2 16 -1 19 -3 4 -6 -2 -5 -13z"/>
<path d="M100 1660 c0 -5 5 -10 11 -10 5 0 7 5 4 10 -3 6 -8 10 -11 10 -2 0
-4 -4 -4 -10z"/>
<path d="M338 1658 c17 -8 26 -8 34 0 9 9 4 12 -22 11 -33 0 -34 -1 -12 -11z"/>
<path d="M354 1295 c10 -8 23 -12 29 -8 11 7 -12 23 -33 23 -12 -1 -11 -4 4
-15z"/>
<path d="M680 1297 c0 -19 10 -27 26 -20 11 4 12 9 3 19 -15 18 -29 18 -29 1z"/>
<path d="M787 1269 c7 -7 15 -10 18 -7 3 3 -2 9 -12 12 -14 6 -15 5 -6 -5z"/>
<path d="M695 1250 c3 -5 12 -10 20 -10 8 0 17 5 20 10 4 6 -5 10 -20 10 -15
0 -24 -4 -20 -10z"/>
<path d="M205 1210 c3 -5 15 -10 26 -10 11 0 17 5 14 10 -3 6 -15 10 -26 10
-11 0 -17 -4 -14 -10z"/>
<path d="M119 1129 c-11 -22 -12 -22 -25 -4 -12 17 -15 17 -31 3 -10 -8 -25
-18 -33 -21 -9 -3 -10 -6 -2 -6 20 -2 13 -21 -8 -21 -17 0 -20 -7 -20 -46 0
-25 4 -43 9 -39 5 3 12 1 16 -5 3 -5 -2 -10 -12 -10 -15 0 -14 -2 5 -16 25
-17 29 -34 8 -34 -7 0 -16 -9 -19 -19 -4 -18 -3 -19 34 -6 39 14 54 5 21 -14
-12 -8 -13 -10 -3 -11 8 0 25 9 37 21 l22 21 21 -21 c12 -12 27 -19 33 -15 6
4 17 -1 25 -12 11 -15 16 -16 31 -6 9 7 25 15 35 18 27 10 21 22 -22 43 -21
11 -52 32 -69 46 -24 20 -29 22 -26 8 5 -19 -22 -42 -58 -48 -15 -3 -19 1 -16
17 2 11 10 24 18 28 8 4 28 14 43 21 l29 13 -49 21 c-46 20 -47 22 -21 27 22
4 35 -3 68 -35 22 -22 40 -43 40 -47 0 -20 32 -16 57 8 19 17 22 24 9 19 -13
-5 -17 -3 -13 6 6 15 -38 61 -51 53 -5 -3 -18 4 -28 16 -11 12 -13 18 -6 14
19 -11 14 1 -12 29 l-25 26 -12 -22z m-39 -24 c0 -8 -2 -15 -4 -15 -2 0 -6 7
-10 15 -3 8 -1 15 4 15 6 0 10 -7 10 -15z m0 -75 c0 -5 -7 -10 -16 -10 -8 0
-12 5 -9 10 3 6 10 10 16 10 5 0 9 -4 9 -10z m-15 -60 c-6 -9 -9 -9 -16 1 -10
17 0 34 13 21 6 -6 7 -16 3 -22z m125 -43 c9 -3 4 -6 -12 -6 -27 -1 -35 8 -21
22 4 4 9 3 12 -1 3 -5 13 -12 21 -15z m45 -17 c3 -5 2 -10 -4 -10 -5 0 -13 5
-16 10 -3 6 -2 10 4 10 5 0 13 -4 16 -10z"/>
<path d="M233 1135 c0 -9 7 -15 16 -14 9 1 29 -3 45 -10 17 -7 41 -11 55 -9
20 2 9 9 -42 26 -80 26 -74 26 -74 7z"/>
<path d="M365 1050 c3 -5 17 -10 31 -10 13 0 24 5 24 10 0 6 -14 10 -31 10
-17 0 -28 -4 -24 -10z"/>
<path d="M801 1031 c-16 -4 -33 -23 -48 -51 -12 -25 -23 -39 -23 -31 0 8 -2
12 -5 10 -2 -3 -1 -20 4 -37 6 -20 6 -32 0 -32 -5 0 -9 -4 -9 -9 0 -14 60 12
61 26 2 21 4 27 16 49 9 16 9 24 1 32 -9 9 -3 15 20 25 18 7 29 16 25 20 -7 8
-8 8 -42 -2z"/>
<path d="M335 990 c3 -5 13 -10 21 -10 8 0 12 5 9 10 -3 6 -13 10 -21 10 -8 0
-12 -4 -9 -10z"/>
<path d="M450 990 c8 -5 24 -10 35 -10 17 0 17 2 5 10 -8 5 -24 10 -35 10 -17
0 -17 -2 -5 -10z"/>
<path d="M320 960 c0 -5 5 -10 10 -10 6 0 10 5 10 10 0 6 -4 10 -10 10 -5 0
-10 -4 -10 -10z"/>
<path d="M545 920 c-18 -8 -17 -9 8 -9 15 -1 27 4 27 9 0 12 -8 12 -35 0z"/>
<path d="M355 875 c31 -13 50 -11 40 6 -4 5 -21 9 -38 8 l-32 -1 30 -13z"/>
<path d="M120 870 c0 -7 -12 -9 -35 -4 -19 3 -46 3 -60 0 -25 -6 -25 -7 -25
-119 0 -111 0 -112 26 -124 24 -11 26 -10 21 8 -5 19 -2 21 53 17 32 -1 62 0
66 5 4 4 -2 7 -12 7 -36 0 -54 22 -42 50 6 15 12 20 15 13 3 -7 9 -13 14 -13
4 0 6 6 3 14 -3 7 2 20 10 28 8 8 16 24 18 34 2 10 8 22 13 26 6 5 1 16 -12
30 -18 17 -25 20 -35 10 -7 -7 -16 -12 -22 -12 -5 0 -2 6 9 13 12 10 14 16 7
21 -7 4 -12 2 -12 -4z m0 -44 c0 -11 -19 -15 -25 -6 -3 5 1 10 9 10 9 0 16 -2
16 -4z"/>
<path d="M264 863 c-24 -24 -35 -51 -24 -58 5 -3 16 -3 23 2 6 4 19 8 27 8 22
0 27 62 5 62 -9 0 -23 -7 -31 -14z"/>
<path d="M613 833 c9 -2 23 -2 30 0 6 3 -1 5 -18 5 -16 0 -22 -2 -12 -5z"/>
<path d="M810 820 c0 -5 7 -7 15 -4 8 4 15 8 15 10 0 2 -7 4 -15 4 -8 0 -15
-4 -15 -10z"/>
<path d="M200 814 c0 -15 22 -44 31 -39 14 9 11 19 -11 33 -11 7 -20 10 -20 6z"/>
<path d="M230 759 c0 -6 -9 -8 -21 -4 -19 6 -20 4 -14 -29 6 -29 4 -36 -9 -36
-9 0 -16 -4 -16 -10 0 -6 18 -7 47 -3 32 4 44 3 39 -5 -3 -6 -2 -13 4 -17 6
-4 10 6 10 24 0 26 4 31 25 31 14 0 25 4 25 8 0 5 -16 7 -35 6 -19 -2 -35 1
-35 6 0 6 6 10 14 10 8 0 18 5 22 12 5 8 2 9 -9 5 -10 -3 -17 -2 -17 3 0 6 -7
10 -15 10 -8 0 -15 -5 -15 -11z"/>
<path d="M340 735 c-10 -12 -10 -15 4 -15 9 0 16 7 16 15 0 8 -2 15 -4 15 -2
0 -9 -7 -16 -15z"/>
<path d="M570 725 c0 -8 9 -15 20 -15 11 0 20 7 20 15 0 8 -9 15 -20 15 -11 0
-20 -7 -20 -15z"/>
<path d="M218 663 c7 -3 16 -2 19 1 4 3 -2 6 -13 5 -11 0 -14 -3 -6 -6z"/>
<path d="M215 640 c3 -5 8 -10 11 -10 2 0 4 5 4 10 0 6 -5 10 -11 10 -5 0 -7
-4 -4 -10z"/>
<path d="M0 604 c0 -17 22 -14 28 4 2 7 -3 12 -12 12 -9 0 -16 -7 -16 -16z"/>
<path d="M210 608 c-12 -8 -12 -9 2 -5 9 3 19 1 22 -6 3 -9 5 -9 5 0 1 18 -13
23 -29 11z"/>
<path d="M0 565 c0 -9 6 -12 15 -9 19 8 19 24 0 24 -8 0 -15 -7 -15 -15z"/>
</g>
</svg>
