<?xml version="1.0" standalone="no"?>
<!DOCTYPE svg PUBLIC "-//W3C//DTD SVG 20010904//EN"
 "http://www.w3.org/TR/2001/REC-SVG-20010904/DTD/svg10.dtd">
<svg version="1.0" xmlns="http://www.w3.org/2000/svg"
 width="175.000000pt" height="203.000000pt" viewBox="0 0 175.000000 203.000000"
 preserveAspectRatio="xMidYMid meet">

<g transform="translate(0.000000,203.000000) scale(0.100000,-0.100000)"
fill="#000000" stroke="none">
<path d="M0 2014 c0 -11 5 -14 16 -10 9 4 22 0 28 -8 25 -31 141 -41 158 -14
5 9 11 8 23 -2 12 -10 18 -11 24 -2 5 8 38 3 116 -17 61 -15 113 -28 118 -28
45 -6 86 -16 83 -22 -3 -4 22 -13 55 -20 32 -8 59 -17 59 -22 0 -4 9 -11 21
-14 11 -4 24 -18 29 -31 5 -13 14 -24 19 -24 6 0 8 7 5 15 -8 20 -1 19 38 -5
32 -20 32 -21 6 -14 -18 4 -28 2 -28 -5 0 -6 9 -11 20 -11 11 0 20 -4 20 -9 0
-5 12 -17 26 -26 26 -17 27 -17 22 3 -4 15 -2 19 8 15 8 -3 14 -9 14 -14 0 -5
7 -9 15 -9 9 0 18 -6 21 -14 3 -8 12 -12 19 -9 34 12 185 -89 185 -124 0 -19
30 -63 42 -63 6 0 5 6 -2 15 -9 10 -9 15 -1 15 6 0 11 -4 11 -9 0 -5 20 -31
45 -58 43 -46 50 -60 45 -92 -1 -9 4 -12 14 -8 13 5 16 -1 16 -27 0 -39 10
-48 66 -64 66 -19 87 -15 106 18 21 37 31 38 45 3 l12 -28 -6 28 c-3 16 -1 27
6 27 6 0 12 -4 12 -10 1 -5 2 -16 3 -22 0 -7 7 -13 14 -13 13 0 62 -104 62
-132 0 -8 -5 -24 -12 -36 -16 -29 -21 -60 -8 -52 12 7 4 -88 -13 -150 -10 -38
-11 -45 -16 -70 -1 -5 -6 -3 -12 5 -8 12 -9 10 -4 -7 6 -23 -19 -83 -35 -83
-13 0 -80 -71 -80 -85 0 -5 -5 -3 -10 5 -8 13 -10 13 -10 -2 0 -9 -10 -24 -22
-32 -15 -11 -22 -25 -20 -44 1 -21 -7 -39 -33 -65 -43 -44 -84 -48 -148 -16
-36 19 -52 21 -124 16 -67 -5 -83 -3 -83 8 0 7 12 15 27 17 14 2 28 9 31 16 5
17 -58 16 -85 -3 -12 -8 -30 -12 -40 -9 -13 4 -14 3 -5 -3 10 -7 -10 -22 -70
-53 -46 -23 -87 -46 -93 -50 -5 -4 -41 -15 -80 -25 -38 -9 -86 -25 -105 -33
-19 -9 -37 -16 -40 -17 -3 0 -9 -3 -15 -6 -5 -3 -26 -6 -45 -8 -19 -2 -43 -7
-52 -12 -9 -5 -26 -9 -36 -9 -16 0 -19 -5 -15 -21 5 -16 2 -20 -8 -17 -8 3
-13 11 -11 17 2 12 -39 15 -76 5 -12 -4 -22 -13 -22 -20 0 -19 9 -18 33 3 18
17 19 17 16 0 -2 -10 -8 -18 -14 -19 -5 -1 -14 -7 -20 -14 -5 -7 -30 -15 -55
-17 -43 -4 -58 -8 -108 -28 -13 -5 -38 -9 -57 -9 l-35 0 0 -125 0 -125 875 0
875 0 0 1015 0 1015 -875 0 c-797 0 -875 -1 -875 -16z m115 -24 c-3 -5 -10
-10 -16 -10 -5 0 -9 5 -9 10 0 6 7 10 16 10 8 0 12 -4 9 -10z m1476 -18 c-7
-2 -18 1 -23 6 -8 8 -4 9 13 5 13 -4 18 -8 10 -11z m-186 -1 c17 -5 22 -10 12
-10 -10 -1 -16 -5 -13 -9 2 -4 -12 -9 -32 -10 -28 -2 -33 0 -22 8 12 8 11 10
-7 10 -12 0 -25 -4 -28 -10 -3 -5 -13 -10 -21 -10 -8 0 -12 5 -9 10 4 6 -8 10
-29 10 -20 0 -36 -4 -36 -10 0 -5 8 -7 18 -4 15 5 15 4 -1 -6 -14 -9 -22 -9
-30 -1 -6 6 -18 11 -26 10 -11 0 -10 -3 4 -9 15 -6 7 -9 -31 -9 -64 -1 -76 10
-27 24 30 9 -2 11 -157 9 -115 -1 -206 -6 -222 -12 -16 -7 -28 -9 -28 -7 0 3
-12 -3 -27 -12 -15 -10 -24 -13 -20 -6 4 6 2 13 -5 15 -7 3 -5 7 6 11 10 4 15
3 11 -3 -3 -6 -2 -10 4 -10 5 0 13 5 16 10 4 6 11 8 16 5 5 -4 9 -1 9 4 0 6
-20 11 -46 11 -36 0 -45 -3 -41 -14 5 -12 1 -13 -26 -3 l-32 11 30 7 c47 10
757 10 790 0z m-365 -31 c0 -5 -11 -10 -24 -10 -14 0 -28 5 -31 10 -4 6 7 10
24 10 17 0 31 -4 31 -10z m-657 -1627 c-7 -2 -19 -2 -25 0 -7 3 -2 5 12 5 14
0 19 -2 13 -5z"/>
<path d="M33 1955 c8 -8 27 -16 43 -19 15 -3 31 -11 35 -18 6 -9 11 -9 23 1 9
7 22 11 29 8 8 -3 20 -1 28 4 16 10 17 10 -61 14 -53 4 -77 9 -86 18 -4 4 -11
7 -16 7 -5 0 -3 -7 5 -15z"/>
<path d="M230 1914 c0 -8 5 -12 10 -9 6 3 10 10 10 16 0 5 -4 9 -10 9 -5 0
-10 -7 -10 -16z"/>
<path d="M18 1891 c-27 -27 -24 -54 5 -46 32 10 37 17 31 43 -7 26 -13 27 -36
3z"/>
<path d="M146 1896 c5 -12 0 -16 -20 -16 -14 0 -26 -5 -26 -12 0 -6 -3 -8 -6
-5 -10 9 -46 -12 -39 -23 3 -6 0 -7 -8 -4 -8 3 -18 0 -23 -7 -4 -7 -3 -10 4
-5 6 3 13 2 17 -4 3 -5 15 -10 26 -10 10 0 19 -4 19 -10 0 -16 18 -12 40 10
22 22 43 17 81 -21 10 -10 24 -19 30 -19 7 0 0 11 -16 26 -35 32 -24 44 15 15
17 -12 30 -17 30 -12 0 6 -13 17 -30 26 -18 9 -30 23 -30 35 0 24 -2 24 55 5
25 -9 49 -14 54 -11 5 3 11 -3 14 -14 3 -11 13 -20 22 -20 9 0 30 -10 47 -21
l29 -21 -20 38 c-23 42 -19 60 5 26 15 -23 74 -32 74 -12 0 6 -5 10 -11 10 -6
0 -8 7 -5 16 5 13 1 15 -19 10 -27 -7 -32 3 -13 22 8 8 9 12 1 12 -23 0 -43
-13 -36 -24 3 -6 -2 -4 -13 6 -28 24 -86 32 -130 18 -47 -16 -91 -15 -110 1
-12 10 -13 9 -8 -5z"/>
<path d="M500 1856 c0 -2 7 -7 16 -10 8 -3 12 -2 9 4 -6 10 -25 14 -25 6z"/>
<path d="M595 1803 c0 -20 -6 -29 -20 -31 l-20 -4 20 16 c16 13 17 15 3 10
-13 -4 -18 -1 -18 10 0 14 -4 15 -21 5 -15 -8 -18 -14 -10 -22 6 -6 11 -19 11
-30 0 -11 6 -18 18 -16 9 1 19 0 22 -1 19 -7 70 -4 70 4 0 6 5 3 11 -8 9 -14
8 -21 -2 -28 -11 -8 -10 -9 3 -5 9 3 22 -1 28 -9 10 -11 10 -14 0 -14 -8 0
-11 -2 -8 -5 10 -10 58 7 58 20 0 13 -28 30 -42 27 -5 -1 -8 5 -8 13 0 13 -18
20 -42 16 -5 0 -8 7 -8 17 0 10 -10 28 -23 40 l-23 21 1 -26z"/>
<path d="M170 1780 c0 -11 -7 -20 -15 -20 -21 0 -19 -16 3 -25 16 -7 15 -8 -3
-15 -11 -5 -37 -6 -58 -3 -33 5 -37 3 -30 -12 4 -13 3 -16 -6 -11 -7 5 -10 14
-7 22 3 7 -3 18 -14 24 -36 19 -42 12 -38 -42 3 -44 6 -52 22 -50 9 2 23 -2
31 -8 12 -10 22 -1 23 24 0 12 24 26 44 26 10 0 39 14 65 30 43 28 46 31 25
36 -13 4 -22 14 -22 25 0 11 -4 19 -10 19 -5 0 -10 -9 -10 -20z"/>
<path d="M290 1780 c-22 -7 -21 -8 13 -9 23 -1 36 3 32 9 -7 11 -10 11 -45 0z"/>
<path d="M500 1782 c0 -6 -22 -21 -50 -33 -86 -37 -95 -70 -13 -50 57 15 80
30 62 42 -10 6 -10 11 1 23 7 9 10 19 6 23 -3 3 -6 1 -6 -5z"/>
<path d="M105 1760 c-3 -5 1 -10 10 -10 9 0 13 5 10 10 -3 6 -8 10 -10 10 -2
0 -7 -4 -10 -10z"/>
<path d="M268 1743 c7 -3 16 -2 19 1 4 3 -2 6 -13 5 -11 0 -14 -3 -6 -6z"/>
<path d="M541 1704 c-15 -33 -15 -31 19 -49 19 -10 27 -20 24 -30 -4 -9 3 -19
20 -26 31 -15 34 -39 6 -46 -20 -5 -23 -24 -4 -30 21 -6 40 42 36 89 -4 43 -7
48 -38 58 -19 7 -42 9 -51 6 -14 -6 -14 -4 1 18 9 14 12 27 7 30 -4 3 -13 -6
-20 -20z"/>
<path d="M345 1659 c-11 -4 -15 -8 -10 -9 6 -1 25 -3 44 -6 48 -6 85 -56 39
-51 -18 1 -22 -3 -20 -18 2 -16 -3 -14 -26 12 l-28 32 2 -27 c3 -42 4 -42 12
-41 21 4 31 -2 26 -15 -3 -9 5 -21 20 -31 14 -10 24 -20 22 -24 -3 -3 20 -23
49 -43 45 -31 56 -35 71 -24 15 11 13 14 -22 20 -21 3 -48 13 -58 21 -19 14
-19 15 -1 35 10 11 30 20 44 20 20 0 22 3 11 9 -8 6 -17 8 -21 5 -4 -2 -10 3
-13 12 -9 22 -8 24 9 24 15 0 18 5 18 35 0 46 -4 65 -13 65 -5 0 -7 -7 -4 -15
4 -8 2 -15 -4 -15 -5 0 -12 7 -16 15 -3 8 -11 15 -18 15 -6 0 1 -13 16 -29 17
-18 26 -36 23 -45 -7 -18 -27 -22 -27 -6 0 17 -62 76 -85 82 -11 3 -29 1 -40
-3z m99 -101 c-5 -7 -2 -9 9 -5 11 4 14 2 10 -9 -3 -7 -9 -14 -13 -14 -10 0
-20 26 -13 34 10 10 15 7 7 -6z"/>
<path d="M972 1649 c-10 -15 -10 -25 -3 -32 7 -7 12 -5 16 6 3 9 7 24 10 32 7
22 -8 18 -23 -6z"/>
<path d="M85 1630 c-18 -20 -18 -21 2 -26 12 -3 20 -11 17 -18 -3 -7 5 -21 16
-31 20 -18 21 -18 50 10 21 20 29 37 28 55 -2 25 -6 27 -48 29 -36 1 -51 -4
-65 -19z"/>
<path d="M816 1614 c-4 -11 0 -24 10 -33 13 -12 17 -13 21 -3 3 9 9 10 17 3 7
-6 28 -11 48 -13 20 -1 34 -6 31 -11 -3 -4 -11 -6 -19 -3 -7 3 -16 1 -20 -5
-3 -6 -12 -8 -20 -5 -25 9 -15 -8 16 -29 l30 -20 -33 -8 c-79 -20 -88 -20 -81
-2 9 22 -20 45 -55 45 -22 0 -26 5 -27 31 -1 16 -6 35 -13 42 -8 8 -11 2 -11
-25 0 -41 -8 -49 -69 -68 -34 -11 -45 -12 -49 -2 -5 17 -29 15 -29 -3 0 -8 7
-15 16 -15 34 -1 97 -13 112 -20 8 -5 21 -5 29 0 14 9 40 3 40 -10 0 -4 -6 -7
-14 -6 -8 0 -15 -3 -16 -9 -2 -18 63 -21 95 -5 31 16 65 16 65 -1 0 -5 -9 -9
-19 -9 -11 0 -23 -4 -26 -10 -3 -5 1 -10 9 -10 21 0 20 -17 -1 -29 -14 -8 -10
-10 22 -10 22 0 58 4 79 9 35 8 42 6 67 -18 15 -14 26 -29 23 -34 -12 -19 26
-6 43 15 10 12 31 27 47 32 38 13 43 31 11 39 -15 4 -25 13 -25 24 0 34 -24
73 -42 68 -10 -2 -19 3 -21 13 -3 11 -8 7 -16 -15 -10 -26 -16 -30 -39 -27
l-27 4 24 -14 c23 -14 23 -14 3 -19 -24 -7 -45 12 -34 28 4 6 17 14 30 18 24
8 31 46 8 46 -8 0 -16 6 -19 14 -11 27 -73 64 -118 71 -39 6 -47 4 -53 -11z
m214 -184 c8 -5 11 -10 5 -10 -5 0 -17 5 -25 10 -8 5 -10 10 -5 10 6 0 17 -5
25 -10z m55 -21 c-7 -10 -35 -1 -35 11 0 5 9 6 20 3 11 -3 17 -9 15 -14z"/>
<path d="M212 1578 c5 -15 28 -23 28 -10 0 5 -7 13 -16 16 -10 4 -14 1 -12 -6z"/>
<path d="M543 1551 c-11 -18 -10 -18 18 -4 33 17 37 23 11 23 -9 0 -23 -9 -29
-19z"/>
<path d="M197 1544 c-3 -3 -3 -12 0 -20 4 -10 -4 -12 -36 -8 -29 3 -43 1 -47
-9 -2 -7 -12 -14 -20 -14 -8 0 -13 6 -10 14 3 8 -2 13 -15 13 -12 0 -17 -4
-14 -11 4 -6 -4 -9 -22 -7 -24 3 -28 -1 -31 -23 l-3 -26 65 8 c35 5 80 15 100
23 30 12 36 13 47 0 11 -14 41 -19 51 -8 3 3 3 17 -2 32 -5 22 -12 27 -34 25
-14 -1 -24 2 -21 8 7 10 2 12 -8 3z"/>
<path d="M300 1518 c-16 -7 -20 -12 -12 -15 8 -3 21 2 30 11 19 18 17 19 -18
4z"/>
<path d="M266 1471 c-10 -11 -14 -25 -10 -36 6 -15 2 -17 -29 -13 -25 3 -38 0
-42 -10 -4 -10 0 -12 10 -8 9 3 13 2 10 -4 -3 -6 2 -13 11 -17 29 -11 53 -35
47 -48 -7 -19 18 -30 31 -14 16 20 51 47 42 32 -10 -17 14 -16 37 1 17 13 16
16 -13 45 -18 17 -37 31 -43 31 -7 0 -4 5 5 11 12 7 30 7 55 0 20 -6 39 -9 41
-6 2 2 -7 7 -22 11 -14 3 -23 11 -19 17 3 5 1 7 -5 3 -6 -3 -21 -2 -34 2 -26
10 -51 5 -42 -9 3 -5 0 -9 -5 -9 -14 0 -14 13 1 28 7 7 8 12 2 12 -6 0 -18 -8
-28 -19z m24 -71 c-20 -13 -53 -13 -45 0 3 6 18 10 33 10 21 0 24 -2 12 -10z
m1 -43 c-10 -9 -11 -8 -5 6 3 10 9 15 12 12 3 -3 0 -11 -7 -18z"/>
<path d="M200 1450 c0 -5 5 -10 10 -10 6 0 10 5 10 10 0 6 -4 10 -10 10 -5 0
-10 -4 -10 -10z"/>
<path d="M680 1430 c0 -6 7 -10 15 -10 8 0 15 2 15 4 0 2 -7 6 -15 10 -8 3
-15 1 -15 -4z"/>
<path d="M70 1418 c0 -7 7 -22 15 -32 14 -18 15 -19 15 -2 0 12 5 16 15 13 15
-6 31 8 18 16 -24 13 -63 16 -63 5z"/>
<path d="M412 1397 c3 -15 1 -30 -4 -33 -4 -3 -5 -10 -2 -16 4 -6 3 -9 -2 -5
-14 8 -49 -16 -50 -35 -1 -13 5 -18 22 -18 13 0 24 4 24 10 0 5 6 7 14 4 7 -3
16 2 20 11 3 9 2 13 -4 10 -11 -7 -8 18 5 48 5 13 2 24 -10 35 -16 16 -17 15
-13 -11z"/>
<path d="M635 1401 c-10 -9 -4 -21 10 -21 8 0 24 -5 35 -12 16 -11 23 -9 40 9
23 25 27 41 6 24 -10 -8 -16 -9 -21 -1 -6 10 -61 11 -70 1z"/>
<path d="M40 1370 c-17 -11 -8 -23 14 -18 9 2 12 8 8 15 -5 8 -13 9 -22 3z"/>
<path d="M114 1356 c-18 -8 -35 -19 -39 -25 -4 -7 -15 -9 -25 -6 -10 3 -21 1
-25 -5 -3 -6 -11 -8 -16 -5 -5 4 -9 -1 -9 -9 0 -12 10 -16 38 -16 29 1 47 9
81 40 46 42 45 48 -5 26z"/>
<path d="M745 1360 c-3 -5 -1 -10 4 -10 6 0 11 5 11 10 0 6 -2 10 -4 10 -3 0
-8 -4 -11 -10z"/>
<path d="M559 1350 c-5 -41 -3 -45 26 -48 27 -2 28 -1 12 12 -10 8 -15 20 -11
30 4 11 1 16 -10 16 -9 0 -17 -4 -17 -10z"/>
<path d="M790 1356 c0 -9 30 -14 35 -6 4 6 -3 10 -14 10 -12 0 -21 -2 -21 -4z"/>
<path d="M705 1340 c-3 -5 -1 -10 4 -10 6 0 11 5 11 10 0 6 -2 10 -4 10 -3 0
-8 -4 -11 -10z"/>
<path d="M1130 1333 c0 -4 5 -21 12 -39 7 -22 18 -32 30 -31 12 1 14 5 8 11
-6 6 -10 23 -10 38 0 21 -5 28 -20 28 -11 0 -20 -3 -20 -7z"/>
<path d="M952 1309 c2 -7 10 -15 17 -17 8 -3 12 1 9 9 -2 7 -10 15 -17 17 -8
3 -12 -1 -9 -9z"/>
<path d="M265 1290 c22 -24 31 -25 39 -4 4 12 2 15 -9 11 -8 -4 -17 -2 -20 3
-4 6 -11 10 -17 10 -6 0 -3 -9 7 -20z"/>
<path d="M767 1283 c-12 -11 -8 -23 8 -23 8 0 15 -7 15 -16 0 -8 5 -12 10 -9
16 10 12 35 -6 35 -8 0 -12 5 -9 10 7 11 -8 14 -18 3z"/>
<path d="M1133 1251 c-15 -9 -24 -46 -17 -65 3 -9 15 -16 25 -16 26 0 89 27
89 37 -1 13 -86 52 -97 44z"/>
<path d="M1370 1249 c0 -5 5 -7 10 -4 6 3 10 8 10 11 0 2 -4 4 -10 4 -5 0 -10
-5 -10 -11z"/>
<path d="M372 1232 c-21 -14 3 -33 28 -24 24 9 24 9 4 20 -11 6 -25 7 -32 4z"/>
<path d="M1300 1210 c-12 -23 -13 -30 -1 -30 5 0 11 9 13 21 3 20 3 20 24 2
33 -29 36 -50 11 -74 -31 -30 -79 -49 -129 -50 -24 -1 -54 -4 -68 -8 l-25 -7
23 -13 c20 -11 23 -18 17 -47 -7 -40 0 -42 49 -13 40 23 46 34 15 26 -13 -3
-19 -1 -16 6 2 7 13 12 24 13 11 1 25 4 32 8 6 4 11 1 11 -6 0 -8 3 -9 8 -3
10 15 31 13 42 -5 5 -8 12 -11 16 -7 4 3 1 13 -6 22 -7 9 -10 18 -6 22 3 3 6
1 6 -5 0 -7 9 -12 20 -12 11 0 37 -11 58 -24 52 -34 86 -26 106 25 21 52 21
56 -11 84 -34 30 -53 33 -28 5 14 -16 16 -23 7 -32 -9 -9 -12 -7 -12 10 0 17
-7 24 -30 28 -16 4 -27 11 -24 16 3 5 13 7 23 3 14 -5 14 -4 -2 12 -15 16 -19
16 -27 3 -7 -10 -10 -11 -10 -2 0 6 -9 12 -20 12 -10 0 -23 6 -27 13 -14 24
-52 27 -63 7z m67 -132 c-3 -8 -6 -5 -6 6 -1 11 2 17 5 13 3 -3 4 -12 1 -19z"/>
<path d="M816 1212 c-3 -5 -20 -9 -39 -10 -32 -1 -115 -31 -89 -32 7 0 12 -6
11 -12 -5 -43 3 -58 46 -81 34 -20 46 -22 54 -13 6 7 8 16 4 19 -3 4 1 7 10 7
8 0 19 -9 22 -20 10 -32 24 -23 15 10 -5 16 -11 34 -15 40 -9 14 7 12 31 -4
16 -12 24 -12 44 -1 22 12 23 14 8 20 -10 4 -18 16 -18 26 0 22 -12 24 -40 7
-22 -14 -25 -12 -35 22 -7 23 -7 23 9 7 19 -19 41 -23 30 -6 -3 6 0 15 7 20
10 6 4 9 -18 9 -17 0 -34 -4 -37 -8z m7 -52 c3 -13 0 -20 -9 -20 -8 0 -14 10
-14 26 0 28 15 25 23 -6z"/>
<path d="M992 1201 c2 -7 7 -12 11 -12 12 1 9 15 -3 20 -7 2 -11 -2 -8 -8z"/>
<path d="M156 1185 c4 -8 8 -15 10 -15 2 0 4 7 4 15 0 8 -4 15 -10 15 -5 0 -7
-7 -4 -15z"/>
<path d="M434 1173 c-17 -17 -17 -18 9 -21 15 -2 25 -8 21 -13 -3 -5 -10 -7
-15 -4 -5 4 -9 -5 -9 -19 0 -22 -5 -26 -32 -27 -28 -2 -29 -2 -8 -6 14 -3 29
-9 35 -14 5 -5 27 -9 48 -9 27 0 57 -11 97 -35 32 -19 68 -34 81 -34 17 1 19
3 7 6 -10 2 -18 11 -18 19 0 8 -5 14 -12 14 -6 0 -19 6 -27 13 -21 18 -100 41
-130 38 -16 -2 -21 1 -17 11 3 7 9 20 12 30 5 15 10 15 50 1 25 -8 48 -12 51
-9 4 3 1 6 -6 6 -6 0 -21 9 -33 20 -12 11 -18 20 -14 20 5 0 3 7 -4 15 -17 20
-65 19 -86 -2z"/>
<path d="M242 1172 c-13 -2 -21 -9 -19 -15 2 -7 -12 -19 -32 -29 l-36 -17 32
6 c36 6 69 -17 60 -41 -3 -8 1 -17 9 -20 31 -12 44 -6 44 19 0 19 5 25 22 25
20 0 20 1 4 19 -15 17 -15 19 -1 25 26 10 5 28 -26 24 -16 -3 -30 -2 -31 1 -2
3 -13 5 -26 3z"/>
<path d="M1337 1156 c-8 -20 -44 -24 -102 -9 -53 13 -77 5 -56 -20 18 -23 87
-30 119 -13 31 16 58 44 50 52 -3 3 -8 -2 -11 -10z"/>
<path d="M1040 1151 c0 -5 5 -13 10 -16 6 -3 10 -2 10 4 0 5 -4 13 -10 16 -5
3 -10 2 -10 -4z"/>
<path d="M615 1120 c-19 -8 -19 -9 3 -9 12 -1 22 -7 22 -13 0 -10 3 -9 9 1 5
7 13 11 19 7 6 -3 13 -2 17 4 3 5 0 10 -9 10 -8 0 -20 2 -28 4 -7 3 -22 1 -33
-4z"/>
<path d="M1072 1119 c5 -17 48 -25 48 -10 0 6 -4 11 -9 11 -5 0 -17 3 -27 7
-12 4 -15 2 -12 -8z"/>
<path d="M500 1109 c0 -5 5 -7 10 -4 6 3 10 8 10 11 0 2 -4 4 -10 4 -5 0 -10
-5 -10 -11z"/>
<path d="M936 1113 c-12 -12 -6 -41 9 -47 21 -7 25 -7 26 2 0 4 5 12 10 19 6
6 6 13 2 16 -20 10 -42 15 -47 10z"/>
<path d="M1036 1081 c5 -5 19 -12 32 -16 16 -5 22 -2 22 9 0 11 -10 16 -32 16
-19 0 -28 -4 -22 -9z"/>
<path d="M320 1041 c-47 -25 -47 -40 -3 -75 l37 -30 45 25 c56 32 68 73 26 89
-38 15 -66 12 -105 -9z"/>
<path d="M628 1053 c7 -3 16 -2 19 1 4 3 -2 6 -13 5 -11 0 -14 -3 -6 -6z"/>
<path d="M1110 1034 c0 -11 -6 -14 -20 -9 -11 4 -20 2 -20 -4 0 -6 11 -11 25
-11 18 0 25 5 25 20 0 11 -2 20 -5 20 -3 0 -5 -7 -5 -16z"/>
<path d="M5 1030 c10 -16 45 -32 45 -20 0 5 -7 10 -15 10 -8 0 -15 5 -15 10 0
6 -5 10 -11 10 -5 0 -7 -4 -4 -10z"/>
<path d="M1388 1010 c18 -11 36 -20 41 -20 4 0 13 -11 19 -25 6 -14 17 -25 23
-25 6 0 9 -9 6 -20 -3 -11 -1 -20 4 -20 5 0 9 8 10 18 0 10 3 12 6 5 8 -22 18
-14 20 17 1 16 -2 32 -7 35 -6 4 -10 -1 -10 -10 0 -9 -6 -15 -12 -12 -7 2 -12
9 -11 15 2 6 -4 9 -12 6 -8 -4 -15 -1 -15 5 0 6 -18 20 -40 31 -50 26 -65 26
-22 0z"/>
<path d="M838 985 c5 -28 17 -33 26 -9 7 19 -1 34 -18 34 -9 0 -12 -9 -8 -25z"/>
<path d="M922 992 c14 -12 31 -22 37 -22 6 0 13 -11 17 -25 7 -30 41 -42 61
-22 14 14 49 11 94 -7 9 -4 21 0 29 9 7 8 22 15 34 15 11 1 32 7 46 15 23 13
22 14 -25 8 -27 -4 -59 -7 -70 -7 -11 0 -23 -5 -27 -10 -5 -8 -8 -7 -8 1 0 8
-18 11 -61 8 -33 -1 -58 -1 -55 2 7 8 -16 28 -39 35 -11 3 -29 9 -40 13 -15 6
-13 2 7 -13z"/>
<path d="M70 990 c0 -5 8 -10 18 -10 15 -1 14 -2 -3 -12 -66 -35 -68 -38 -49
-59 10 -11 12 -19 6 -19 -7 0 -12 5 -12 10 0 6 -7 10 -15 10 -22 0 -18 -13 10
-40 14 -13 25 -30 25 -37 0 -8 -11 -26 -25 -41 -14 -15 -25 -30 -25 -34 0 -15
38 -8 44 7 3 8 13 15 22 15 10 0 14 5 10 15 -4 11 3 19 19 25 14 5 25 14 25
20 0 6 4 9 9 5 5 -3 21 9 35 27 27 35 34 33 58 -13 11 -22 16 -24 26 -12 10
10 10 13 -3 13 -8 0 -15 7 -15 15 0 8 -9 19 -20 25 -11 6 -20 17 -20 24 0 8
-10 11 -30 8 -25 -4 -30 -1 -30 16 0 11 8 23 18 27 15 7 14 9 -8 15 -37 12
-70 11 -70 0z m-13 -72 c-3 -8 -6 -5 -6 6 -1 11 2 17 5 13 3 -3 4 -12 1 -19z"/>
<path d="M761 957 c-6 -15 -25 -31 -50 -41 -75 -30 -42 -32 65 -5 34 9 41 14
37 30 -3 11 -14 24 -24 30 -16 8 -21 5 -28 -14z"/>
<path d="M1275 970 c-3 -5 -3 -15 0 -20 4 -6 -9 -28 -28 -51 -32 -36 -52 -86
-48 -116 1 -6 -4 -15 -10 -19 -8 -5 -10 -2 -5 7 4 8 0 5 -8 -5 -20 -25 -20
-32 -1 -40 8 -3 15 -1 15 4 0 6 -5 10 -12 10 -6 0 -9 2 -6 5 3 3 13 3 22 -1
11 -4 15 -13 11 -28 -5 -15 -4 -17 3 -7 8 12 17 10 54 -8 24 -11 51 -21 59
-21 20 0 39 20 33 35 -3 7 -1 16 5 20 16 9 13 35 -3 35 -8 0 -17 -7 -20 -16
-6 -15 -8 -15 -26 1 -11 10 -20 13 -20 8 0 -6 7 -16 16 -23 22 -19 37 -50 24
-50 -5 0 -10 5 -10 11 0 6 -16 25 -36 43 -26 23 -37 42 -41 70 -3 26 -2 36 6
32 6 -4 11 -14 11 -23 0 -14 2 -14 19 1 10 9 22 16 27 14 5 -2 10 2 12 7 1 6
-11 12 -27 15 -35 6 -30 17 16 42 23 12 33 13 37 5 2 -7 5 -5 5 4 1 19 27 32
44 22 8 -5 8 -2 0 8 -8 10 -23 14 -41 11 -18 -2 -33 2 -41 12 -15 18 -27 20
-36 6z m-5 -235 c10 -12 10 -15 -4 -15 -9 0 -16 7 -16 15 0 8 2 15 4 15 2 0 9
-7 16 -15z"/>
<path d="M983 902 c-13 -8 -7 -78 7 -87 12 -8 41 6 34 16 -2 5 0 18 6 29 9 18
8 20 -14 20 -18 0 -24 4 -20 15 7 17 4 18 -13 7z"/>
<path d="M1060 889 c0 -10 -5 -21 -11 -24 -6 -4 -8 -13 -5 -20 2 -7 0 -17 -6
-23 -19 -19 2 -31 51 -30 51 0 54 3 66 57 4 18 -29 44 -67 52 -23 5 -28 3 -28
-12z m6 -46 c-10 -10 -19 5 -10 18 6 11 8 11 12 0 2 -7 1 -15 -2 -18z"/>
<path d="M870 890 c-9 -6 -10 -10 -3 -10 6 0 15 5 18 10 8 12 4 12 -15 0z"/>
<path d="M1363 885 c0 -8 8 -17 18 -20 25 -8 62 -72 56 -95 -6 -22 3 -26 20
-9 6 6 9 18 6 27 -4 10 -2 13 5 8 15 -9 15 6 1 37 -6 14 -30 33 -53 43 -22 10
-44 19 -47 21 -3 2 -6 -3 -6 -12z"/>
<path d="M815 860 c-3 -5 -1 -10 4 -10 6 0 11 5 11 10 0 6 -2 10 -4 10 -3 0
-8 -4 -11 -10z"/>
<path d="M1186 835 c-9 -26 -7 -32 5 -12 6 10 9 21 6 23 -2 3 -7 -2 -11 -11z"/>
<path d="M878 820 c13 -6 20 -15 17 -21 -4 -6 2 -5 14 3 29 18 26 23 -17 25
-32 2 -34 1 -14 -7z"/>
<path d="M0 805 c0 -8 4 -15 10 -15 5 0 7 7 4 15 -4 8 -8 15 -10 15 -2 0 -4
-7 -4 -15z"/>
<path d="M143 768 c-14 -18 -24 -78 -14 -78 5 0 20 -22 34 -49 l24 -49 21 26
21 27 2 -35 c1 -21 3 -27 6 -16 8 30 28 47 41 34 6 -6 16 -8 24 -5 13 5 -34
29 -61 31 -25 2 -20 47 6 59 12 5 23 14 23 19 0 14 -60 9 -66 -6 -7 -17 -33
-11 -51 12 -9 11 -10 19 -2 29 6 7 9 13 6 13 -2 0 -9 -6 -14 -12z"/>
<path d="M608 773 c7 -3 16 -2 19 1 4 3 -2 6 -13 5 -11 0 -14 -3 -6 -6z"/>
<path d="M88 763 c6 -2 18 -2 25 0 6 3 1 5 -13 5 -14 0 -19 -2 -12 -5z"/>
<path d="M315 760 c3 -5 11 -10 16 -10 6 0 7 5 4 10 -3 6 -11 10 -16 10 -6 0
-7 -4 -4 -10z"/>
<path d="M422 745 c-13 -15 -11 -17 18 -19 8 -1 15 -6 15 -13 0 -6 3 -15 8
-19 4 -4 7 2 7 14 0 17 6 22 25 22 19 0 23 -4 18 -17 -6 -19 -5 -18 14 7 10
13 8 16 -13 18 -14 1 -33 6 -42 11 -11 6 -20 4 -29 -7 -12 -16 -13 -16 -7 1 7
21 3 21 -14 2z"/>
<path d="M1106 731 c-3 -5 1 -14 9 -21 13 -10 15 -9 15 9 0 21 -14 28 -24 12z"/>
<path d="M45 720 c-3 -5 -2 -10 4 -10 5 0 13 5 16 10 3 6 2 10 -4 10 -5 0 -13
-4 -16 -10z"/>
<path d="M343 714 c30 -21 40 -71 11 -60 -12 4 -14 1 -9 -13 5 -18 -18 -42
-37 -38 -3 1 -10 -1 -14 -5 -4 -5 -2 -8 4 -8 7 0 12 -8 12 -18 0 -24 19 -42
45 -42 12 0 24 -3 28 -6 3 -4 24 -7 46 -8 26 -2 49 -10 63 -23 36 -34 130 -61
113 -33 -4 7 2 9 17 5 40 -10 75 11 98 56 11 24 20 45 20 47 0 2 -16 2 -35 0
-19 -2 -35 -1 -35 2 0 4 -17 6 -37 4 -21 -2 -42 -3 -46 -3 -4 -1 -7 -7 -6 -13
3 -25 -1 -48 -9 -48 -5 0 -16 19 -26 41 l-19 42 32 29 c17 16 31 32 31 35 0 3
-9 -2 -19 -11 -12 -11 -27 -15 -39 -12 -17 6 -19 2 -15 -34 4 -44 -15 -63 -42
-40 -12 10 -21 10 -40 2 -16 -7 -26 -8 -30 -1 -4 5 -1 8 5 7 7 -2 14 5 15 15
2 9 -1 17 -5 17 -5 0 -2 14 6 30 18 35 28 39 19 8 -5 -20 -4 -20 5 -6 8 13 7
24 -5 42 -23 34 -89 77 -69 44 5 -8 2 -9 -9 -5 -42 17 -50 17 -24 1z m71 -29
c-4 -8 -11 -12 -16 -9 -6 4 -5 10 3 15 19 12 19 11 13 -6z m123 -191 c-12 -12
-37 5 -30 21 5 15 7 15 21 1 9 -9 13 -18 9 -22z m143 26 c0 -5 -5 -10 -11 -10
-5 0 -7 5 -4 10 3 6 8 10 11 10 2 0 4 -4 4 -10z m-30 -26 c0 -2 -7 -4 -15 -4
-8 0 -15 4 -15 10 0 5 7 7 15 4 8 -4 15 -8 15 -10z"/>
<path d="M0 634 c0 -44 3 -54 12 -46 7 5 34 9 60 7 45 -2 46 -1 37 22 -5 14
-5 23 1 23 6 0 10 8 10 19 0 14 -10 20 -37 25 -82 13 -83 12 -83 -50z"/>
<path d="M875 650 c-3 -5 -12 -7 -20 -3 -8 3 -15 1 -15 -5 0 -14 47 -24 73
-16 20 6 20 7 2 20 -22 16 -32 17 -40 4z"/>
<path d="M476 614 c-9 -24 -8 -26 14 -14 11 6 18 15 15 21 -9 14 -22 11 -29
-7z"/>
<path d="M800 590 c-10 -6 -11 -10 -2 -10 6 0 12 -6 12 -14 0 -17 34 -10 51
10 9 11 8 14 -4 14 -8 0 -21 2 -29 5 -7 3 -20 0 -28 -5z"/>
<path d="M166 531 c-21 -39 -80 -80 -128 -87 -28 -5 -38 -11 -38 -25 0 -29 51
-25 80 6 13 14 29 25 35 25 17 0 52 40 65 74 15 40 5 45 -14 7z"/>
<path d="M135 540 c-3 -5 -1 -10 4 -10 6 0 11 5 11 10 0 6 -2 10 -4 10 -3 0
-8 -4 -11 -10z"/>
<path d="M65 500 c3 -5 15 -10 26 -10 11 0 17 5 14 10 -3 6 -15 10 -26 10 -11
0 -17 -4 -14 -10z"/>
<path d="M296 472 c-4 -7 -4 -12 0 -12 4 0 1 -6 -8 -12 -23 -19 -28 -44 -14
-63 10 -14 21 -16 55 -10 23 4 45 13 48 21 3 8 14 14 24 14 30 0 12 26 -31 45
-21 9 -43 14 -48 11 -6 -3 -12 -1 -14 6 -3 9 -6 9 -12 0z"/>
<path d="M475 430 c-11 -12 -13 -20 -6 -20 6 0 14 6 17 14 3 8 13 12 24 9 10
-3 21 0 24 6 13 20 -40 12 -59 -9z"/>
<path d="M70 375 c-11 -13 -3 -15 59 -15 69 0 93 12 49 24 -41 11 -95 6 -108
-9z"/>
<path d="M155 320 c3 -5 8 -10 11 -10 2 0 4 5 4 10 0 6 -5 10 -11 10 -5 0 -7
-4 -4 -10z"/>
</g>
</svg>
